SplineFontDB: 3.0
FontName: ArcadiaTextbook
FullName: Arcadia Textbook
FamilyName: Arcadia
Weight: Textbook
Copyright: Copyright (c) 2012 by GNU. All rights reserved.
Version: 1.015
ItalicAngle: 0
UnderlinePosition: -251
UnderlineWidth: 50
Ascent: 800
Descent: 200
InvalidEm: 0
sfntRevision: 0x00010396
LayerCount: 3
Layer: 0 1 "Back" 1
Layer: 1 1 "Fore" 0
Layer: 2 0 "Back 2" 1
XUID: [1021 391 -896125919 9218893]
FSType: 0
OS2Version: 3
OS2_WeightWidthSlopeOnly: 0
OS2_UseTypoMetrics: 1
CreationTime: 1354103340
ModificationTime: 1432574045
PfmFamily: 33
TTFWeight: 400
TTFWidth: 5
LineGap: 28
VLineGap: 0
Panose: 2 11 5 4 2 2 2 2 2 4
OS2TypoAscent: 729
OS2TypoAOffset: 0
OS2TypoDescent: -218
OS2TypoDOffset: 0
OS2TypoLinegap: 55
OS2WinAscent: 959
OS2WinAOffset: 0
OS2WinDescent: 220
OS2WinDOffset: 0
HheadAscent: 959
HheadAOffset: 0
HheadDescent: -220
HheadDOffset: 0
OS2SubXSize: 650
OS2SubYSize: 699
OS2SubXOff: 47
OS2SubYOff: 140
OS2SupXSize: 650
OS2SupYSize: 699
OS2SupXOff: -163
OS2SupYOff: 479
OS2StrikeYSize: 50
OS2StrikeYPos: 250
OS2CapHeight: 729
OS2XHeight: 524
OS2Vendor: 'GNU '
OS2CodePages: 600200bf.dff70000
OS2UnicodeRanges: e45f8eff.5007f9fb.000000a0.00000000
Lookup: 258 0 0 "'kern' Horizontal Kerning in Latin lookup 0" { "'kern' Horizontal Kerning in Latin lookup 0 subtable"  } ['kern' ('latn' <'dflt' > ) ]
MarkAttachClasses: 1
DEI: 91125
TtTable: prep
PUSHW_1
 0
CALL
EndTTInstrs
TtTable: fpgm
PUSHW_1
 0
FDEF
MPPEM
PUSHW_1
 8
LT
IF
PUSHB_2
 1
 1
INSTCTRL
EIF
PUSHW_1
 511
SCANCTRL
PUSHW_1
 68
SCVTCI
PUSHW_2
 8
 3
SDS
SDB
ENDF
PUSHW_1
 1
FDEF
DUP
DUP
RCVT
ROUND[Black]
WCVTP
PUSHB_1
 1
ADD
ENDF
PUSHW_1
 2
FDEF
PUSHW_1
 1
LOOPCALL
POP
ENDF
PUSHW_1
 3
FDEF
DUP
GC[cur]
PUSHB_1
 3
CINDEX
GC[cur]
GT
IF
SWAP
EIF
DUP
ROLL
DUP
ROLL
MD[grid]
ABS
ROLL
DUP
GC[cur]
DUP
ROUND[Grey]
SUB
ABS
PUSHB_1
 4
CINDEX
GC[cur]
DUP
ROUND[Grey]
SUB
ABS
GT
IF
SWAP
NEG
ROLL
EIF
MDAP[rnd]
DUP
PUSHB_1
 0
GTEQ
IF
ROUND[Black]
DUP
PUSHB_1
 0
EQ
IF
POP
PUSHB_1
 64
EIF
ELSE
ROUND[Black]
DUP
PUSHB_1

StartChar: .notdef
Encoding: 65536 -1 0
Width: 500
GlyphClass: 2
Flags: W
LayerCount: 3
Back
Fore
SplineSet
468 977 m 1,0,-1
 468 0 l 1,1,-1
 67 0 l 1,2,-1
 67 977 l 1,3,-1
 468 977 l 1,0,-1
401 910 m 1,4,-1
 134 910 l 1,5,-1
 134 67 l 1,6,-1
 401 67 l 1,7,-1
 401 910 l 1,4,-1
EndSplineSet
Validated: 1
Layer: 2
EndChar

StartChar: exclam
Encoding: 33 33 4
Width: 278
GlyphClass: 2
Flags: W
LayerCount: 3
Back
Fore
SplineSet
208 729 m 1,0,-1
 208 391 l 1,1,-1
 186 168 l 1,2,-1
 147 168 l 1,3,-1
 125 391 l 1,4,-1
 125 729 l 1,5,-1
 208 729 l 1,0,-1
208 104 m 1,6,-1
 208 0 l 1,7,-1
 124 0 l 1,8,-1
 124 104 l 1,9,-1
 208 104 l 1,6,-1
EndSplineSet
Validated: 1
Layer: 2
EndChar

StartChar: quotedbl
Encoding: 34 34 5
Width: 355
GlyphClass: 2
Flags: W
LayerCount: 3
Back
Fore
SplineSet
52 709 m 1,0,-1
 145 709 l 1,1,-1
 145 598 l 1,2,-1
 118 464 l 1,3,-1
 79 464 l 1,4,-1
 52 598 l 1,5,-1
 52 709 l 1,0,-1
212 709 m 1,6,-1
 305 709 l 1,7,-1
 305 598 l 1,8,-1
 278 464 l 1,9,-1
 239 464 l 1,10,-1
 212 598 l 1,11,-1
 212 709 l 1,6,-1
EndSplineSet
Validated: 1
Layer: 2
EndChar

StartChar: numbersign
Encoding: 35 35 6
Width: 556
GlyphClass: 2
Flags: W
LayerCount: 3
Back
Fore
SplineSet
485 697 m 1,0,-1
 449 501 l 1,1,-1
 542 501 l 1,2,-1
 542 433 l 1,3,-1
 436 433 l 1,4,-1
 405 259 l 1,5,-1
 510 259 l 1,6,-1
 510 191 l 1,7,-1
 393 191 l 1,8,-1
 354 -20 l 1,9,-1
 278 -20 l 1,10,-1
 316 191 l 1,11,-1
 192 191 l 1,12,-1
 153 -20 l 1,13,-1
 77 -20 l 1,14,-1
 115 191 l 1,15,-1
 14 191 l 1,16,-1
 14 259 l 1,17,-1
 128 259 l 1,18,-1
 159 433 l 1,19,-1
 51 433 l 1,20,-1
 51 501 l 1,21,-1
 172 501 l 1,22,-1
 208 697 l 1,23,-1
 284 697 l 1,24,-1
 248 501 l 1,25,-1
 373 501 l 1,26,-1
 408 697 l 1,27,-1
 485 697 l 1,0,-1
360 433 m 1,28,-1
 236 433 l 1,29,-1
 204 259 l 1,30,-1
 329 259 l 1,31,-1
 360 433 l 1,28,-1
EndSplineSet
Validated: 1
Layer: 2
EndChar

StartChar: dollar
Encoding: 36 36 7
Width: 556
GlyphClass: 2
Flags: W
LayerCount: 3
Back
Fore
SplineSet
518 195 m 0,0,1
 518 99 518 99 462.5 41.5 c 128,-1,2
 407 -16 407 -16 302 -23 c 1,3,-1
 302 -126 l 1,4,-1
 243 -126 l 1,5,-1
 243 -23 l 1,6,7
 142 -16 142 -16 87.5 39 c 128,-1,8
 33 94 33 94 33 191 c 2,9,-1
 33 208 l 1,10,-1
 112 208 l 1,11,12
 114 188 114 188 114.5 181.5 c 128,-1,13
 115 175 115 175 118 156.5 c 128,-1,14
 121 138 121 138 124.5 130.5 c 128,-1,15
 128 123 128 123 134.5 108 c 128,-1,16
 141 93 141 93 150 85.5 c 128,-1,17
 159 78 159 78 172 69 c 128,-1,18
 185 60 185 60 203 54.5 c 128,-1,19
 221 49 221 49 243 46 c 1,20,-1
 243 318 l 1,21,22
 150 346 150 346 117 370 c 0,23,24
 46 421 46 421 46 516 c 0,25,26
 46 601 46 601 96.5 652.5 c 128,-1,27
 147 704 147 704 243 716 c 1,28,-1
 243 770 l 1,29,-1
 302 770 l 1,30,-1
 302 716 l 1,31,32
 393 709 393 709 444.5 656.5 c 128,-1,33
 496 604 496 604 496 519 c 1,34,-1
 417 519 l 1,35,36
 416 574 416 574 384 609 c 128,-1,37
 352 644 352 644 302 646 c 1,38,-1
 302 397 l 1,39,40
 306 396 306 396 332 389 c 128,-1,41
 358 382 358 382 372 377 c 128,-1,42
 386 372 386 372 411.5 361 c 128,-1,43
 437 350 437 350 452.5 336.5 c 128,-1,44
 468 323 468 323 485 303.5 c 128,-1,45
 502 284 502 284 510 256 c 128,-1,46
 518 228 518 228 518 195 c 0,0,1
243 405 m 1,47,-1
 243 645 l 1,48,49
 187 637 187 637 157 606 c 128,-1,50
 127 575 127 575 127 526 c 0,51,52
 127 436 127 436 243 405 c 1,47,-1
302 46 m 1,53,54
 369 54 369 54 402.5 91 c 128,-1,55
 436 128 436 128 436 183 c 0,56,57
 436 232 436 232 407.5 259 c 128,-1,58
 379 286 379 286 302 309 c 1,59,-1
 302 46 l 1,53,54
EndSplineSet
Validated: 1
Layer: 2
EndChar

StartChar: percent
Encoding: 37 37 8
Width: 889
GlyphClass: 2
Flags: W
LayerCount: 3
Back
Fore
SplineSet
199 685 m 0,0,1
 271 685 271 685 320.5 635 c 128,-1,2
 370 585 370 585 370 512 c 0,3,4
 370 443 370 443 320 393 c 128,-1,5
 270 343 270 343 200 343 c 128,-1,6
 130 343 130 343 79.5 393.5 c 128,-1,7
 29 444 29 444 29 514 c 128,-1,8
 29 584 29 584 79 634.5 c 128,-1,9
 129 685 129 685 199 685 c 0,0,1
199 615 m 0,10,11
 158 615 158 615 128 585.5 c 128,-1,12
 98 556 98 556 98 514 c 0,13,14
 98 473 98 473 128 443 c 128,-1,15
 158 413 158 413 200 413 c 0,16,17
 241 413 241 413 271 442.5 c 128,-1,18
 301 472 301 472 301 513 c 0,19,20
 301 556 301 556 271.5 585.5 c 128,-1,21
 242 615 242 615 199 615 c 0,10,11
609 709 m 1,22,-1
 675 709 l 1,23,-1
 280 -20 l 1,24,-1
 214 -20 l 1,25,-1
 609 709 l 1,22,-1
688 322 m 0,26,27
 760 322 760 322 809.5 272 c 128,-1,28
 859 222 859 222 859 150 c 0,29,30
 859 81 859 81 808.5 31 c 128,-1,31
 758 -19 758 -19 689 -19 c 0,32,33
 618 -19 618 -19 568 31.5 c 128,-1,34
 518 82 518 82 518 152 c 128,-1,35
 518 222 518 222 568 272 c 128,-1,36
 618 322 618 322 688 322 c 0,26,27
688 252 m 0,37,38
 647 252 647 252 617 222.5 c 128,-1,39
 587 193 587 193 587 152 c 0,40,41
 587 110 587 110 617 80.5 c 128,-1,42
 647 51 647 51 689 51 c 0,43,44
 730 51 730 51 760 80.5 c 128,-1,45
 790 110 790 110 790 150 c 0,46,47
 790 193 790 193 760.5 222.5 c 128,-1,48
 731 252 731 252 688 252 c 0,37,38
EndSplineSet
Validated: 1
Layer: 2
EndChar

StartChar: ampersand
Encoding: 38 38 9
Width: 667
GlyphClass: 2
Flags: W
LayerCount: 3
Back
Fore
SplineSet
466 78 m 1,0,1
 455 68 455 68 443 55.5 c 128,-1,2
 431 43 431 43 411.5 29 c 128,-1,3
 392 15 392 15 371 3.5 c 128,-1,4
 350 -8 350 -8 319.5 -15.5 c 128,-1,5
 289 -23 289 -23 257 -23 c 0,6,7
 165 -23 165 -23 108.5 31.5 c 128,-1,8
 52 86 52 86 52 176 c 0,9,10
 52 244 52 244 86.5 289.5 c 128,-1,11
 121 335 121 335 214 389 c 1,12,13
 167 448 167 448 150 482.5 c 128,-1,14
 133 517 133 517 133 552 c 0,15,16
 133 618 133 618 183 663.5 c 128,-1,17
 233 709 233 709 304 709 c 128,-1,18
 375 709 375 709 421 665 c 128,-1,19
 467 621 467 621 467 552 c 0,20,21
 467 498 467 498 437 460 c 128,-1,22
 407 422 407 422 329 378 c 1,23,-1
 462 215 l 1,24,25
 493 270 493 270 493 330 c 2,26,-1
 493 334 l 1,27,-1
 573 334 l 1,28,29
 573 240 573 240 515 151 c 1,30,-1
 637 0 l 1,31,-1
 528 0 l 1,32,-1
 466 78 l 1,0,1
285 431 m 1,33,34
 344 468 344 468 366 494 c 128,-1,35
 388 520 388 520 388 554 c 0,36,37
 388 591 388 591 363.5 615 c 128,-1,38
 339 639 339 639 301 639 c 0,39,40
 262 639 262 639 238.5 615.5 c 128,-1,41
 215 592 215 592 215 553 c 0,42,43
 215 526 215 526 227.5 504.5 c 128,-1,44
 240 483 240 483 285 431 c 1,33,34
418 137 m 1,45,-1
 258 337 l 1,46,47
 190 294 190 294 163 259.5 c 128,-1,48
 136 225 136 225 136 183 c 0,49,50
 136 130 136 130 174.5 92.5 c 128,-1,51
 213 55 213 55 267 55 c 0,52,53
 340 55 340 55 418 137 c 1,45,-1
EndSplineSet
Validated: 1
Layer: 2
EndChar

StartChar: quotesingle
Encoding: 39 39 10
Width: 191
GlyphClass: 2
Flags: W
LayerCount: 3
Back
Fore
SplineSet
48 709 m 1,0,-1
 142 709 l 1,1,-1
 142 598 l 1,2,-1
 115 464 l 1,3,-1
 75 464 l 1,4,-1
 48 598 l 1,5,-1
 48 709 l 1,0,-1
EndSplineSet
Validated: 1
Layer: 2
EndChar

StartChar: parenleft
Encoding: 40 40 11
Width: 333
GlyphClass: 2
Flags: W
LayerCount: 3
Back
Fore
SplineSet
236 729 m 1,0,-1
 291 729 l 1,1,2
 154 508 154 508 154 259 c 0,3,4
 154 11 154 11 291 -212 c 1,5,-1
 236 -212 l 1,6,7
 161 -114 161 -114 117 13.5 c 128,-1,8
 73 141 73 141 73 259 c 128,-1,9
 73 377 73 377 117 504 c 128,-1,10
 161 631 161 631 236 729 c 1,0,-1
EndSplineSet
Validated: 1
Layer: 2
EndChar

StartChar: parenright
Encoding: 41 41 12
Width: 333
GlyphClass: 2
Flags: W
LayerCount: 3
Back
Fore
SplineSet
93 -212 m 1,0,-1
 38 -212 l 1,1,2
 175 9 175 9 175 258 c 0,3,4
 175 506 175 506 38 729 c 1,5,-1
 93 729 l 1,6,7
 168 631 168 631 212 503.5 c 128,-1,8
 256 376 256 376 256 258 c 128,-1,9
 256 140 256 140 212 13 c 128,-1,10
 168 -114 168 -114 93 -212 c 1,0,-1
EndSplineSet
Validated: 1
Layer: 2
EndChar

StartChar: asterisk
Encoding: 42 42 13
Width: 389
GlyphClass: 2
Flags: W
LayerCount: 3
Back
Fore
SplineSet
160 729 m 1,0,-1
 223 729 l 1,1,-1
 218 617 l 1,2,-1
 324 655 l 1,3,-1
 343 596 l 1,4,-1
 235 566 l 1,5,-1
 305 477 l 1,6,-1
 254 441 l 1,7,-1
 192 534 l 1,8,-1
 129 441 l 1,9,-1
 79 477 l 1,10,-1
 148 566 l 1,11,-1
 40 596 l 1,12,-1
 59 655 l 1,13,-1
 165 617 l 1,14,-1
 160 729 l 1,0,-1
EndSplineSet
Validated: 1
Layer: 2
EndChar

StartChar: plus
Encoding: 43 43 14
Width: 584
GlyphClass: 2
Flags: W
LayerCount: 3
Back
Fore
SplineSet
534 267 m 1,0,-1
 534 197 l 1,1,-1
 327 197 l 1,2,-1
 327 -10 l 1,3,-1
 257 -10 l 1,4,-1
 257 197 l 1,5,-1
 50 197 l 1,6,-1
 50 267 l 1,7,-1
 257 267 l 1,8,-1
 257 474 l 1,9,-1
 327 474 l 1,10,-1
 327 267 l 1,11,-1
 534 267 l 1,0,-1
EndSplineSet
Validated: 1
Layer: 2
EndChar

StartChar: comma
Encoding: 44 44 15
Width: 278
GlyphClass: 2
Flags: W
LayerCount: 3
Back
Fore
SplineSet
87 104 m 1,0,-1
 192 104 l 1,1,-1
 192 -16 l 2,2,3
 192 -147 192 -147 87 -147 c 1,4,-1
 87 -109 l 1,5,6
 122 -108 122 -108 134.5 -89 c 128,-1,7
 147 -70 147 -70 147 -18 c 2,8,-1
 147 0 l 1,9,-1
 87 0 l 1,10,-1
 87 104 l 1,0,-1
EndSplineSet
Validated: 1
Layer: 2
EndChar

StartChar: hyphen
Encoding: 45 45 16
Width: 333
GlyphClass: 2
Flags: W
LayerCount: 3
Back
Fore
SplineSet
284 312 m 1,0,-1
 284 240 l 1,1,-1
 46 240 l 1,2,-1
 46 312 l 1,3,-1
 284 312 l 1,0,-1
EndSplineSet
Validated: 1
Layer: 2
EndChar

StartChar: period
Encoding: 46 46 17
Width: 278
GlyphClass: 2
Flags: W
LayerCount: 3
Back
Fore
SplineSet
191 104 m 1,0,-1
 191 0 l 1,1,-1
 87 0 l 1,2,-1
 87 104 l 1,3,-1
 191 104 l 1,0,-1
EndSplineSet
Validated: 1
Layer: 2
EndChar

StartChar: slash
Encoding: 47 47 18
Width: 278
GlyphClass: 2
Flags: W
LayerCount: 3
Back
Fore
SplineSet
229 729 m 1,0,-1
 284 729 l 1,1,-1
 47 -20 l 1,2,-1
 -8 -20 l 1,3,-1
 229 729 l 1,0,-1
EndSplineSet
Validated: 1
Layer: 2
EndChar

StartChar: zero
Encoding: 48 48 19
Width: 556
GlyphClass: 2
Flags: W
LayerCount: 3
Back
Fore
SplineSet
43 343 m 0,0,1
 43 432 43 432 58 500 c 128,-1,2
 73 568 73 568 96 606.5 c 128,-1,3
 119 645 119 645 151 669 c 128,-1,4
 183 693 183 693 212.5 701 c 128,-1,5
 242 709 242 709 275 709 c 0,6,7
 507 709 507 709 507 337 c 0,8,9
 507 162 507 162 447.5 69.5 c 128,-1,10
 388 -23 388 -23 275 -23 c 0,11,12
 161 -23 161 -23 102 70.5 c 128,-1,13
 43 164 43 164 43 343 c 0,0,1
133 342 m 0,14,15
 133 50 133 50 273 50 c 0,16,17
 347 50 347 50 382 122 c 128,-1,18
 417 194 417 194 417 345 c 0,19,20
 417 631 417 631 275 631 c 128,-1,21
 133 631 133 631 133 342 c 0,14,15
EndSplineSet
Validated: 1
Layer: 2
EndChar

StartChar: one
Encoding: 49 49 20
Width: 386
GlyphClass: 2
Flags: WO
LayerCount: 3
Back
Fore
SplineSet
236 0 m 1,0,-1
 148 0 l 1,1,-1
 148 687 l 1,2,-1
 236 687 l 1,3,-1
 236 0 l 1,0,-1
EndSplineSet
Validated: 1
Layer: 2
EndChar

StartChar: two
Encoding: 50 50 21
Width: 556
GlyphClass: 2
Flags: W
LayerCount: 3
Back
Fore
SplineSet
50 463 m 1,0,1
 57 709 57 709 284 709 c 0,2,3
 385 709 385 709 448 651 c 128,-1,4
 511 593 511 593 511 501 c 0,5,6
 511 369 511 369 361 287 c 2,7,-1
 261 233 l 2,8,9
 196 198 196 198 168 165 c 128,-1,10
 140 132 140 132 133 87 c 1,11,-1
 506 87 l 1,12,-1
 506 0 l 1,13,-1
 34 0 l 1,14,15
 40 117 40 117 81 180.5 c 128,-1,16
 122 244 122 244 233 307 c 2,17,-1
 325 359 l 2,18,19
 421 414 421 414 421 499 c 0,20,21
 421 556 421 556 381 594 c 128,-1,22
 341 632 341 632 281 632 c 0,23,24
 148 632 148 632 138 463 c 1,25,-1
 50 463 l 1,0,1
EndSplineSet
Validated: 1
Layer: 2
EndChar

StartChar: three
Encoding: 51 51 22
Width: 556
GlyphClass: 2
Flags: W
LayerCount: 3
Back
Fore
SplineSet
270 632 m 0,0,1
 194 632 194 632 165.5 590.5 c 128,-1,2
 137 549 137 549 135 480 c 1,3,-1
 47 480 l 1,4,5
 52 709 52 709 269 709 c 0,6,7
 370 709 370 709 427.5 657 c 128,-1,8
 485 605 485 605 485 514 c 0,9,10
 485 406 485 406 386 367 c 1,11,12
 450 345 450 345 478 305.5 c 128,-1,13
 506 266 506 266 506 198 c 0,14,15
 506 97 506 97 440.5 37 c 128,-1,16
 375 -23 375 -23 266 -23 c 0,17,18
 48 -23 48 -23 32 206 c 1,19,-1
 120 206 l 1,20,21
 125 129 125 129 161 92 c 128,-1,22
 197 55 197 55 269 55 c 0,23,24
 338 55 338 55 377 92.5 c 128,-1,25
 416 130 416 130 416 197 c 0,26,27
 416 326 416 326 269 326 c 2,28,-1
 232 325 l 1,29,-1
 221 325 l 1,30,-1
 221 400 l 1,31,32
 316 402 316 402 355.5 424 c 128,-1,33
 395 446 395 446 395 511 c 0,34,35
 395 567 395 567 361.5 599.5 c 128,-1,36
 328 632 328 632 270 632 c 0,0,1
EndSplineSet
Validated: 1
Layer: 2
EndChar

StartChar: four
Encoding: 52 52 23
Width: 554
GlyphClass: 2
Flags: MW
LayerCount: 3
Back
Fore
SplineSet
355 709 m 1,0,-1
 443 709 l 1,1,-1
 443 338.333007812 l 5,2,-1
 518 338.333007812 l 5,3,-1
 518 259.333007812 l 5,4,-1
 443 259.333007812 l 5,5,-1
 443 0 l 1,6,-1
 355 0 l 1,7,-1
 355 259.333007812 l 5,8,-1
 46 259.333007812 l 5,9,-1
 46 709 l 1,10,-1
 134 709 l 1,11,-1
 134 338.333007812 l 5,12,-1
 355 338.333007812 l 5,13,-1
 355 709 l 1,0,-1
EndSplineSet
Validated: 1
Layer: 2
EndChar

StartChar: five
Encoding: 53 53 24
Width: 556
GlyphClass: 2
Flags: W
LayerCount: 3
Back
Fore
SplineSet
476 709 m 1,0,-1
 476 622 l 1,1,-1
 181 622 l 1,2,-1
 153 424 l 1,3,4
 212 467 212 467 284 467 c 0,5,6
 386 467 386 467 449.5 401.5 c 128,-1,7
 513 336 513 336 513 231 c 0,8,9
 513 119 513 119 445 48 c 128,-1,10
 377 -23 377 -23 270 -23 c 0,11,12
 229 -23 229 -23 194.5 -14 c 128,-1,13
 160 -5 160 -5 137.5 7.5 c 128,-1,14
 115 20 115 20 96.5 40.5 c 128,-1,15
 78 61 78 61 68.5 76.5 c 128,-1,16
 59 92 59 92 50.5 115.5 c 128,-1,17
 42 139 42 139 40 148 c 128,-1,18
 38 157 38 157 35 174 c 1,19,-1
 123 174 l 1,20,21
 154 55 154 55 268 55 c 0,22,23
 340 55 340 55 381.5 99 c 128,-1,24
 423 143 423 143 423 219 c 0,25,26
 423 298 423 298 381 343.5 c 128,-1,27
 339 389 339 389 268 389 c 0,28,29
 227 389 227 389 198 374.5 c 128,-1,30
 169 360 169 360 138 323 c 1,31,-1
 57 323 l 1,32,-1
 110 709 l 1,33,-1
 476 709 l 1,0,-1
EndSplineSet
Validated: 1
Layer: 2
EndChar

StartChar: six
Encoding: 54 54 25
Width: 556
GlyphClass: 2
Flags: W
LayerCount: 3
Back
Fore
SplineSet
43 323 m 0,0,1
 43 417 43 417 60 488.5 c 128,-1,2
 77 560 77 560 102.5 601 c 128,-1,3
 128 642 128 642 163.5 667.5 c 128,-1,4
 199 693 199 693 230.5 701 c 128,-1,5
 262 709 262 709 297 709 c 0,6,7
 378 709 378 709 431.5 660 c 128,-1,8
 485 611 485 611 498 524 c 1,9,-1
 410 524 l 1,10,11
 399 575 399 575 368 603 c 128,-1,12
 337 631 337 631 291 631 c 0,13,14
 215 631 215 631 174.5 561.5 c 128,-1,15
 134 492 134 492 133 362 c 1,16,17
 191 441 191 441 296 441 c 0,18,19
 391 441 391 441 452 378 c 128,-1,20
 513 315 513 315 513 216 c 0,21,22
 513 112 513 112 447.5 44.5 c 128,-1,23
 382 -23 382 -23 281 -23 c 0,24,25
 43 -23 43 -23 43 323 c 0,0,1
285 363 m 0,26,27
 220 363 220 363 179 321.5 c 128,-1,28
 138 280 138 280 138 214 c 0,29,30
 138 146 138 146 179 100.5 c 128,-1,31
 220 55 220 55 282 55 c 0,32,33
 343 55 343 55 383 98.5 c 128,-1,34
 423 142 423 142 423 209 c 0,35,36
 423 280 423 280 386 321.5 c 128,-1,37
 349 363 349 363 285 363 c 0,26,27
EndSplineSet
Validated: 1
Layer: 2
EndChar

StartChar: seven
Encoding: 55 55 26
Width: 556
GlyphClass: 2
Flags: W
LayerCount: 3
Back
Fore
SplineSet
520 709 m 1,0,-1
 520 635 l 1,1,2
 400 475 400 475 330.5 322.5 c 128,-1,3
 261 170 261 170 232 0 c 1,4,-1
 138 0 l 1,5,6
 178 175 178 175 240 308 c 128,-1,7
 302 441 302 441 429 622 c 1,8,-1
 46 622 l 1,9,-1
 46 709 l 1,10,-1
 520 709 l 1,0,-1
EndSplineSet
Validated: 1
Layer: 2
EndChar

StartChar: eight
Encoding: 56 56 27
Width: 556
GlyphClass: 2
Flags: W
LayerCount: 3
Back
Fore
SplineSet
391 373 m 1,0,1
 513 315 513 315 513 196 c 0,2,3
 513 99 513 99 446.5 38 c 128,-1,4
 380 -23 380 -23 275 -23 c 128,-1,5
 170 -23 170 -23 103.5 38.5 c 128,-1,6
 37 100 37 100 37 197 c 0,7,8
 37 315 37 315 158 373 c 1,9,10
 104 407 104 407 83 439 c 128,-1,11
 62 471 62 471 62 520 c 0,12,13
 62 603 62 603 121.5 656 c 128,-1,14
 181 709 181 709 275 709 c 128,-1,15
 369 709 369 709 428.5 656 c 128,-1,16
 488 603 488 603 488 520 c 0,17,18
 488 470 488 470 467 438 c 128,-1,19
 446 406 446 406 391 373 c 1,0,1
152 519 m 0,20,21
 152 469 152 469 185.5 438.5 c 128,-1,22
 219 408 219 408 275 408 c 0,23,24
 330 408 330 408 364 438 c 128,-1,25
 398 468 398 468 398 518 c 0,26,27
 398 570 398 570 364.5 600.5 c 128,-1,28
 331 631 331 631 275 631 c 128,-1,29
 219 631 219 631 185.5 600.5 c 128,-1,30
 152 570 152 570 152 519 c 0,20,21
273 55 m 0,31,32
 340 55 340 55 381.5 93.5 c 128,-1,33
 423 132 423 132 423 195 c 0,34,35
 423 257 423 257 382 295.5 c 128,-1,36
 341 334 341 334 275 334 c 128,-1,37
 209 334 209 334 168 295.5 c 128,-1,38
 127 257 127 257 127 195 c 128,-1,39
 127 133 127 133 167.5 94 c 128,-1,40
 208 55 208 55 273 55 c 0,31,32
EndSplineSet
Validated: 1
Layer: 2
EndChar

StartChar: nine
Encoding: 57 57 28
Width: 556
GlyphClass: 2
Flags: W
LayerCount: 3
Back
Fore
SplineSet
509 363 m 0,0,1
 509 269 509 269 492 197.5 c 128,-1,2
 475 126 475 126 449.5 85 c 128,-1,3
 424 44 424 44 388.5 18.5 c 128,-1,4
 353 -7 353 -7 321 -15 c 128,-1,5
 289 -23 289 -23 254 -23 c 0,6,7
 173 -23 173 -23 119.5 26 c 128,-1,8
 66 75 66 75 53 162 c 1,9,-1
 141 162 l 1,10,11
 152 111 152 111 183 83 c 128,-1,12
 214 55 214 55 260 55 c 0,13,14
 336 55 336 55 376.5 124.5 c 128,-1,15
 417 194 417 194 418 324 c 1,16,17
 352 245 352 245 256 245 c 128,-1,18
 160 245 160 245 99 308 c 128,-1,19
 38 371 38 371 38 470 c 0,20,21
 38 574 38 574 103.5 641.5 c 128,-1,22
 169 709 169 709 270 709 c 0,23,24
 509 709 509 709 509 363 c 0,0,1
269 632 m 0,25,26
 208 632 208 632 168 588 c 128,-1,27
 128 544 128 544 128 477 c 0,28,29
 128 406 128 406 165 364.5 c 128,-1,30
 202 323 202 323 266 323 c 128,-1,31
 330 323 330 323 371.5 365 c 128,-1,32
 413 407 413 407 413 472 c 0,33,34
 413 541 413 541 372 586.5 c 128,-1,35
 331 632 331 632 269 632 c 0,25,26
EndSplineSet
Validated: 1
Layer: 2
EndChar

StartChar: colon
Encoding: 58 58 29
Width: 278
GlyphClass: 2
Flags: W
LayerCount: 3
Back
Fore
SplineSet
214 104 m 1,0,-1
 214 0 l 1,1,-1
 110 0 l 1,2,-1
 110 104 l 1,3,-1
 214 104 l 1,0,-1
214 524 m 1,4,-1
 214 420 l 1,5,-1
 110 420 l 1,6,-1
 110 524 l 1,7,-1
 214 524 l 1,4,-1
EndSplineSet
Validated: 1
Layer: 2
EndChar

StartChar: semicolon
Encoding: 59 59 30
Width: 278
GlyphClass: 2
Flags: W
LayerCount: 3
Back
Fore
SplineSet
215 524 m 1,0,-1
 215 420 l 1,1,-1
 111 420 l 1,2,-1
 111 524 l 1,3,-1
 215 524 l 1,0,-1
110 104 m 1,4,-1
 215 104 l 1,5,-1
 215 -16 l 2,6,7
 215 -147 215 -147 110 -147 c 1,8,-1
 110 -109 l 1,9,10
 145 -108 145 -108 157.5 -89 c 128,-1,11
 170 -70 170 -70 170 -18 c 2,12,-1
 170 0 l 1,13,-1
 110 0 l 1,14,-1
 110 104 l 1,4,-1
EndSplineSet
Validated: 1
Layer: 2
EndChar

StartChar: less
Encoding: 60 60 31
Width: 584
GlyphClass: 2
Flags: W
LayerCount: 3
Back
Fore
SplineSet
45 198 m 1,0,-1
 45 267 l 1,1,-1
 534 474 l 1,2,-1
 534 395 l 1,3,-1
 140 234 l 1,4,-1
 534 70 l 1,5,-1
 534 -9 l 1,6,-1
 45 198 l 1,0,-1
EndSplineSet
Validated: 1
Layer: 2
EndChar

StartChar: equal
Encoding: 61 61 32
Width: 584
GlyphClass: 2
Flags: W
LayerCount: 3
Back
Fore
SplineSet
534 353 m 1,0,-1
 534 283 l 1,1,-1
 50 283 l 1,2,-1
 50 353 l 1,3,-1
 534 353 l 1,0,-1
534 181 m 1,4,-1
 534 111 l 1,5,-1
 50 111 l 1,6,-1
 50 181 l 1,7,-1
 534 181 l 1,4,-1
EndSplineSet
Validated: 1
Layer: 2
EndChar

StartChar: greater
Encoding: 62 62 33
Width: 584
GlyphClass: 2
Flags: W
LayerCount: 3
Back
Fore
SplineSet
539 267 m 1,0,-1
 539 198 l 1,1,-1
 50 -9 l 1,2,-1
 50 70 l 1,3,-1
 444 231 l 1,4,-1
 50 395 l 1,5,-1
 50 474 l 1,6,-1
 539 267 l 1,0,-1
EndSplineSet
Validated: 1
Layer: 2
EndChar

StartChar: question
Encoding: 63 63 34
Width: 556
GlyphClass: 2
Flags: W
LayerCount: 3
Back
Fore
SplineSet
509 549 m 0,0,1
 509 503 509 503 490.5 466 c 128,-1,2
 472 429 472 429 446 404.5 c 128,-1,3
 420 380 420 380 393.5 357.5 c 128,-1,4
 367 335 367 335 348.5 306.5 c 128,-1,5
 330 278 330 278 330 246 c 2,6,-1
 330 199 l 1,7,-1
 240 199 l 1,8,-1
 240 254 l 2,9,10
 240 291 240 291 258.5 324 c 128,-1,11
 277 357 277 357 303.5 381 c 128,-1,12
 330 405 330 405 356 429 c 128,-1,13
 382 453 382 453 400.5 483.5 c 128,-1,14
 419 514 419 514 419 549 c 0,15,16
 419 600 419 600 384 631.5 c 128,-1,17
 349 663 349 663 291 663 c 0,18,19
 218 663 218 663 190 622 c 128,-1,20
 162 581 162 581 162 507 c 1,21,-1
 77 507 l 1,22,23
 77 622 77 622 132.5 681.5 c 128,-1,24
 188 741 188 741 296 741 c 0,25,26
 393 741 393 741 451 689 c 128,-1,27
 509 637 509 637 509 549 c 0,0,1
330 104 m 1,28,-1
 330 0 l 1,29,-1
 240 0 l 1,30,-1
 240 104 l 1,31,-1
 330 104 l 1,28,-1
EndSplineSet
Validated: 1
Layer: 2
EndChar

StartChar: at
Encoding: 64 64 35
Width: 1015
GlyphClass: 2
Flags: W
LayerCount: 3
Back
Fore
SplineSet
665 501 m 1,0,-1
 748 501 l 1,1,-1
 658 221 l 2,2,3
 646 186 646 186 646 171 c 0,4,5
 646 153 646 153 661 140 c 128,-1,6
 676 127 676 127 696 127 c 0,7,8
 760 127 760 127 812 198 c 128,-1,9
 864 269 864 269 864 357 c 0,10,11
 864 482 864 482 759.5 573 c 128,-1,12
 655 664 655 664 512 664 c 0,13,14
 354 664 354 664 236.5 547 c 128,-1,15
 119 430 119 430 119 273 c 0,16,17
 119 130 119 130 227 32.5 c 128,-1,18
 335 -65 335 -65 494 -65 c 0,19,20
 573 -65 573 -65 687 -33 c 1,21,-1
 715 -100 l 1,22,23
 603 -142 603 -142 489 -142 c 0,24,25
 365 -142 365 -142 260 -88.5 c 128,-1,26
 155 -35 155 -35 94.5 57 c 128,-1,27
 34 149 34 149 34 258 c 0,28,29
 34 356 34 356 76 450.5 c 128,-1,30
 118 545 118 545 192 612 c 0,31,32
 258 672 258 672 347 706.5 c 128,-1,33
 436 741 436 741 525 741 c 0,34,35
 700 741 700 741 825.5 631 c 128,-1,36
 951 521 951 521 951 369 c 0,37,38
 951 246 951 246 865 146 c 0,39,40
 789 57 789 57 679 57 c 0,41,42
 583 57 583 57 569 134 c 1,43,44
 503 62 503 62 427 62 c 0,45,46
 357 62 357 62 310.5 114.5 c 128,-1,47
 264 167 264 167 264 245 c 0,48,49
 264 354 264 354 342 438 c 128,-1,50
 420 522 420 522 521 522 c 0,51,52
 605 522 605 522 643 435 c 1,53,-1
 665 501 l 1,0,-1
453 126 m 0,54,55
 518 126 518 126 563.5 209 c 128,-1,56
 609 292 609 292 609 368 c 0,57,58
 609 406 609 406 582 432 c 128,-1,59
 555 458 555 458 515 458 c 0,60,61
 452 458 452 458 403 393 c 128,-1,62
 354 328 354 328 354 244 c 0,63,64
 354 195 354 195 383 160.5 c 128,-1,65
 412 126 412 126 453 126 c 0,54,55
EndSplineSet
Validated: 1
Layer: 2
EndChar

StartChar: B
Encoding: 66 66 36
Width: 667
GlyphClass: 2
Flags: W
LayerCount: 3
Back
Fore
SplineSet
623 208 m 0,0,1
 623 114 623 114 564 57 c 128,-1,2
 505 0 505 0 408 0 c 2,3,-1
 79 0 l 1,4,-1
 79 729 l 1,5,-1
 375 729 l 2,6,7
 436 729 436 729 481 711 c 128,-1,8
 526 693 526 693 548.5 663.5 c 128,-1,9
 571 634 571 634 581 604.5 c 128,-1,10
 591 575 591 575 591 544 c 0,11,12
 591 432 591 432 490 385 c 1,13,14
 560 358 560 358 591.5 316 c 128,-1,15
 623 274 623 274 623 208 c 0,0,1
352 647 m 2,16,-1
 172 647 l 1,17,-1
 172 415 l 1,18,-1
 352 415 l 2,19,20
 498 415 498 415 498 531 c 128,-1,21
 498 647 498 647 352 647 c 2,16,-1
399 82 m 2,22,23
 448 82 448 82 479 103.5 c 128,-1,24
 510 125 510 125 520 151 c 128,-1,25
 530 177 530 177 530 207 c 0,26,27
 530 264 530 264 496 298.5 c 128,-1,28
 462 333 462 333 399 333 c 2,29,-1
 172 333 l 1,30,-1
 172 82 l 1,31,-1
 399 82 l 2,22,23
EndSplineSet
Validated: 1
Layer: 2
EndChar

StartChar: C
Encoding: 67 67 37
Width: 722
GlyphClass: 2
Flags: W
LayerCount: 3
Back
Fore
SplineSet
48 356 m 0,0,1
 48 406 48 406 56.5 455 c 128,-1,2
 65 504 65 504 89 557 c 128,-1,3
 113 610 113 610 148.5 649.5 c 128,-1,4
 184 689 184 689 244.5 715 c 128,-1,5
 305 741 305 741 381 741 c 0,6,7
 619 741 619 741 662 503 c 1,8,-1
 567 503 l 1,9,10
 551 581 551 581 504 620 c 128,-1,11
 457 659 457 659 370 659 c 0,12,13
 264 659 264 659 202.5 578 c 128,-1,14
 141 497 141 497 141 357 c 0,15,16
 141 220 141 220 205 139.5 c 128,-1,17
 269 59 269 59 378 59 c 0,18,19
 468 59 468 59 516 109.5 c 128,-1,20
 564 160 564 160 581 266 c 1,21,-1
 677 266 l 1,22,23
 644 -23 644 -23 377 -23 c 0,24,25
 302 -23 302 -23 242.5 2.5 c 128,-1,26
 183 28 183 28 147.5 67 c 128,-1,27
 112 106 112 106 88.5 158.5 c 128,-1,28
 65 211 65 211 56.5 259 c 128,-1,29
 48 307 48 307 48 356 c 0,0,1
EndSplineSet
Validated: 1
Layer: 2
EndChar

StartChar: D
Encoding: 68 68 38
Width: 722
GlyphClass: 2
Flags: W
LayerCount: 3
Back
Fore
SplineSet
89 0 m 1,0,-1
 89 729 l 1,1,-1
 370 729 l 2,2,3
 509 729 509 729 588 632 c 128,-1,4
 667 535 667 535 667 365 c 128,-1,5
 667 195 667 195 587.5 97.5 c 128,-1,6
 508 0 508 0 370 0 c 2,7,-1
 89 0 l 1,0,-1
182 82 m 1,8,-1
 354 82 l 2,9,10
 462 82 462 82 518 154 c 128,-1,11
 574 226 574 226 574 364 c 0,12,13
 574 503 574 503 518 575 c 128,-1,14
 462 647 462 647 354 647 c 2,15,-1
 182 647 l 1,16,-1
 182 82 l 1,8,-1
EndSplineSet
Validated: 1
Layer: 2
EndChar

StartChar: E
Encoding: 69 69 39
Width: 667
GlyphClass: 2
Flags: W
LayerCount: 3
Back
Fore
SplineSet
183 332 m 1,0,-1
 183 82 l 1,1,-1
 613 82 l 1,2,-1
 613 0 l 1,3,-1
 90 0 l 1,4,-1
 90 729 l 1,5,-1
 595 729 l 1,6,-1
 595 647 l 1,7,-1
 183 647 l 1,8,-1
 183 414 l 1,9,-1
 580 414 l 1,10,-1
 580 332 l 1,11,-1
 183 332 l 1,0,-1
EndSplineSet
Validated: 1
Layer: 2
EndChar

StartChar: F
Encoding: 70 70 40
Width: 611
GlyphClass: 2
Flags: W
LayerCount: 3
Back
Fore
SplineSet
183 332 m 1,0,-1
 183 0 l 1,1,-1
 90 0 l 1,2,-1
 90 729 l 1,3,-1
 579 729 l 1,4,-1
 579 647 l 1,5,-1
 183 647 l 1,6,-1
 183 414 l 1,7,-1
 531 414 l 1,8,-1
 531 332 l 1,9,-1
 183 332 l 1,0,-1
EndSplineSet
Validated: 1
Layer: 2
EndChar

StartChar: G
Encoding: 71 71 41
Width: 778
GlyphClass: 2
Flags: W
LayerCount: 3
Back
Fore
SplineSet
137 362 m 0,0,1
 137 324 137 324 144 285.5 c 128,-1,2
 151 247 151 247 169 205 c 128,-1,3
 187 163 187 163 215.5 131.5 c 128,-1,4
 244 100 244 100 291 79.5 c 128,-1,5
 338 59 338 59 398 59 c 0,6,7
 498 59 498 59 562.5 122 c 128,-1,8
 627 185 627 185 627 283 c 2,9,-1
 627 303 l 1,10,-1
 405 303 l 1,11,-1
 405 385 l 1,12,-1
 709 385 l 1,13,-1
 709 -4 l 1,14,-1
 650 -4 l 1,15,-1
 627 93 l 1,16,17
 523 -23 523 -23 378 -23 c 0,18,19
 230 -23 230 -23 137 83 c 128,-1,20
 44 189 44 189 44 357 c 0,21,22
 44 405 44 405 53 453.5 c 128,-1,23
 62 502 62 502 87 555 c 128,-1,24
 112 608 112 608 149.5 648 c 128,-1,25
 187 688 187 688 250.5 714.5 c 128,-1,26
 314 741 314 741 394 741 c 0,27,28
 519 741 519 741 599.5 680 c 128,-1,29
 680 619 680 619 699 508 c 1,30,-1
 604 508 l 1,31,32
 589 578 589 578 532.5 618.5 c 128,-1,33
 476 659 476 659 393 659 c 0,34,35
 277 659 277 659 207 577.5 c 128,-1,36
 137 496 137 496 137 362 c 0,0,1
EndSplineSet
Validated: 1
Layer: 2
EndChar

StartChar: H
Encoding: 72 72 42
Width: 722
GlyphClass: 2
Flags: W
LayerCount: 3
Back
Fore
SplineSet
551 332 m 1,0,-1
 176 332 l 1,1,-1
 176 0 l 1,2,-1
 83 0 l 1,3,-1
 83 729 l 1,4,-1
 176 729 l 1,5,-1
 176 414 l 1,6,-1
 551 414 l 1,7,-1
 551 729 l 1,8,-1
 644 729 l 1,9,-1
 644 0 l 1,10,-1
 551 0 l 1,11,-1
 551 332 l 1,0,-1
EndSplineSet
Validated: 1
Layer: 2
EndChar

StartChar: I
Encoding: 73 73 43
Width: 278
GlyphClass: 2
Flags: W
LayerCount: 3
Back
Fore
SplineSet
191 647 m 1,0,-1
 191 82 l 1,1,-1
 254 82 l 1,2,-1
 254 0 l 1,3,-1
 40 0 l 1,4,-1
 40 82 l 1,5,-1
 103 82 l 1,6,-1
 103 647 l 1,7,-1
 40 647 l 1,8,-1
 40 729 l 1,9,-1
 254 729 l 1,10,-1
 254 647 l 1,11,-1
 191 647 l 1,0,-1
EndSplineSet
Validated: 1
Layer: 2
EndChar

StartChar: J
Encoding: 74 74 44
Width: 500
GlyphClass: 2
Flags: W
LayerCount: 3
Back
Fore
SplineSet
221 55 m 0,0,1
 285 55 285 55 309 97 c 128,-1,2
 333 139 333 139 333 216 c 2,3,-1
 333 647 l 1,4,-1
 269 647 l 1,5,-1
 269 729 l 1,6,-1
 490 729 l 1,7,-1
 490 647 l 1,8,-1
 426 647 l 1,9,-1
 426 182 l 2,10,11
 426 87 426 87 370.5 32 c 128,-1,12
 315 -23 315 -23 220 -23 c 0,13,14
 126 -23 126 -23 71.5 29 c 128,-1,15
 17 81 17 81 17 170 c 2,16,-1
 17 234 l 1,17,-1
 112 234 l 1,18,-1
 112 187 l 2,19,20
 112 123 112 123 140 89 c 128,-1,21
 168 55 168 55 221 55 c 0,0,1
EndSplineSet
Validated: 1
Layer: 2
EndChar

StartChar: K
Encoding: 75 75 45
Width: 667
GlyphClass: 2
Flags: W
LayerCount: 3
Back
Fore
SplineSet
172 255 m 1,0,-1
 172 0 l 1,1,-1
 79 0 l 1,2,-1
 79 729 l 1,3,-1
 172 729 l 1,4,-1
 172 360 l 1,5,-1
 535 729 l 1,6,-1
 655 729 l 1,7,-1
 358 432 l 1,8,-1
 658 0 l 1,9,-1
 548 0 l 1,10,-1
 291 374 l 1,11,-1
 172 255 l 1,0,-1
EndSplineSet
Validated: 1
Layer: 2
EndChar

StartChar: L
Encoding: 76 76 46
Width: 556
GlyphClass: 2
Flags: W
LayerCount: 3
Back
Fore
SplineSet
173 729 m 1,0,-1
 173 82 l 1,1,-1
 533 82 l 1,2,-1
 533 0 l 1,3,-1
 80 0 l 1,4,-1
 80 729 l 1,5,-1
 173 729 l 1,0,-1
EndSplineSet
Validated: 1
Layer: 2
EndChar

StartChar: M
Encoding: 77 77 47
Width: 833
GlyphClass: 2
Flags: W
LayerCount: 3
Back
Fore
SplineSet
468 0 m 1,0,-1
 370 0 l 1,1,-1
 163 611 l 1,2,-1
 163 0 l 1,3,-1
 75 0 l 1,4,-1
 75 729 l 1,5,-1
 204 729 l 1,6,-1
 420 94 l 1,7,-1
 632 729 l 1,8,-1
 761 729 l 1,9,-1
 761 0 l 1,10,-1
 673 0 l 1,11,-1
 673 611 l 1,12,-1
 468 0 l 1,0,-1
EndSplineSet
Validated: 1
Layer: 2
EndChar

StartChar: N
Encoding: 78 78 48
Width: 722
GlyphClass: 2
Flags: W
LayerCount: 3
Back
Fore
SplineSet
646 729 m 1,0,-1
 646 0 l 1,1,-1
 541 0 l 1,2,-1
 164 591 l 1,3,-1
 164 0 l 1,4,-1
 76 0 l 1,5,-1
 76 729 l 1,6,-1
 177 729 l 1,7,-1
 558 133 l 1,8,-1
 558 729 l 1,9,-1
 646 729 l 1,0,-1
EndSplineSet
Validated: 1
Layer: 2
EndChar

StartChar: O
Encoding: 79 79 49
Width: 778
GlyphClass: 2
Flags: W
LayerCount: 3
Back
Fore
SplineSet
742 353 m 0,0,1
 742 191 742 191 646 84 c 128,-1,2
 550 -23 550 -23 390 -23 c 0,3,4
 232 -23 232 -23 135 82.5 c 128,-1,5
 38 188 38 188 38 359 c 128,-1,6
 38 530 38 530 135 635.5 c 128,-1,7
 232 741 232 741 389 741 c 0,8,9
 549 741 549 741 645.5 635 c 128,-1,10
 742 529 742 529 742 353 c 0,0,1
389 659 m 0,11,12
 273 659 273 659 202 576.5 c 128,-1,13
 131 494 131 494 131 359 c 128,-1,14
 131 224 131 224 202.5 141.5 c 128,-1,15
 274 59 274 59 390 59 c 128,-1,16
 506 59 506 59 577.5 141 c 128,-1,17
 649 223 649 223 649 355 c 0,18,19
 649 493 649 493 578 576 c 128,-1,20
 507 659 507 659 389 659 c 0,11,12
EndSplineSet
Validated: 1
Layer: 2
EndChar

StartChar: P
Encoding: 80 80 50
Width: 667
GlyphClass: 2
Flags: W
LayerCount: 3
Back
Fore
SplineSet
617 515 m 0,0,1
 617 422 617 422 560.5 365.5 c 128,-1,2
 504 309 504 309 413 309 c 2,3,-1
 184 309 l 1,4,-1
 184 0 l 1,5,-1
 91 0 l 1,6,-1
 91 729 l 1,7,-1
 392 729 l 2,8,9
 500 729 500 729 558.5 673.5 c 128,-1,10
 617 618 617 618 617 515 c 0,0,1
184 391 m 1,11,-1
 378 391 l 2,12,13
 445 391 445 391 482.5 425 c 128,-1,14
 520 459 520 459 520 519 c 128,-1,15
 520 579 520 579 482.5 613 c 128,-1,16
 445 647 445 647 378 647 c 2,17,-1
 184 647 l 1,18,-1
 184 391 l 1,11,-1
EndSplineSet
Validated: 1
Layer: 2
EndChar

StartChar: Q
Encoding: 81 81 51
Width: 778
GlyphClass: 2
Flags: W
LayerCount: 3
Back
Fore
SplineSet
733 -1 m 1,0,-1
 686 -59 l 1,1,-1
 581 28 l 1,2,3
 495 -23 495 -23 390 -23 c 0,4,5
 232 -23 232 -23 135 82.5 c 128,-1,6
 38 188 38 188 38 359 c 128,-1,7
 38 530 38 530 135 635.5 c 128,-1,8
 232 741 232 741 390 741 c 0,9,10
 547 741 547 741 644.5 636 c 128,-1,11
 742 531 742 531 742 361 c 0,12,13
 742 189 742 189 639 76 c 1,14,-1
 733 -1 l 1,0,-1
481 205 m 1,15,-1
 570 132 l 1,16,17
 649 221 649 221 649 360 c 0,18,19
 649 494 649 494 577.5 576.5 c 128,-1,20
 506 659 506 659 390 659 c 128,-1,21
 274 659 274 659 202.5 576.5 c 128,-1,22
 131 494 131 494 131 359 c 128,-1,23
 131 224 131 224 202 141.5 c 128,-1,24
 273 59 273 59 389 59 c 0,25,26
 449 59 449 59 509 87 c 1,27,-1
 435 149 l 1,28,-1
 481 205 l 1,15,-1
EndSplineSet
Validated: 1
Layer: 2
EndChar

StartChar: R
Encoding: 82 82 52
Width: 722
GlyphClass: 2
Flags: W
LayerCount: 3
Back
Fore
SplineSet
554 521 m 0,0,1
 554 593 554 593 516 620 c 128,-1,2
 478 647 478 647 411 647 c 2,3,-1
 186 647 l 1,4,-1
 186 396 l 1,5,-1
 411 396 l 2,6,7
 485 396 485 396 519.5 426 c 128,-1,8
 554 456 554 456 554 521 c 0,0,1
464 316 m 1,9,10
 464 316 464 316 679 0 c 1,11,-1
 564 0 l 1,12,-1
 358 314 l 1,13,-1
 186 314 l 1,14,-1
 186 0 l 1,15,-1
 93 0 l 1,16,-1
 93 729 l 1,17,-1
 429 729 l 2,18,19
 536 729 536 729 593.5 678.5 c 128,-1,20
 651 628 651 628 651 534 c 2,21,-1
 652 510 l 2,22,23
 652 416 652 416 594 365 c 0,24,25
 546 323 546 323 464 316 c 1,9,10
EndSplineSet
Validated: 1
Layer: 2
EndChar

StartChar: S
Encoding: 83 83 53
Width: 667
GlyphClass: 2
Flags: W
LayerCount: 3
Back
Fore
SplineSet
342 59 m 0,0,1
 398 59 398 59 437 72 c 128,-1,2
 476 85 476 85 494.5 106 c 128,-1,3
 513 127 513 127 520.5 147.5 c 128,-1,4
 528 168 528 168 528 191 c 0,5,6
 528 274 528 274 394 309 c 2,7,-1
 213 357 l 2,8,9
 70 394 70 394 70 527 c 0,10,11
 70 626 70 626 139.5 683.5 c 128,-1,12
 209 741 209 741 329 741 c 0,13,14
 455 741 455 741 525 681.5 c 128,-1,15
 595 622 595 622 596 515 c 1,16,-1
 508 515 l 1,17,18
 507 586 507 586 460 624.5 c 128,-1,19
 413 663 413 663 326 663 c 0,20,21
 252 663 252 663 207.5 629 c 128,-1,22
 163 595 163 595 163 540 c 0,23,24
 163 498 163 498 190 474 c 128,-1,25
 217 450 217 450 283 432 c 2,26,-1
 466 383 l 2,27,28
 540 363 540 363 580.5 315 c 128,-1,29
 621 267 621 267 621 200 c 0,30,31
 621 171 621 171 613.5 142.5 c 128,-1,32
 606 114 606 114 586 83.5 c 128,-1,33
 566 53 566 53 535 30 c 128,-1,34
 504 7 504 7 452.5 -8 c 128,-1,35
 401 -23 401 -23 336 -23 c 0,36,37
 295 -23 295 -23 257.5 -16.5 c 128,-1,38
 220 -10 220 -10 181 7.5 c 128,-1,39
 142 25 142 25 114 52.5 c 128,-1,40
 86 80 86 80 67.5 126 c 128,-1,41
 49 172 49 172 48 232 c 1,42,-1
 136 232 l 1,43,-1
 136 227 l 2,44,45
 136 196 136 196 145.5 169 c 128,-1,46
 155 142 155 142 176.5 116 c 128,-1,47
 198 90 198 90 240.5 74.5 c 128,-1,48
 283 59 283 59 342 59 c 0,0,1
EndSplineSet
Validated: 1
Layer: 2
EndChar

StartChar: T
Encoding: 84 84 54
Width: 611
GlyphClass: 2
Flags: W
LayerCount: 3
Back
Fore
SplineSet
354 647 m 1,0,-1
 354 0 l 1,1,-1
 261 0 l 1,2,-1
 261 647 l 1,3,-1
 21 647 l 1,4,-1
 21 729 l 1,5,-1
 593 729 l 1,6,-1
 593 647 l 1,7,-1
 354 647 l 1,0,-1
EndSplineSet
Validated: 1
Layer: 2
EndChar

StartChar: U
Encoding: 85 85 55
Width: 722
GlyphClass: 2
Flags: W
LayerCount: 3
Back
Fore
SplineSet
552 729 m 1,0,-1
 645 729 l 1,1,-1
 645 217 l 2,2,3
 645 107 645 107 568.5 42 c 128,-1,4
 492 -23 492 -23 364 -23 c 0,5,6
 234 -23 234 -23 159.5 41.5 c 128,-1,7
 85 106 85 106 85 217 c 2,8,-1
 85 729 l 1,9,-1
 178 729 l 1,10,-1
 178 217 l 2,11,12
 178 138 178 138 228.5 98.5 c 128,-1,13
 279 59 279 59 364 59 c 0,14,15
 452 59 452 59 502 101 c 128,-1,16
 552 143 552 143 552 217 c 2,17,-1
 552 729 l 1,0,-1
EndSplineSet
Validated: 1
Layer: 2
EndChar

StartChar: V
Encoding: 86 86 56
Width: 724
GlyphClass: 2
Flags: W
LayerCount: 3
Back
Fore
SplineSet
417 0 m 1,0,-1
 312 0 l 1,1,-1
 0 729 l 1,2,-1
 100 729 l 1,3,-1
 365 113 l 1,4,-1
 625 729 l 1,5,-1
 725 729 l 1,6,-1
 417 0 l 1,0,-1
EndSplineSet
Validated: 1
Layer: 2
EndChar

StartChar: W
Encoding: 87 87 57
Width: 944
GlyphClass: 2
Flags: W
LayerCount: 3
Back
Fore
SplineSet
744 0 m 1,0,-1
 642 0 l 1,1,-1
 474 599 l 1,2,-1
 311 0 l 1,3,-1
 209 0 l 1,4,-1
 22 729 l 1,5,-1
 126 729 l 1,6,-1
 263 137 l 1,7,-1
 425 729 l 1,8,-1
 525 729 l 1,9,-1
 691 137 l 1,10,-1
 825 729 l 1,11,-1
 929 729 l 1,12,-1
 744 0 l 1,0,-1
EndSplineSet
Validated: 1
Layer: 2
EndChar

StartChar: X
Encoding: 88 88 58
Width: 667
GlyphClass: 2
Flags: W
LayerCount: 3
Back
Fore
SplineSet
391 374 m 1,0,-1
 649 0 l 1,1,-1
 534 0 l 1,2,-1
 335 304 l 1,3,-1
 135 0 l 1,4,-1
 22 0 l 1,5,-1
 280 374 l 1,6,-1
 38 729 l 1,7,-1
 151 729 l 1,8,-1
 338 443 l 1,9,-1
 526 729 l 1,10,-1
 637 729 l 1,11,-1
 391 374 l 1,0,-1
EndSplineSet
Validated: 1
Layer: 2
EndChar

StartChar: Y
Encoding: 89 89 59
Width: 667
GlyphClass: 2
Flags: W
LayerCount: 3
Back
Fore
SplineSet
387 286 m 1,0,-1
 387 0 l 1,1,-1
 294 0 l 1,2,-1
 294 286 l 1,3,-1
 13 729 l 1,4,-1
 128 729 l 1,5,-1
 342 374 l 1,6,-1
 550 729 l 1,7,-1
 661 729 l 1,8,-1
 387 286 l 1,0,-1
EndSplineSet
Validated: 1
Layer: 2
EndChar

StartChar: Z
Encoding: 90 90 60
Width: 611
GlyphClass: 2
Flags: W
LayerCount: 3
Back
Fore
SplineSet
581 729 m 1,0,-1
 581 645 l 1,1,-1
 145 82 l 1,2,-1
 583 82 l 1,3,-1
 583 0 l 1,4,-1
 28 0 l 1,5,-1
 28 82 l 1,6,-1
 466 647 l 1,7,-1
 56 647 l 1,8,-1
 56 729 l 1,9,-1
 581 729 l 1,0,-1
EndSplineSet
Validated: 1
Layer: 2
EndChar

StartChar: bracketleft
Encoding: 91 91 61
Width: 278
GlyphClass: 2
Flags: W
LayerCount: 3
Back
Fore
SplineSet
250 729 m 1,0,-1
 250 657 l 1,1,-1
 147 657 l 1,2,-1
 147 -140 l 1,3,-1
 250 -140 l 1,4,-1
 250 -212 l 1,5,-1
 64 -212 l 1,6,-1
 64 729 l 1,7,-1
 250 729 l 1,0,-1
EndSplineSet
Validated: 1
Layer: 2
EndChar

StartChar: backslash
Encoding: 92 92 62
Width: 278
GlyphClass: 2
Flags: W
LayerCount: 3
Back
Fore
SplineSet
47 729 m 1,0,-1
 284 -20 l 1,1,-1
 229 -20 l 1,2,-1
 -8 729 l 1,3,-1
 47 729 l 1,0,-1
EndSplineSet
Validated: 1
Layer: 2
EndChar

StartChar: bracketright
Encoding: 93 93 63
Width: 278
GlyphClass: 2
Flags: W
LayerCount: 3
Back
Fore
SplineSet
23 -212 m 1,0,-1
 23 -140 l 1,1,-1
 126 -140 l 1,2,-1
 126 657 l 1,3,-1
 23 657 l 1,4,-1
 23 729 l 1,5,-1
 209 729 l 1,6,-1
 209 -212 l 1,7,-1
 23 -212 l 1,0,-1
EndSplineSet
Validated: 1
Layer: 2
EndChar

StartChar: asciicircum
Encoding: 94 94 64
Width: 469
GlyphClass: 2
Flags: W
LayerCount: 3
Back
Fore
SplineSet
197 709 m 1,0,-1
 270 709 l 1,1,-1
 425 329 l 1,2,-1
 356 329 l 1,3,-1
 234 629 l 1,4,-1
 113 329 l 1,5,-1
 44 329 l 1,6,-1
 197 709 l 1,0,-1
EndSplineSet
Validated: 1
Layer: 2
EndChar

StartChar: underscore
Encoding: 95 95 65
Width: 556
GlyphClass: 2
Flags: W
LayerCount: 3
Back
Fore
SplineSet
578 -126 m 1,0,-1
 578 -176 l 1,1,-1
 -22 -176 l 1,2,-1
 -22 -126 l 1,3,-1
 578 -126 l 1,0,-1
EndSplineSet
Validated: 1
Layer: 2
EndChar

StartChar: grave
Encoding: 96 96 66
Width: 333
GlyphClass: 2
Flags: W
LayerCount: 3
Back
Fore
SplineSet
135 740 m 1,0,-1
 231 592 l 1,1,-1
 171 592 l 1,2,-1
 22 740 l 1,3,-1
 135 740 l 1,0,-1
EndSplineSet
Validated: 1
Layer: 2
EndChar

StartChar: a
Encoding: 97 97 67
Width: 556
GlyphClass: 2
Flags: W
LayerCount: 3
Back
Fore
SplineSet
492 524 m 1,0,-1
 495 0 l 1,1,-1
 421 0 l 1,2,-1
 421 69 l 1,3,4
 387 20 387 20 347.5 -1.5 c 128,-1,5
 308 -23 308 -23 254 -23 c 0,6,7
 148 -23 148 -23 87 53.5 c 128,-1,8
 26 130 26 130 26 263 c 0,9,10
 26 388 26 388 87.5 463.5 c 128,-1,11
 149 539 149 539 251 539 c 0,12,13
 359 539 359 539 412 458 c 1,14,-1
 409 524 l 1,15,-1
 492 524 l 1,0,-1
265 461 m 0,16,17
 197 461 197 461 155 405 c 128,-1,18
 113 349 113 349 113 258 c 0,19,20
 113 166 113 166 155 110.5 c 128,-1,21
 197 55 197 55 266 55 c 0,22,23
 332 55 332 55 372 110 c 128,-1,24
 412 165 412 165 412 256 c 0,25,26
 412 350 412 350 372 405.5 c 128,-1,27
 332 461 332 461 265 461 c 0,16,17
EndSplineSet
Validated: 1
Layer: 2
EndChar

StartChar: b
Encoding: 98 98 68
Width: 556
GlyphClass: 2
Flags: W
LayerCount: 3
Back
Fore
SplineSet
54 729 m 1,0,-1
 137 729 l 1,1,-1
 137 453 l 1,2,3
 194 539 194 539 299 539 c 0,4,5
 403 539 403 539 463 465 c 128,-1,6
 523 391 523 391 523 264 c 0,7,8
 523 134 523 134 461 55.5 c 128,-1,9
 399 -23 399 -23 295 -23 c 0,10,11
 188 -23 188 -23 129 67 c 1,12,-1
 129 0 l 1,13,-1
 54 0 l 1,14,-1
 54 729 l 1,0,-1
283 461 m 0,15,16
 217 461 217 461 177 405.5 c 128,-1,17
 137 350 137 350 137 258 c 128,-1,18
 137 166 137 166 177 110.5 c 128,-1,19
 217 55 217 55 283 55 c 0,20,21
 351 55 351 55 393.5 110.5 c 128,-1,22
 436 166 436 166 436 255 c 0,23,24
 436 349 436 349 394.5 405 c 128,-1,25
 353 461 353 461 283 461 c 0,15,16
EndSplineSet
Validated: 1
Layer: 2
EndChar

StartChar: c
Encoding: 99 99 69
Width: 500
GlyphClass: 2
Flags: W
LayerCount: 3
Back
Fore
SplineSet
471 348 m 1,0,-1
 387 348 l 1,1,2
 379 403 379 403 347 432.5 c 128,-1,3
 315 462 315 462 263 462 c 0,4,5
 195 462 195 462 156.5 406.5 c 128,-1,6
 118 351 118 351 118 253 c 0,7,8
 118 160 118 160 157 107 c 128,-1,9
 196 54 196 54 265 54 c 0,10,11
 372 54 372 54 393 180 c 1,12,-1
 477 180 l 1,13,14
 469 84 469 84 413 30.5 c 128,-1,15
 357 -23 357 -23 263 -23 c 0,16,17
 156 -23 156 -23 93.5 51.5 c 128,-1,18
 31 126 31 126 31 253 c 0,19,20
 31 383 31 383 94.5 461 c 128,-1,21
 158 539 158 539 264 539 c 0,22,23
 355 539 355 539 409.5 490 c 128,-1,24
 464 441 464 441 471 348 c 1,0,-1
EndSplineSet
Validated: 1
Layer: 2
EndChar

StartChar: d
Encoding: 100 100 70
Width: 556
GlyphClass: 2
Flags: W
LayerCount: 3
Back
Fore
SplineSet
495 729 m 1,0,-1
 495 0 l 1,1,-1
 421 0 l 1,2,-1
 421 69 l 1,3,4
 387 20 387 20 347.5 -1.5 c 128,-1,5
 308 -23 308 -23 254 -23 c 0,6,7
 148 -23 148 -23 87 53.5 c 128,-1,8
 26 130 26 130 26 263 c 0,9,10
 26 388 26 388 87.5 463.5 c 128,-1,11
 149 539 149 539 251 539 c 0,12,13
 359 539 359 539 412 458 c 1,14,-1
 412 729 l 1,15,-1
 495 729 l 1,0,-1
265 461 m 0,16,17
 197 461 197 461 155 405 c 128,-1,18
 113 349 113 349 113 258 c 0,19,20
 113 166 113 166 155 110.5 c 128,-1,21
 197 55 197 55 266 55 c 0,22,23
 332 55 332 55 372 110 c 128,-1,24
 412 165 412 165 412 256 c 0,25,26
 412 350 412 350 372 405.5 c 128,-1,27
 332 461 332 461 265 461 c 0,16,17
EndSplineSet
Validated: 1
Layer: 2
EndChar

StartChar: e
Encoding: 101 101 71
Width: 556
GlyphClass: 2
Flags: W
LayerCount: 3
Back
Fore
SplineSet
513 234 m 1,0,-1
 127 234 l 1,1,2
 128 162 128 162 155 122 c 0,3,4
 198 54 198 54 281 54 c 0,5,6
 383 54 383 54 418 159 c 1,7,-1
 502 159 l 1,8,9
 486 73 486 73 427 25 c 128,-1,10
 368 -23 368 -23 278 -23 c 0,11,12
 168 -23 168 -23 104 51.5 c 128,-1,13
 40 126 40 126 40 255 c 128,-1,14
 40 384 40 384 105.5 461.5 c 128,-1,15
 171 539 171 539 280 539 c 0,16,17
 354 539 354 539 410.5 502 c 128,-1,18
 467 465 467 465 492 401 c 0,19,20
 513 346 513 346 513 234 c 1,0,-1
129 302 m 1,21,-1
 423 302 l 2,22,23
 424 304 424 304 424 308 c 0,24,25
 424 373 424 373 382 417.5 c 128,-1,26
 340 462 340 462 279 462 c 0,27,28
 216 462 216 462 175 418.5 c 128,-1,29
 134 375 134 375 129 302 c 1,21,-1
EndSplineSet
Validated: 1
Layer: 2
EndChar

StartChar: f
Encoding: 102 102 72
Width: 278
GlyphClass: 2
Flags: W
LayerCount: 3
Back
Fore
SplineSet
273 524 m 1,0,-1
 273 456 l 1,1,-1
 171 456 l 1,2,-1
 171 0 l 1,3,-1
 88 0 l 1,4,-1
 88 456 l 1,5,-1
 18 456 l 1,6,-1
 18 524 l 1,7,-1
 88 524 l 1,8,-1
 88 613 l 2,9,10
 88 669 88 669 121.5 700.5 c 128,-1,11
 155 732 155 732 213 732 c 0,12,13
 321.930769231 732 321.930769231 732 321.930769231 626.420946746 c 0,14,15
 321.930769231 616.661538462 321.930769231 616.661538462 321 606 c 1,16,-1
 248 606 l 1,17,18
 248.757894737 612.694736842 248.757894737 612.694736842 248.757894737 618.543822715 c 0,19,20
 248.757894737 659 248.757894737 659 212.5 659 c 0,21,22
 171 659 171 659 171 606 c 2,23,-1
 171 524 l 1,24,-1
 273 524 l 1,0,-1
EndSplineSet
Validated: 1
Layer: 2
EndChar

StartChar: g
Encoding: 103 103 73
Width: 556
GlyphClass: 2
Flags: W
LayerCount: 3
Back
Fore
SplineSet
245 -23 m 0,0,1
 153 -23 153 -23 91 52.5 c 128,-1,2
 29 128 29 128 29 253 c 0,3,4
 29 381 29 381 90.5 460 c 128,-1,5
 152 539 152 539 252 539 c 0,6,7
 350 539 350 539 412 448 c 1,8,-1
 412 524 l 1,9,-1
 489 524 l 1,10,-1
 489 86 l 2,11,12
 489 11 489 11 480 -39.5 c 128,-1,13
 471 -90 471 -90 447 -133 c 128,-1,14
 423 -176 423 -176 375.5 -197 c 128,-1,15
 328 -218 328 -218 255 -218 c 0,16,17
 163 -218 163 -218 108 -176 c 128,-1,18
 53 -134 53 -134 46 -60 c 1,19,-1
 131 -60 l 1,20,21
 145 -148 145 -148 258 -148 c 0,22,23
 342 -148 342 -148 373 -100.5 c 128,-1,24
 404 -53 404 -53 404 44 c 2,25,-1
 404 71 l 1,26,27
 369 21 369 21 331.5 -1 c 128,-1,28
 294 -23 294 -23 245 -23 c 0,0,1
261 462 m 0,29,30
 194 462 194 462 155 407 c 128,-1,31
 116 352 116 352 116 258 c 0,32,33
 116 163 116 163 155 108.5 c 128,-1,34
 194 54 194 54 262 54 c 0,35,36
 328 54 328 54 366 107.5 c 128,-1,37
 404 161 404 161 404 255 c 0,38,39
 404 353 404 353 366.5 407.5 c 128,-1,40
 329 462 329 462 261 462 c 0,29,30
EndSplineSet
Validated: 1
Layer: 2
EndChar

StartChar: h
Encoding: 104 104 74
Width: 556
GlyphClass: 2
Flags: W
LayerCount: 3
Back
Fore
SplineSet
403 363 m 2,0,1
 403 418 403 418 369.5 442 c 128,-1,2
 336 466 336 466 295 466 c 0,3,4
 231 466 231 466 192 417.5 c 128,-1,5
 153 369 153 369 153 289 c 2,6,-1
 153 0 l 1,7,-1
 70 0 l 1,8,-1
 70 729 l 1,9,-1
 153 729 l 1,10,-1
 153 452 l 1,11,12
 190 500 190 500 227.5 519.5 c 128,-1,13
 265 539 265 539 321 539 c 0,14,15
 397 539 397 539 441.5 500.5 c 128,-1,16
 486 462 486 462 486 396 c 2,17,-1
 486 0 l 1,18,-1
 403 0 l 1,19,-1
 403 363 l 2,0,1
EndSplineSet
Validated: 1
Layer: 2
EndChar

StartChar: i
Encoding: 105 105 75
Width: 222
GlyphClass: 2
Flags: W
LayerCount: 3
Back
Fore
SplineSet
150 518 m 1,0,-1
 150 -6 l 1,1,-1
 67 -6 l 1,2,-1
 67 518 l 1,3,-1
 150 518 l 1,0,-1
150 729 m 1,4,-1
 150 624 l 1,5,-1
 66 624 l 1,6,-1
 66 729 l 1,7,-1
 150 729 l 1,4,-1
EndSplineSet
Validated: 1
Layer: 2
EndChar

StartChar: j
Encoding: 106 106 76
Width: 215
GlyphClass: 2
Flags: W
LayerCount: 3
Back
Fore
SplineSet
147.515625 -67 m 2,0,1
 147.515625 -152.470344828 147.515625 -152.470344828 114.015625 -185 c 0,2,3
 80.4557832056 -218.543959238 80.4557832056 -218.543959238 22.515625 -218 c 0,4,5
 -85 -218 -85 -218 -85.484375 -92 c 0,6,7
 -85.484375 -92 l 1,8,-1
 -12.484375 -92 l 1,9,10
 -12 -142 -12 -142 24.515625 -142.5 c 1,11,12
 64.515625 -141.017946739 64.515625 -141.017946739 64.515625 -89 c 2,13,-1
 64.515625 524 l 1,14,-1
 147.515625 524 l 1,15,-1
 147.515625 -67 l 2,0,1
147.515625 729 m 1,16,-1
 147.515625 624 l 1,17,-1
 64.515625 624 l 1,18,-1
 64.515625 729 l 1,19,-1
 147.515625 729 l 1,16,-1
EndSplineSet
Validated: 37
Layer: 2
SplineSet
64.51171875 524 m 5
 147.51171875 524 l 5
 147.51171875 -109 l 6
 147.51171875 -181.666992188 99.8447265625 -218 4.51171875 -218 c 4
 -4.1552734375 -218 -13.48828125 -217 -23.48828125 -215 c 5
 -23.48828125 -144 l 5
 -12.1552734375 -144.666992188 -5.48828125 -145 -3.48828125 -145 c 4
 21.8447265625 -145 39.51171875 -140 49.51171875 -130 c 132
 59.51171875 -120 64.51171875 -102 64.51171875 -76 c 6
 64.51171875 524 l 5
EndSplineSet
EndChar

StartChar: k
Encoding: 107 107 77
Width: 500
GlyphClass: 2
Flags: W
LayerCount: 3
Back
Fore
SplineSet
141 729 m 1,0,-1
 141 302 l 1,1,-1
 363 524 l 1,2,-1
 470 524 l 1,3,-1
 288 343 l 1,4,-1
 502 0 l 1,5,-1
 399 0 l 1,6,-1
 222 284 l 1,7,-1
 141 204 l 1,8,-1
 141 0 l 1,9,-1
 58 0 l 1,10,-1
 58 729 l 1,11,-1
 141 729 l 1,0,-1
EndSplineSet
Validated: 1
Layer: 2
EndChar

StartChar: l
Encoding: 108 108 78
Width: 222
GlyphClass: 2
Flags: W
LayerCount: 3
Back
Fore
SplineSet
152 729 m 1,0,-1
 152 0 l 1,1,-1
 68 0 l 1,2,-1
 68 729 l 1,3,-1
 152 729 l 1,0,-1
EndSplineSet
Validated: 1
Layer: 2
EndChar

StartChar: m
Encoding: 109 109 79
Width: 833
GlyphClass: 2
Flags: W
LayerCount: 3
Back
Fore
SplineSet
70 524 m 1,0,-1
 147 524 l 1,1,-1
 147 450 l 1,2,3
 181 497 181 497 218.5 518 c 128,-1,4
 256 539 256 539 308 539 c 0,5,6
 405 539 405 539 449 459 c 1,7,8
 486 503 486 503 522 521 c 128,-1,9
 558 539 558 539 610 539 c 0,10,11
 683 539 683 539 722.5 501.5 c 128,-1,12
 762 464 762 464 762 393 c 2,13,-1
 762 0 l 1,14,-1
 678 0 l 1,15,-1
 678 361 l 2,16,17
 678 411 678 411 652.5 438.5 c 128,-1,18
 627 466 627 466 581 466 c 0,19,20
 530 466 530 466 494 426 c 128,-1,21
 458 386 458 386 458 329 c 2,22,-1
 458 0 l 1,23,-1
 374 0 l 1,24,-1
 374 361 l 2,25,26
 374 411 374 411 348.5 438.5 c 128,-1,27
 323 466 323 466 277 466 c 0,28,29
 226 466 226 466 190 426 c 128,-1,30
 154 386 154 386 154 329 c 2,31,-1
 154 0 l 1,32,-1
 70 0 l 1,33,-1
 70 524 l 1,0,-1
EndSplineSet
Validated: 1
Layer: 2
EndChar

StartChar: n
Encoding: 110 110 80
Width: 556
GlyphClass: 2
Flags: W
LayerCount: 3
Back
Fore
SplineSet
70 524 m 1,0,-1
 147 524 l 1,1,-1
 147 436 l 1,2,3
 182 491 182 491 222.5 515 c 128,-1,4
 263 539 263 539 321 539 c 0,5,6
 397 539 397 539 442 500 c 128,-1,7
 487 461 487 461 487 396 c 2,8,-1
 487 0 l 1,9,-1
 404 0 l 1,10,-1
 404 363 l 2,11,12
 404 410 404 410 375 438 c 128,-1,13
 346 466 346 466 296 466 c 0,14,15
 232 466 232 466 193 417.5 c 128,-1,16
 154 369 154 369 154 289 c 2,17,-1
 154 0 l 1,18,-1
 70 0 l 1,19,-1
 70 524 l 1,0,-1
EndSplineSet
Validated: 1
Layer: 2
EndChar

StartChar: o
Encoding: 111 111 81
Width: 556
GlyphClass: 2
Flags: W
LayerCount: 3
Back
Fore
SplineSet
272 539 m 0,0,1
 385 539 385 539 447.5 464.5 c 128,-1,2
 510 390 510 390 510 254 c 0,3,4
 510 125 510 125 446.5 51 c 128,-1,5
 383 -23 383 -23 273 -23 c 0,6,7
 161 -23 161 -23 98.5 51.5 c 128,-1,8
 36 126 36 126 36 258 c 128,-1,9
 36 390 36 390 99 464.5 c 128,-1,10
 162 539 162 539 272 539 c 0,0,1
273 462 m 0,11,12
 203 462 203 462 163 407.5 c 128,-1,13
 123 353 123 353 123 258 c 128,-1,14
 123 163 123 163 163 108.5 c 128,-1,15
 203 54 203 54 273 54 c 0,16,17
 342 54 342 54 382.5 108.5 c 128,-1,18
 423 163 423 163 423 255 c 0,19,20
 423 352 423 352 383.5 407 c 128,-1,21
 344 462 344 462 273 462 c 0,11,12
EndSplineSet
Validated: 1
Layer: 2
EndChar

StartChar: p
Encoding: 112 112 82
Width: 556
GlyphClass: 2
Flags: W
LayerCount: 3
Back
Fore
SplineSet
54 -218 m 1,0,-1
 54 524 l 1,1,-1
 131 524 l 1,2,-1
 131 445 l 1,3,4
 190 539 190 539 298 539 c 0,5,6
 402 539 402 539 462.5 462 c 128,-1,7
 523 385 523 385 523 253 c 0,8,9
 523 128 523 128 461.5 52.5 c 128,-1,10
 400 -23 400 -23 299 -23 c 0,11,12
 202 -23 202 -23 138 55 c 1,13,-1
 138 -218 l 1,14,-1
 54 -218 l 1,0,-1
284 461 m 0,15,16
 218 461 218 461 178 405.5 c 128,-1,17
 138 350 138 350 138 258 c 128,-1,18
 138 166 138 166 178 110.5 c 128,-1,19
 218 55 218 55 284 55 c 0,20,21
 352 55 352 55 394 110.5 c 128,-1,22
 436 166 436 166 436 255 c 0,23,24
 436 349 436 349 394.5 405 c 128,-1,25
 353 461 353 461 284 461 c 0,15,16
EndSplineSet
Validated: 1
Layer: 2
EndChar

StartChar: q
Encoding: 113 113 83
Width: 556
GlyphClass: 2
Flags: W
LayerCount: 3
Back
Fore
SplineSet
266 461 m 0,0,1
 197 461 197 461 155 405 c 128,-1,2
 113 349 113 349 113 258 c 0,3,4
 113 166 113 166 155 110.5 c 128,-1,5
 197 55 197 55 266 55 c 0,6,7
 332 55 332 55 372 110 c 128,-1,8
 412 165 412 165 412 255 c 0,9,10
 412 349 412 349 372.5 405 c 128,-1,11
 333 461 333 461 266 461 c 0,0,1
568 -88 m 1,12,-1
 606 -151 l 1,13,-1
 495 -217.401785714 l 1,14,-1
 495 -218 l 1,15,-1
 494 -218 l 1,16,-1
 412 -218 l 1,17,-1
 412 60 l 1,18,19
 355 -23 355 -23 250 -23 c 0,20,21
 146 -23 146 -23 86 51 c 128,-1,22
 26 125 26 125 26 252 c 0,23,24
 26 382 26 382 88 460.5 c 128,-1,25
 150 539 150 539 254 539 c 0,26,27
 361 539 361 539 421 454 c 1,28,-1
 421 524 l 1,29,-1
 495 524 l 1,30,-1
 495 -131.669642857 l 1,31,-1
 568 -88 l 1,12,-1
EndSplineSet
Validated: 1
Layer: 2
EndChar

StartChar: r
Encoding: 114 114 84
Width: 333
GlyphClass: 2
Flags: W
LayerCount: 3
Back
Fore
SplineSet
321 451 m 1,0,1
 237 449 237 449 195 412 c 128,-1,2
 153 375 153 375 153 272 c 2,3,-1
 153 0 l 1,4,-1
 69 0 l 1,5,-1
 69 524 l 1,6,-1
 146 524 l 1,7,-1
 146 429 l 1,8,9
 182 488 182 488 215.5 513.5 c 128,-1,10
 249 539 249 539 289 539 c 0,11,12
 300 539 300 539 321 536 c 1,13,-1
 321 451 l 1,0,1
EndSplineSet
Validated: 1
Layer: 2
EndChar

StartChar: s
Encoding: 115 115 85
Width: 500
GlyphClass: 2
Flags: W
LayerCount: 3
Back
Fore
SplineSet
122 156 m 1,0,1
 128 109 128 109 154.5 81.5 c 128,-1,2
 181 54 181 54 250 54 c 0,3,4
 305 54 305 54 338.5 76.5 c 128,-1,5
 372 99 372 99 372 136 c 0,6,7
 372 165 372 165 353 182 c 128,-1,8
 334 199 334 199 291 209 c 2,9,-1
 213 228 l 2,10,11
 120 250 120 250 83.5 283.5 c 128,-1,12
 47 317 47 317 47 379 c 0,13,14
 47 452 47 452 102 495.5 c 128,-1,15
 157 539 157 539 248 539 c 128,-1,16
 339 539 339 539 388 497 c 128,-1,17
 437 455 437 455 438 378 c 1,18,-1
 350 378 l 1,19,20
 347 462 347 462 245 462 c 0,21,22
 194 462 194 462 164 440.5 c 128,-1,23
 134 419 134 419 134 383 c 0,24,25
 134 355 134 355 157 337.5 c 128,-1,26
 180 320 180 320 231 308 c 2,27,-1
 311 289 l 2,28,29
 389 270 389 270 424 235.5 c 128,-1,30
 459 201 459 201 459 143 c 0,31,32
 459 67 459 67 400.5 22 c 128,-1,33
 342 -23 342 -23 243 -23 c 0,34,35
 40 -23 40 -23 34 156 c 1,36,-1
 122 156 l 1,0,1
EndSplineSet
Validated: 1
Layer: 2
EndChar

StartChar: t
Encoding: 116 116 86
Width: 278
GlyphClass: 2
Flags: W
LayerCount: 3
Back
Fore
SplineSet
85 -8 m 1,0,-1
 85 456 l 1,1,-1
 14 456 l 1,2,-1
 14 524 l 1,3,-1
 85 524 l 1,4,-1
 85 668 l 1,5,-1
 168 668 l 1,6,-1
 168 524 l 1,7,-1
 254 524 l 1,8,-1
 254 456 l 1,9,-1
 168 456 l 1,10,-1
 168 -8 l 1,11,-1
 85 -8 l 1,0,-1
EndSplineSet
Validated: 1
Layer: 2
EndChar

StartChar: u
Encoding: 117 117 87
Width: 556
GlyphClass: 2
Flags: W
LayerCount: 3
Back
Fore
SplineSet
482 0 m 1,0,-1
 407 0 l 1,1,-1
 407 73 l 1,2,3
 370 21 370 21 330 -1 c 128,-1,4
 290 -23 290 -23 232 -23 c 0,5,6
 156 -23 156 -23 110.5 16 c 128,-1,7
 65 55 65 55 65 120 c 2,8,-1
 65 524 l 1,9,-1
 148 524 l 1,10,-1
 148 153 l 2,11,12
 148 106 148 106 177 78 c 128,-1,13
 206 50 206 50 256 50 c 0,14,15
 321 50 321 50 360 98.5 c 128,-1,16
 399 147 399 147 399 227 c 2,17,-1
 399 524 l 1,18,-1
 482 524 l 1,19,-1
 482 0 l 1,0,-1
EndSplineSet
Validated: 1
Layer: 2
EndChar

StartChar: v
Encoding: 118 118 88
Width: 500
GlyphClass: 2
Flags: W
LayerCount: 3
Back
Fore
SplineSet
285 0 m 1,0,-1
 194 0 l 1,1,-1
 10 524 l 1,2,-1
 104 524 l 1,3,-1
 244 99 l 1,4,-1
 392 524 l 1,5,-1
 486 524 l 1,6,-1
 285 0 l 1,0,-1
EndSplineSet
Validated: 1
Layer: 2
EndChar

StartChar: w
Encoding: 119 119 89
Width: 722
GlyphClass: 2
Flags: W
LayerCount: 3
Back
Fore
SplineSet
554 0 m 1,0,-1
 459 0 l 1,1,-1
 353 411 l 1,2,-1
 252 0 l 1,3,-1
 158 0 l 1,4,-1
 6 524 l 1,5,-1
 98 524 l 1,6,-1
 205 116 l 1,7,-1
 305 524 l 1,8,-1
 407 524 l 1,9,-1
 510 116 l 1,10,-1
 614 524 l 1,11,-1
 708 524 l 1,12,-1
 554 0 l 1,0,-1
EndSplineSet
Validated: 1
Layer: 2
EndChar

StartChar: x
Encoding: 120 120 90
Width: 500
GlyphClass: 2
Flags: W
LayerCount: 3
Back
Fore
SplineSet
292 271 m 1,0,-1
 473 0 l 1,1,-1
 376 0 l 1,2,-1
 245 201 l 1,3,-1
 112 0 l 1,4,-1
 17 0 l 1,5,-1
 202 267 l 1,6,-1
 27 524 l 1,7,-1
 122 524 l 1,8,-1
 248 334 l 1,9,-1
 374 524 l 1,10,-1
 468 524 l 1,11,-1
 292 271 l 1,0,-1
EndSplineSet
Validated: 1
Layer: 2
EndChar

StartChar: y
Encoding: 121 121 91
Width: 500
GlyphClass: 2
Flags: W
LayerCount: 3
Back
Fore
SplineSet
388 524 m 1,0,-1
 478 524 l 1,1,-1
 245 -110 l 2,2,3
 204 -218 204 -218 110 -218 c 0,4,5
 79 -218 79 -218 54 -205 c 1,6,-1
 54 -130 l 1,7,8
 81 -136 81 -136 98 -136 c 0,9,10
 124 -136 124 -136 139 -124.5 c 128,-1,11
 154 -113 154 -113 165 -85 c 2,12,-1
 197 -2 l 1,13,-1
 20 524 l 1,14,-1
 109 524 l 1,15,-1
 243 116 l 1,16,-1
 388 524 l 1,0,-1
EndSplineSet
Validated: 1
Layer: 2
EndChar

StartChar: z
Encoding: 122 122 92
Width: 500
GlyphClass: 2
Flags: W
LayerCount: 3
Back
Fore
SplineSet
443 524 m 1,0,-1
 443 450 l 1,1,-1
 132 73 l 1,2,-1
 457 73 l 1,3,-1
 457 0 l 1,4,-1
 31 0 l 1,5,-1
 31 75 l 1,6,-1
 344 451 l 1,7,-1
 52 451 l 1,8,-1
 52 524 l 1,9,-1
 443 524 l 1,0,-1
EndSplineSet
Validated: 1
Layer: 2
EndChar

StartChar: braceleft
Encoding: 123 123 93
Width: 334
GlyphClass: 2
Flags: W
LayerCount: 3
Back
Fore
SplineSet
276 729 m 1,0,-1
 276 664 l 1,1,-1
 261 664 l 2,2,3
 224 664 224 664 211 650 c 128,-1,4
 198 636 198 636 198 597 c 2,5,-1
 198 416 l 2,6,7
 198 347 198 347 180 312 c 128,-1,8
 162 277 162 277 116 259 c 1,9,10
 198 221 198 221 198 101 c 2,11,-1
 198 -80 l 2,12,13
 198 -119 198 -119 211 -133 c 128,-1,14
 224 -147 224 -147 261 -147 c 2,15,-1
 276 -147 l 1,16,-1
 276 -212 l 1,17,-1
 230 -212 l 2,18,19
 178 -212 178 -212 149.5 -177.5 c 128,-1,20
 121 -143 121 -143 121 -81 c 2,21,-1
 121 86 l 2,22,23
 121 155 121 155 104 185 c 128,-1,24
 87 215 87 215 43 224 c 1,25,-1
 43 293 l 1,26,27
 87 302 87 302 104 331.5 c 128,-1,28
 121 361 121 361 121 431 c 2,29,-1
 121 598 l 2,30,31
 121 660 121 660 149.5 694.5 c 128,-1,32
 178 729 178 729 230 729 c 2,33,-1
 276 729 l 1,0,-1
EndSplineSet
Validated: 1
Layer: 2
EndChar

StartChar: bar
Encoding: 124 124 94
Width: 260
GlyphClass: 2
Flags: W
LayerCount: 3
Back
Fore
SplineSet
100 729 m 1,0,-1
 160 729 l 1,1,-1
 160 -212 l 1,2,-1
 100 -212 l 1,3,-1
 100 729 l 1,0,-1
EndSplineSet
Validated: 1
Layer: 2
EndChar

StartChar: braceright
Encoding: 125 125 95
Width: 334
GlyphClass: 2
Flags: W
LayerCount: 3
Back
Fore
SplineSet
29 -212 m 1,0,-1
 29 -147 l 1,1,-1
 45 -147 l 2,2,3
 82 -147 82 -147 95.5 -133 c 128,-1,4
 109 -119 109 -119 109 -80 c 2,5,-1
 109 101 l 2,6,7
 109 221 109 221 191 258 c 1,8,9
 109 296 109 296 109 416 c 2,10,-1
 109 597 l 2,11,12
 109 636 109 636 95.5 650 c 128,-1,13
 82 664 82 664 45 664 c 2,14,-1
 29 664 l 1,15,-1
 29 729 l 1,16,-1
 76 729 l 2,17,18
 128 729 128 729 157 694.5 c 128,-1,19
 186 660 186 660 186 598 c 2,20,-1
 186 431 l 2,21,22
 186 362 186 362 202.5 332 c 128,-1,23
 219 302 219 302 262 293 c 1,24,-1
 262 224 l 1,25,26
 219 215 219 215 202.5 185 c 128,-1,27
 186 155 186 155 186 86 c 2,28,-1
 186 -81 l 2,29,30
 186 -143 186 -143 157 -177.5 c 128,-1,31
 128 -212 128 -212 76 -212 c 2,32,-1
 29 -212 l 1,0,-1
EndSplineSet
Validated: 1
Layer: 2
EndChar

StartChar: asciitilde
Encoding: 126 126 96
Width: 584
GlyphClass: 2
Flags: W
LayerCount: 3
Back
Fore
SplineSet
181 371 m 0,0,1
 134 371 134 371 128 293 c 1,2,-1
 75 293 l 1,3,4
 79 363 79 363 106.5 400.5 c 128,-1,5
 134 438 134 438 183 438 c 0,6,7
 210 438 210 438 237 422 c 2,8,-1
 354 353 l 2,9,10
 382 336 382 336 404 336 c 0,11,12
 431 336 431 336 443 352.5 c 128,-1,13
 455 369 455 369 455 406 c 2,14,-1
 455 411 l 1,15,-1
 508 411 l 1,16,-1
 508 395 l 2,17,18
 508 337 508 337 479.5 302.5 c 128,-1,19
 451 268 451 268 403 268 c 0,20,21
 364 268 364 268 322 294 c 2,22,-1
 224 357 l 2,23,24
 201 371 201 371 181 371 c 0,0,1
EndSplineSet
Validated: 1
Layer: 2
EndChar

StartChar: cent
Encoding: 162 162 99
Width: 556
GlyphClass: 2
Flags: W
LayerCount: 3
Back
Fore
SplineSet
312 462 m 1,0,-1
 312 53 l 1,1,2
 408 64 408 64 426 180 c 1,3,-1
 510 180 l 1,4,5
 505 90 505 90 452 35.5 c 128,-1,6
 399 -19 399 -19 312 -23 c 1,7,-1
 312 -120 l 1,8,-1
 270 -120 l 1,9,-1
 270 -22 l 1,10,11
 169 -13 169 -13 110.5 60.5 c 128,-1,12
 52 134 52 134 52 253 c 0,13,14
 52 375 52 375 110.5 451 c 128,-1,15
 169 527 169 527 270 538 c 1,16,-1
 270 628 l 1,17,-1
 312 628 l 1,18,-1
 312 539 l 1,19,20
 400 533 400 533 449.5 483.5 c 128,-1,21
 499 434 499 434 504 348 c 1,22,-1
 420 348 l 1,23,24
 415 398 415 398 386.5 428 c 128,-1,25
 358 458 358 458 312 462 c 1,0,-1
270 55 m 1,26,-1
 270 461 l 1,27,28
 139 437 139 437 139 253 c 0,29,30
 139 168 139 168 173.5 116.5 c 128,-1,31
 208 65 208 65 270 55 c 1,26,-1
EndSplineSet
Validated: 1
Layer: 2
EndChar

StartChar: sterling
Encoding: 163 163 100
Width: 556
GlyphClass: 2
Flags: W
LayerCount: 3
Back
Fore
SplineSet
147 523 m 0,0,1
 147 495 147 495 154.5 473 c 128,-1,2
 162 451 162 451 181 420 c 128,-1,3
 200 389 200 389 206 376 c 1,4,-1
 366 376 l 1,5,-1
 366 321 l 1,6,-1
 230 321 l 1,7,8
 245 278 245 278 245 250 c 0,9,10
 245 211 245 211 219.5 170 c 128,-1,11
 194 129 194 129 127 61 c 1,12,13
 186 100 186 100 249 100 c 0,14,15
 282 100 282 100 334 84.5 c 128,-1,16
 386 69 386 69 410 69 c 0,17,18
 450 69 450 69 493 99 c 1,19,-1
 535 33 l 1,20,21
 478 -23 478 -23 404 -23 c 0,22,23
 361 -23 361 -23 294 0 c 128,-1,24
 227 23 227 23 192 23 c 0,25,26
 139 23 139 23 83 -14 c 1,27,-1
 35 52 l 1,28,29
 104 111 104 111 132 154 c 128,-1,30
 160 197 160 197 160 243 c 0,31,32
 160 281 160 281 136 321 c 1,33,-1
 26 321 l 1,34,-1
 26 376 l 1,35,-1
 107 376 l 1,36,37
 73 433 73 433 63.5 457.5 c 128,-1,38
 54 482 54 482 54 515 c 0,39,40
 54 606 54 606 122.5 667.5 c 128,-1,41
 191 729 191 729 292 729 c 0,42,43
 321 729 321 729 347.5 724.5 c 128,-1,44
 374 720 374 720 405 705 c 128,-1,45
 436 690 436 690 458 665.5 c 128,-1,46
 480 641 480 641 495.5 597.5 c 128,-1,47
 511 554 511 554 512 497 c 1,48,-1
 424 497 l 1,49,50
 420 651 420 651 288 651 c 0,51,52
 224 651 224 651 185.5 616 c 128,-1,53
 147 581 147 581 147 523 c 0,0,1
EndSplineSet
Validated: 1
Layer: 2
EndChar

StartChar: currency
Encoding: 164 164 101
Width: 556
GlyphClass: 2
Flags: W
LayerCount: 3
Back
Fore
SplineSet
485 190 m 1,0,-1
 427 136 l 1,1,-1
 374 189 l 1,2,3
 334 159 334 159 274 159 c 0,4,5
 221 159 221 159 180 184 c 1,6,-1
 129 133 l 1,7,-1
 73 190 l 1,8,-1
 121 239 l 1,9,10
 89 282 89 282 89 341 c 0,11,12
 89 398 89 398 121 443 c 1,13,-1
 67 498 l 1,14,-1
 123 551 l 1,15,-1
 178 496 l 1,16,17
 222 522 222 522 275 522 c 0,18,19
 333 522 333 522 373 494 c 1,20,-1
 432 547 l 1,21,-1
 489 489 l 1,22,-1
 434 434 l 1,23,24
 460 393 460 393 460 341 c 0,25,26
 460 291 460 291 431 244 c 1,27,-1
 485 190 l 1,0,-1
274 445 m 0,28,29
 230 445 230 445 199 414 c 128,-1,30
 168 383 168 383 168 340 c 128,-1,31
 168 297 168 297 199.5 266.5 c 128,-1,32
 231 236 231 236 275 236 c 0,33,34
 318 236 318 236 349.5 266.5 c 128,-1,35
 381 297 381 297 381 339 c 0,36,37
 381 383 381 383 350 414 c 128,-1,38
 319 445 319 445 274 445 c 0,28,29
EndSplineSet
Validated: 1
Layer: 2
EndChar

StartChar: yen
Encoding: 165 165 102
Width: 556
GlyphClass: 2
Flags: W
LayerCount: 3
Back
Fore
SplineSet
495 354 m 1,0,-1
 495 303 l 1,1,-1
 325 303 l 1,2,-1
 325 226 l 1,3,-1
 495 226 l 1,4,-1
 495 175 l 1,5,-1
 325 175 l 1,6,-1
 325 0 l 1,7,-1
 237 0 l 1,8,-1
 237 175 l 1,9,-1
 65 175 l 1,10,-1
 65 226 l 1,11,-1
 237 226 l 1,12,-1
 237 303 l 1,13,-1
 65 303 l 1,14,-1
 65 354 l 1,15,-1
 216 354 l 1,16,-1
 11 709 l 1,17,-1
 96 709 l 1,18,-1
 281 387 l 1,19,-1
 460 709 l 1,20,-1
 545 709 l 1,21,-1
 344 354 l 1,22,-1
 495 354 l 1,0,-1
EndSplineSet
Validated: 1
Layer: 2
EndChar

StartChar: brokenbar
Encoding: 166 166 103
Width: 260
GlyphClass: 2
Flags: W
LayerCount: 3
Back
Fore
SplineSet
100 729 m 1,0,-1
 160 729 l 1,1,-1
 160 328 l 1,2,-1
 100 328 l 1,3,-1
 100 729 l 1,0,-1
100 189 m 1,4,-1
 160 189 l 1,5,-1
 160 -212 l 1,6,-1
 100 -212 l 1,7,-1
 100 189 l 1,4,-1
EndSplineSet
Validated: 1
Layer: 2
EndChar

StartChar: section
Encoding: 167 167 104
Width: 556
GlyphClass: 2
Flags: W
LayerCount: 3
Back
Fore
SplineSet
162 -14 m 1,0,1
 162 -83 162 -83 192.5 -109.5 c 128,-1,2
 223 -136 223 -136 264 -136 c 0,3,4
 307 -136 307 -136 333.5 -112 c 128,-1,5
 360 -88 360 -88 360 -50 c 0,6,7
 360 0 360 0 305 38 c 2,8,-1
 135 155 l 2,9,10
 86 189 86 189 64.5 226 c 128,-1,11
 43 263 43 263 43 312 c 0,12,13
 43 362 43 362 68 397.5 c 128,-1,14
 93 433 93 433 148 462 c 1,15,16
 104 513 104 513 104 564 c 0,17,18
 104 633 104 633 157.5 681 c 128,-1,19
 211 729 211 729 289 729 c 128,-1,20
 367 729 367 729 415.5 680 c 128,-1,21
 464 631 464 631 464 552 c 2,22,-1
 464 524 l 1,23,-1
 380 524 l 1,24,-1
 380 550 l 2,25,26
 380 597 380 597 353.5 624.5 c 128,-1,27
 327 652 327 652 283 652 c 0,28,29
 245 652 245 652 219.5 628 c 128,-1,30
 194 604 194 604 194 567 c 0,31,32
 194 545 194 545 206.5 528 c 128,-1,33
 219 511 219 511 251 490 c 2,34,-1
 397 396 l 2,35,36
 458 357 458 357 482 320 c 128,-1,37
 506 283 506 283 506 229 c 0,38,39
 506 114 506 114 397 73 c 1,40,41
 427 39 427 39 438.5 13 c 128,-1,42
 450 -13 450 -13 450 -45 c 0,43,44
 450 -117 450 -117 396.5 -165 c 128,-1,45
 343 -213 343 -213 263 -213 c 0,46,47
 239 -213 239 -213 216 -209 c 128,-1,48
 193 -205 193 -205 167 -191.5 c 128,-1,49
 141 -178 141 -178 121.5 -157 c 128,-1,50
 102 -136 102 -136 89.5 -99 c 128,-1,51
 77 -62 77 -62 77 -14 c 1,52,-1
 162 -14 l 1,0,1
188 229 m 2,53,-1
 354 106 l 1,54,55
 427 145 427 145 427 208 c 0,56,57
 427 269 427 269 354 320 c 2,58,-1
 193 429 l 1,59,60
 154 403 154 403 138 380.5 c 128,-1,61
 122 358 122 358 122 328 c 128,-1,62
 122 298 122 298 135 278 c 128,-1,63
 148 258 148 258 188 229 c 2,53,-1
EndSplineSet
Validated: 1
Layer: 2
EndChar

StartChar: dieresis
Encoding: 168 168 105
Width: 333
GlyphClass: 4
Flags: W
LayerCount: 3
Back
Fore
SplineSet
134 715 m 1,0,-1
 134 612 l 1,1,-1
 30 612 l 1,2,-1
 30 715 l 1,3,-1
 134 715 l 1,0,-1
296 715 m 1,4,-1
 296 612 l 1,5,-1
 192 612 l 1,6,-1
 192 715 l 1,7,-1
 296 715 l 1,4,-1
EndSplineSet
Validated: 1
Layer: 2
EndChar

StartChar: copyright
Encoding: 169 169 106
Width: 737
GlyphClass: 2
Flags: W
LayerCount: 3
Back
Fore
SplineSet
552 312 m 1,0,1
 546 285 546 285 542.5 271 c 128,-1,2
 539 257 539 257 525.5 225 c 128,-1,3
 512 193 512 193 495.5 175 c 128,-1,4
 479 157 479 157 447 141.5 c 128,-1,5
 415 126 415 126 375 126 c 0,6,7
 289 126 289 126 235 190.5 c 128,-1,8
 181 255 181 255 181 357 c 0,9,10
 181 462 181 462 235.5 527 c 128,-1,11
 290 592 290 592 378 592 c 0,12,13
 509 592 509 592 544 437 c 1,14,-1
 473 437 l 1,15,16
 460 487 460 487 437.5 508.5 c 128,-1,17
 415 530 415 530 375 530 c 0,18,19
 318 530 318 530 284 483.5 c 128,-1,20
 250 437 250 437 250 358 c 0,21,22
 250 286 250 286 284.5 237 c 128,-1,23
 319 188 319 188 375 188 c 0,24,25
 461 188 461 188 481 312 c 1,26,-1
 552 312 l 1,0,1
751 361 m 0,27,28
 751 201 751 201 638.5 89.5 c 128,-1,29
 526 -22 526 -22 364 -22 c 0,30,31
 210 -22 210 -22 98.5 91 c 128,-1,32
 -13 204 -13 204 -13 360 c 0,33,34
 -13 518 -13 518 99 630 c 128,-1,35
 211 742 211 742 369 742 c 128,-1,36
 527 742 527 742 639 630.5 c 128,-1,37
 751 519 751 519 751 361 c 0,27,28
55 360 m 0,38,39
 55 229 55 229 146.5 134.5 c 128,-1,40
 238 40 238 40 365 40 c 0,41,42
 498 40 498 40 590.5 133.5 c 128,-1,43
 683 227 683 227 683 361 c 0,44,45
 683 492 683 492 591 586 c 128,-1,46
 499 680 499 680 369 680 c 128,-1,47
 239 680 239 680 147 586 c 128,-1,48
 55 492 55 492 55 360 c 0,38,39
EndSplineSet
Validated: 1
Layer: 2
EndChar

StartChar: ordfeminine
Encoding: 170 170 107
Width: 370
GlyphClass: 2
Flags: W
LayerCount: 3
Back
Fore
SplineSet
320 354 m 1,0,-1
 320 303 l 1,1,-1
 43 303 l 1,2,-1
 43 354 l 1,3,-1
 320 354 l 1,0,-1
333 449 m 1,4,-1
 333 405 l 1,5,6
 317 399 317 399 301 399 c 0,7,8
 254 399 254 399 246 442 c 1,9,10
 197 399 197 399 141 399 c 0,11,12
 93 399 93 399 65 425 c 128,-1,13
 37 451 37 451 37 495 c 0,14,15
 37 544 37 544 71 568.5 c 128,-1,16
 105 593 105 593 194 600 c 0,17,18
 222 602 222 602 232.5 609 c 128,-1,19
 243 616 243 616 243 633 c 2,20,-1
 243 646 l 2,21,22
 243 690 243 690 176 690 c 0,23,24
 142 690 142 690 127.5 678 c 128,-1,25
 113 666 113 666 108 634 c 1,26,-1
 49 634 l 1,27,28
 52 742 52 742 178 742 c 0,29,30
 300 742 300 742 300 648 c 2,31,-1
 300 469 l 2,32,33
 300 446 300 446 323 446 c 0,34,35
 327 446 327 446 333 449 c 1,4,-1
243 568 m 1,36,37
 224 560 224 560 182.5 555 c 128,-1,38
 141 550 141 550 118 538.5 c 128,-1,39
 95 527 95 527 95 498 c 0,40,41
 95 451 95 451 152 451 c 0,42,43
 189 451 189 451 216 471 c 128,-1,44
 243 491 243 491 243 517 c 2,45,-1
 243 568 l 1,36,37
EndSplineSet
Validated: 1
Layer: 2
EndChar

StartChar: guillemotleft
Encoding: 171 171 108
Width: 556
GlyphClass: 2
Flags: W
LayerCount: 3
Back
Fore
SplineSet
98 227 m 1,0,-1
 98 316 l 1,1,-1
 250 438 l 1,2,-1
 250 355 l 1,3,-1
 144 272 l 1,4,-1
 250 189 l 1,5,-1
 250 106 l 1,6,-1
 98 227 l 1,0,-1
303 227 m 1,7,-1
 303 316 l 1,8,-1
 455 438 l 1,9,-1
 455 355 l 1,10,-1
 349 272 l 1,11,-1
 455 189 l 1,12,-1
 455 106 l 1,13,-1
 303 227 l 1,7,-1
EndSplineSet
Validated: 1
Layer: 2
EndChar

StartChar: logicalnot
Encoding: 172 172 109
Width: 584
GlyphClass: 2
Flags: W
LayerCount: 3
Back
Fore
SplineSet
40 375 m 1,0,-1
 544 375 l 1,1,-1
 544 86 l 1,2,-1
 474 86 l 1,3,-1
 474 305 l 1,4,-1
 40 305 l 1,5,-1
 40 375 l 1,0,-1
EndSplineSet
Validated: 1
Layer: 2
EndChar

StartChar: softhyphen
Encoding: 173 173 110
Width: 333
GlyphClass: 2
Flags: W
LayerCount: 3
Back
Fore
SplineSet
284 312 m 1,0,-1
 284 240 l 1,1,-1
 46 240 l 1,2,-1
 46 312 l 1,3,-1
 284 312 l 1,0,-1
EndSplineSet
Validated: 1
Layer: 2
EndChar

StartChar: registered
Encoding: 174 174 111
Width: 737
GlyphClass: 2
Flags: W
LayerCount: 3
Back
Fore
SplineSet
495 360 m 1,0,1
 522 342 522 342 531.5 318.5 c 128,-1,2
 541 295 541 295 541 263 c 0,3,4
 541 257 541 257 540.5 244.5 c 128,-1,5
 540 232 540 232 540 227 c 0,6,7
 540 182 540 182 563 165 c 1,8,-1
 563 140 l 1,9,-1
 484 140 l 1,10,11
 469 175 469 175 469 212 c 0,12,13
 469 214 469 214 469 217 c 2,14,-1
 470 257 l 2,15,16
 470 293 470 293 455 309 c 128,-1,17
 440 325 440 325 406 325 c 2,18,-1
 272 325 l 1,19,-1
 272 140 l 1,20,-1
 202 140 l 1,21,-1
 202 585 l 1,22,-1
 408 585 l 2,23,24
 549 585 549 585 549 459 c 0,25,26
 549 425 549 425 537.5 404 c 128,-1,27
 526 383 526 383 495 360 c 1,0,1
272 388 m 1,28,-1
 401 388 l 2,29,30
 476 388 476 388 476 455 c 0,31,32
 476 490 476 490 458.5 506 c 128,-1,33
 441 522 441 522 401 522 c 2,34,-1
 272 522 l 1,35,-1
 272 388 l 1,28,-1
751 361 m 0,36,37
 751 201 751 201 638.5 89.5 c 128,-1,38
 526 -22 526 -22 364 -22 c 0,39,40
 210 -22 210 -22 98.5 91 c 128,-1,41
 -13 204 -13 204 -13 360 c 0,42,43
 -13 518 -13 518 99 630 c 128,-1,44
 211 742 211 742 369 742 c 128,-1,45
 527 742 527 742 639 630.5 c 128,-1,46
 751 519 751 519 751 361 c 0,36,37
55 360 m 0,47,48
 55 229 55 229 146.5 134.5 c 128,-1,49
 238 40 238 40 365 40 c 0,50,51
 498 40 498 40 590.5 133.5 c 128,-1,52
 683 227 683 227 683 361 c 0,53,54
 683 492 683 492 591 586 c 128,-1,55
 499 680 499 680 369 680 c 128,-1,56
 239 680 239 680 147 586 c 128,-1,57
 55 492 55 492 55 360 c 0,47,48
EndSplineSet
Validated: 1
Layer: 2
EndChar

StartChar: macron
Encoding: 175 175 112
Width: 333
GlyphClass: 2
Flags: W
LayerCount: 3
Back
Fore
SplineSet
302 701 m 1,0,-1
 302 631 l 1,1,-1
 28 631 l 1,2,-1
 28 701 l 1,3,-1
 302 701 l 1,0,-1
EndSplineSet
Validated: 1
Layer: 2
EndChar

StartChar: degree
Encoding: 176 176 113
Width: 606
GlyphClass: 2
Flags: W
LayerCount: 3
Back
Fore
SplineSet
303 686 m 0,0,1
 365 686 365 686 409.5 641.5 c 128,-1,2
 454 597 454 597 454 535 c 0,3,4
 454 471 454 471 409.5 427 c 128,-1,5
 365 383 365 383 301 383 c 0,6,7
 240 383 240 383 195.5 428 c 128,-1,8
 151 473 151 473 151 535 c 128,-1,9
 151 597 151 597 195.5 641.5 c 128,-1,10
 240 686 240 686 303 686 c 0,0,1
208 535 m 0,11,12
 208 496 208 496 235.5 468 c 128,-1,13
 263 440 263 440 301 440 c 0,14,15
 341 440 341 440 369 467.5 c 128,-1,16
 397 495 397 495 397 535 c 0,17,18
 397 574 397 574 369.5 601.5 c 128,-1,19
 342 629 342 629 303 629 c 128,-1,20
 264 629 264 629 236 601 c 128,-1,21
 208 573 208 573 208 535 c 0,11,12
EndSplineSet
Validated: 1
Layer: 2
EndChar

StartChar: plusminus
Encoding: 177 177 114
Width: 584
GlyphClass: 2
Flags: W
LayerCount: 3
Back
Fore
SplineSet
534 416 m 1,0,-1
 534 346 l 1,1,-1
 327 346 l 1,2,-1
 327 139 l 1,3,-1
 257 139 l 1,4,-1
 257 346 l 1,5,-1
 50 346 l 1,6,-1
 50 416 l 1,7,-1
 257 416 l 1,8,-1
 257 623 l 1,9,-1
 327 623 l 1,10,-1
 327 416 l 1,11,-1
 534 416 l 1,0,-1
534 59 m 1,12,-1
 534 -11 l 1,13,-1
 50 -11 l 1,14,-1
 50 59 l 1,15,-1
 534 59 l 1,12,-1
EndSplineSet
Validated: 1
Layer: 2
EndChar

StartChar: twosuperior
Encoding: 178 178 115
Width: 351
GlyphClass: 2
Flags: W
LayerCount: 3
Back
Fore
SplineSet
178 656 m 0,0,1
 152 656 152 656 134 647 c 128,-1,2
 116 638 116 638 107.5 622 c 128,-1,3
 99 606 99 606 95.5 591.5 c 128,-1,4
 92 577 92 577 91 557 c 1,5,-1
 29 557 l 1,6,7
 33 709 33 709 180 709 c 0,8,9
 244 709 244 709 285 674 c 128,-1,10
 326 639 326 639 326 583 c 0,11,12
 326 501 326 501 230 454 c 2,13,-1
 167 422 l 2,14,15
 134 405 134 405 118.5 387.5 c 128,-1,16
 103 370 103 370 94 342 c 1,17,-1
 323 342 l 1,18,-1
 323 284 l 1,19,-1
 19 284 l 1,20,21
 23 357 23 357 48.5 395 c 128,-1,22
 74 433 74 433 146 471 c 2,23,-1
 204 502 l 2,24,25
 263 534 263 534 263 581 c 0,26,27
 263 613 263 613 238.5 634.5 c 128,-1,28
 214 656 214 656 178 656 c 0,0,1
EndSplineSet
Validated: 1
Layer: 2
EndChar

StartChar: threesuperior
Encoding: 179 179 116
Width: 351
GlyphClass: 2
Flags: W
LayerCount: 3
Back
Fore
SplineSet
169 656 m 0,0,1
 123 656 123 656 105.5 633.5 c 128,-1,2
 88 611 88 611 88 567 c 1,3,-1
 25 567 l 1,4,5
 28 709 28 709 169 709 c 0,6,7
 233 709 233 709 270.5 677 c 128,-1,8
 308 645 308 645 308 589 c 0,9,10
 308 530 308 530 251 504 c 1,11,12
 322 480 322 480 322 404 c 0,13,14
 322 343 322 343 279.5 306.5 c 128,-1,15
 237 270 237 270 167 270 c 0,16,17
 95 270 95 270 55.5 307 c 128,-1,18
 16 344 16 344 16 412 c 1,19,-1
 78 412 l 1,20,21
 80 366 80 366 102 344.5 c 128,-1,22
 124 323 124 323 169 323 c 0,23,24
 211 323 211 323 235 344.5 c 128,-1,25
 259 366 259 366 259 404 c 0,26,27
 259 431 259 431 243 450.5 c 128,-1,28
 227 470 227 470 201 474 c 0,29,30
 186 476 186 476 135 476 c 1,31,-1
 135 527 l 1,32,33
 199 527 199 527 222 540 c 128,-1,34
 245 553 245 553 245 588 c 0,35,36
 245 620 245 620 224.5 638 c 128,-1,37
 204 656 204 656 169 656 c 0,0,1
EndSplineSet
Validated: 1
Layer: 2
EndChar

StartChar: acute
Encoding: 180 180 117
Width: 333
GlyphClass: 2
Flags: W
LayerCount: 3
Back
Fore
SplineSet
188 740 m 1,0,-1
 301 740 l 1,1,-1
 152 592 l 1,2,-1
 92 592 l 1,3,-1
 188 740 l 1,0,-1
EndSplineSet
Validated: 1
Layer: 2
EndChar

StartChar: micro
Encoding: 181 181 118
Width: 556
GlyphClass: 2
Flags: W
LayerCount: 3
Back
Fore
SplineSet
544 49 m 1,0,-1
 544 -14 l 1,1,2
 511 -23 511 -23 487 -23 c 0,3,4
 404 -23 404 -23 401 60 c 1,5,6
 342 -23 342 -23 238 -23 c 0,7,8
 184 -23 184 -23 148 3 c 1,9,-1
 148 -220 l 1,10,-1
 65 -220 l 1,11,-1
 65 524 l 1,12,-1
 148 524 l 1,13,-1
 148 153 l 2,14,15
 148 106 148 106 177 78 c 128,-1,16
 206 50 206 50 255 50 c 0,17,18
 320 50 320 50 359 98.5 c 128,-1,19
 398 147 398 147 398 227 c 2,20,-1
 398 524 l 1,21,-1
 481 524 l 1,22,-1
 481 88 l 2,23,24
 481 47 481 47 526 47 c 0,25,26
 534 47 534 47 544 49 c 1,0,-1
EndSplineSet
Validated: 1
Layer: 2
EndChar

StartChar: paragraph
Encoding: 182 182 119
Width: 537
GlyphClass: 2
Flags: W
LayerCount: 3
Back
Fore
SplineSet
255 259 m 1,0,1
 158 264 158 264 103 329.5 c 128,-1,2
 48 395 48 395 48 489 c 0,3,4
 48 590 48 590 113 659.5 c 128,-1,5
 178 729 178 729 272 729 c 2,6,-1
 522 729 l 1,7,-1
 522 665 l 1,8,-1
 465 665 l 1,9,-1
 465 -177 l 1,10,-1
 401 -177 l 1,11,-1
 401 665 l 1,12,-1
 319 665 l 1,13,-1
 319 -177 l 1,14,-1
 255 -177 l 1,15,-1
 255 259 l 1,0,1
EndSplineSet
Validated: 1
Layer: 2
EndChar

StartChar: periodcentered
Encoding: 183 183 120
Width: 278
GlyphClass: 2
Flags: W
LayerCount: 3
Back
Fore
SplineSet
211 427 m 1,0,-1
 211 302 l 1,1,-1
 87 302 l 1,2,-1
 87 427 l 1,3,-1
 211 427 l 1,0,-1
EndSplineSet
Validated: 1
Layer: 2
EndChar

StartChar: cedilla
Encoding: 184 184 121
Width: 333
GlyphClass: 2
Flags: W
LayerCount: 3
Back
Fore
SplineSet
60 -140 m 1,0,1
 85 -153 85 -153 110 -163 c 128,-1,2
 135 -173 135 -173 158 -173 c 128,-1,3
 181 -173 181 -173 196.5 -160 c 128,-1,4
 212 -147 212 -147 212 -128 c 0,5,6
 212 -91 212 -91 166 -91 c 0,7,8
 151 -91 151 -91 135 -99 c 1,9,-1
 123 -92 l 1,10,-1
 165 0 l 1,11,-1
 203 0 l 1,12,-1
 180 -56 l 1,13,14
 193 -54 193 -54 208 -54 c 0,15,16
 246 -54 246 -54 266.5 -71.5 c 128,-1,17
 287 -89 287 -89 287 -121 c 0,18,19
 287 -164 287 -164 254 -189 c 128,-1,20
 221 -214 221 -214 164 -214 c 0,21,22
 117 -214 117 -214 39 -180 c 1,23,-1
 60 -140 l 1,0,1
EndSplineSet
Validated: 1
Layer: 2
EndChar

StartChar: onesuperior
Encoding: 185 185 122
Width: 240
GlyphClass: 2
Flags: W
LayerCount: 3
Back
Fore
SplineSet
139 580 m 1,0,-1
 40 580 l 1,1,-1
 40 626 l 1,2,-1
 55 627 l 2,3,4
 109 632 109 632 127 646.5 c 128,-1,5
 145 661 145 661 158 709 c 1,6,-1
 201 709 l 1,7,-1
 201 284 l 1,8,-1
 139 284 l 1,9,-1
 139 580 l 1,0,-1
EndSplineSet
Validated: 1
Layer: 2
EndChar

StartChar: ordmasculine
Encoding: 186 186 123
Width: 365
GlyphClass: 2
Flags: W
LayerCount: 3
Back
Fore
SplineSet
314 354 m 1,0,-1
 314 303 l 1,1,-1
 51 303 l 1,2,-1
 51 354 l 1,3,-1
 314 354 l 1,0,-1
182 742 m 0,4,5
 250 742 250 742 287 697 c 128,-1,6
 324 652 324 652 324 568 c 0,7,8
 324 489 324 489 286.5 444 c 128,-1,9
 249 399 249 399 182 399 c 128,-1,10
 115 399 115 399 77.5 444 c 128,-1,11
 40 489 40 489 40 571 c 0,12,13
 40 652 40 652 77.5 697 c 128,-1,14
 115 742 115 742 182 742 c 0,4,5
182 690 m 0,15,16
 143 690 143 690 120.5 658 c 128,-1,17
 98 626 98 626 98 571 c 0,18,19
 98 515 98 515 120.5 483 c 128,-1,20
 143 451 143 451 182 451 c 128,-1,21
 221 451 221 451 243.5 482.5 c 128,-1,22
 266 514 266 514 266 569 c 0,23,24
 266 626 266 626 244 658 c 128,-1,25
 222 690 222 690 182 690 c 0,15,16
EndSplineSet
Validated: 1
Layer: 2
EndChar

StartChar: guillemotright
Encoding: 187 187 124
Width: 556
GlyphClass: 2
Flags: W
LayerCount: 3
Back
Fore
SplineSet
252 317 m 1,0,-1
 252 228 l 1,1,-1
 98 106 l 1,2,-1
 98 189 l 1,3,-1
 206 272 l 1,4,-1
 98 355 l 1,5,-1
 98 438 l 1,6,-1
 252 317 l 1,0,-1
451 317 m 1,7,-1
 451 228 l 1,8,-1
 297 106 l 1,9,-1
 297 189 l 1,10,-1
 405 272 l 1,11,-1
 297 355 l 1,12,-1
 297 438 l 1,13,-1
 451 317 l 1,7,-1
EndSplineSet
Validated: 1
Layer: 2
EndChar

StartChar: onequarter
Encoding: 188 188 125
Width: 869
GlyphClass: 2
Flags: W
LayerCount: 3
Back
Fore
SplineSet
160 580 m 1,0,-1
 61 580 l 1,1,-1
 61 626 l 1,2,-1
 76 627 l 2,3,4
 130 632 130 632 148 646.5 c 128,-1,5
 166 661 166 661 179 709 c 1,6,-1
 222 709 l 1,7,-1
 222 284 l 1,8,-1
 160 284 l 1,9,-1
 160 580 l 1,0,-1
643 709 m 1,10,-1
 701 709 l 1,11,-1
 249 -20 l 1,12,-1
 191 -20 l 1,13,-1
 643 709 l 1,10,-1
720 100 m 1,14,-1
 532 100 l 1,15,-1
 532 159 l 1,16,-1
 736 425 l 1,17,-1
 782 425 l 1,18,-1
 782 153 l 1,19,-1
 849 153 l 1,20,-1
 849 100 l 1,21,-1
 782 100 l 1,22,-1
 782 0 l 1,23,-1
 720 0 l 1,24,-1
 720 100 l 1,14,-1
720 153 m 1,25,-1
 720 323 l 1,26,-1
 591 153 l 1,27,-1
 720 153 l 1,25,-1
EndSplineSet
Validated: 1
Layer: 2
EndChar

StartChar: onehalf
Encoding: 189 189 126
Width: 869
GlyphClass: 2
Flags: W
LayerCount: 3
Back
Fore
SplineSet
160 580 m 1,0,-1
 61 580 l 1,1,-1
 61 626 l 1,2,-1
 76 627 l 2,3,4
 130 632 130 632 148 646.5 c 128,-1,5
 166 661 166 661 179 709 c 1,6,-1
 222 709 l 1,7,-1
 222 284 l 1,8,-1
 160 284 l 1,9,-1
 160 580 l 1,0,-1
619 709 m 1,10,-1
 677 709 l 1,11,-1
 225 -20 l 1,12,-1
 167 -20 l 1,13,-1
 619 709 l 1,10,-1
696 372 m 0,14,15
 670 372 670 372 652 363 c 128,-1,16
 634 354 634 354 625.5 338 c 128,-1,17
 617 322 617 322 613.5 307.5 c 128,-1,18
 610 293 610 293 609 273 c 1,19,-1
 547 273 l 1,20,21
 551 425 551 425 698 425 c 0,22,23
 762 425 762 425 803 390 c 128,-1,24
 844 355 844 355 844 299 c 0,25,26
 844 217 844 217 748 170 c 2,27,-1
 685 138 l 2,28,29
 652 121 652 121 636.5 103.5 c 128,-1,30
 621 86 621 86 612 58 c 1,31,-1
 841 58 l 1,32,-1
 841 0 l 1,33,-1
 537 0 l 1,34,35
 541 73 541 73 566.5 111 c 128,-1,36
 592 149 592 149 664 187 c 2,37,-1
 722 218 l 2,38,39
 781 250 781 250 781 297 c 0,40,41
 781 329 781 329 756.5 350.5 c 128,-1,42
 732 372 732 372 696 372 c 0,14,15
EndSplineSet
Validated: 1
Layer: 2
EndChar

StartChar: threequarters
Encoding: 190 190 127
Width: 869
GlyphClass: 2
Flags: W
LayerCount: 3
Back
Fore
SplineSet
169 656 m 0,0,1
 123 656 123 656 105.5 633.5 c 128,-1,2
 88 611 88 611 88 567 c 1,3,-1
 25 567 l 1,4,5
 28 709 28 709 169 709 c 0,6,7
 233 709 233 709 270.5 677 c 128,-1,8
 308 645 308 645 308 589 c 0,9,10
 308 530 308 530 251 504 c 1,11,12
 322 480 322 480 322 404 c 0,13,14
 322 343 322 343 279.5 306.5 c 128,-1,15
 237 270 237 270 167 270 c 0,16,17
 95 270 95 270 55.5 307 c 128,-1,18
 16 344 16 344 16 412 c 1,19,-1
 78 412 l 1,20,21
 80 366 80 366 102 344.5 c 128,-1,22
 124 323 124 323 169 323 c 0,23,24
 211 323 211 323 235 344.5 c 128,-1,25
 259 366 259 366 259 404 c 0,26,27
 259 431 259 431 243 450.5 c 128,-1,28
 227 470 227 470 201 474 c 0,29,30
 186 476 186 476 135 476 c 1,31,-1
 135 527 l 1,32,33
 199 527 199 527 222 540 c 128,-1,34
 245 553 245 553 245 588 c 0,35,36
 245 620 245 620 224.5 638 c 128,-1,37
 204 656 204 656 169 656 c 0,0,1
653 709 m 1,38,-1
 711 709 l 1,39,-1
 259 -20 l 1,40,-1
 201 -20 l 1,41,-1
 653 709 l 1,38,-1
720 100 m 1,42,-1
 532 100 l 1,43,-1
 532 159 l 1,44,-1
 736 425 l 1,45,-1
 782 425 l 1,46,-1
 782 153 l 1,47,-1
 849 153 l 1,48,-1
 849 100 l 1,49,-1
 782 100 l 1,50,-1
 782 0 l 1,51,-1
 720 0 l 1,52,-1
 720 100 l 1,42,-1
720 153 m 1,53,-1
 720 323 l 1,54,-1
 591 153 l 1,55,-1
 720 153 l 1,53,-1
EndSplineSet
Validated: 1
Layer: 2
EndChar

StartChar: AE
Encoding: 198 198 129
Width: 1000
GlyphClass: 2
Flags: W
LayerCount: 3
Back
Fore
SplineSet
468 214 m 1,0,-1
 199 214 l 1,1,-1
 114 0 l 1,2,-1
 11 0 l 1,3,-1
 310 729 l 1,4,-1
 932 729 l 1,5,-1
 932 647 l 1,6,-1
 561 647 l 1,7,-1
 561 414 l 1,8,-1
 913 414 l 1,9,-1
 913 332 l 1,10,-1
 561 332 l 1,11,-1
 561 82 l 1,12,-1
 950 82 l 1,13,-1
 950 0 l 1,14,-1
 468 0 l 1,15,-1
 468 214 l 1,0,-1
468 296 m 1,16,-1
 468 647 l 1,17,-1
 368 647 l 1,18,-1
 230 296 l 1,19,-1
 468 296 l 1,16,-1
EndSplineSet
Validated: 1
Layer: 2
EndChar

StartChar: Ccedilla
Encoding: 199 199 130
Width: 722
GlyphClass: 2
Flags: W
LayerCount: 3
Back
Fore
SplineSet
378 58 m 0,0,1
 468 58 468 58 515.5 108 c 128,-1,2
 563 158 563 158 581 266 c 1,3,-1
 677 266 l 1,4,5
 644 -23 644 -23 379 -23 c 1,6,-1
 366 -56 l 1,7,8
 379 -54 379 -54 394 -54 c 0,9,10
 432 -54 432 -54 452.5 -71.5 c 128,-1,11
 473 -89 473 -89 473 -121 c 0,12,13
 473 -164 473 -164 440 -189 c 128,-1,14
 407 -214 407 -214 350 -214 c 0,15,16
 302 -214 302 -214 225 -180 c 1,17,-1
 246 -140 l 1,18,19
 265 -150 265 -150 292 -161.5 c 128,-1,20
 319 -173 319 -173 344 -173 c 0,21,22
 367 -173 367 -173 382.5 -160 c 128,-1,23
 398 -147 398 -147 398 -128 c 0,24,25
 398 -91 398 -91 352 -91 c 0,26,27
 337 -91 337 -91 321 -99 c 1,28,-1
 310 -92 l 1,29,-1
 341 -23 l 1,30,31
 285 -15 285 -15 255 -4.5 c 128,-1,32
 225 6 225 6 192 29 c 0,33,34
 124 78 124 78 86 164 c 128,-1,35
 48 250 48 250 48 356 c 0,36,37
 48 406 48 406 56.5 455 c 128,-1,38
 65 504 65 504 89 557 c 128,-1,39
 113 610 113 610 148.5 649.5 c 128,-1,40
 184 689 184 689 244.5 715 c 128,-1,41
 305 741 305 741 381 741 c 0,42,43
 619 741 619 741 662 503 c 1,44,-1
 567 503 l 1,45,46
 551 580 551 580 505 619.5 c 128,-1,47
 459 659 459 659 371 659 c 0,48,49
 264 659 264 659 202.5 578 c 128,-1,50
 141 497 141 497 141 357 c 0,51,52
 141 220 141 220 205 139 c 128,-1,53
 269 58 269 58 378 58 c 0,0,1
EndSplineSet
Validated: 1
Layer: 2
EndChar

StartChar: Egrave
Encoding: 200 200 131
Width: 667
GlyphClass: 2
Flags: W
LayerCount: 3
Back
Fore
SplineSet
320 939 m 1,0,-1
 416 791 l 1,1,-1
 356 791 l 1,2,-1
 207 939 l 1,3,-1
 320 939 l 1,0,-1
183 332 m 1,4,-1
 183 82 l 1,5,-1
 613 82 l 1,6,-1
 613 0 l 1,7,-1
 90 0 l 1,8,-1
 90 729 l 1,9,-1
 595 729 l 1,10,-1
 595 647 l 1,11,-1
 183 647 l 1,12,-1
 183 414 l 1,13,-1
 580 414 l 1,14,-1
 580 332 l 1,15,-1
 183 332 l 1,4,-1
EndSplineSet
Validated: 1
Layer: 2
EndChar

StartChar: Eacute
Encoding: 201 201 132
Width: 667
GlyphClass: 2
Flags: W
LayerCount: 3
Back
Fore
SplineSet
366 939 m 1,0,-1
 479 939 l 1,1,-1
 330 791 l 1,2,-1
 270 791 l 1,3,-1
 366 939 l 1,0,-1
183 332 m 1,4,-1
 183 82 l 1,5,-1
 613 82 l 1,6,-1
 613 0 l 1,7,-1
 90 0 l 1,8,-1
 90 729 l 1,9,-1
 595 729 l 1,10,-1
 595 647 l 1,11,-1
 183 647 l 1,12,-1
 183 414 l 1,13,-1
 580 414 l 1,14,-1
 580 332 l 1,15,-1
 183 332 l 1,4,-1
EndSplineSet
Validated: 1
Layer: 2
EndChar

StartChar: Igrave
Encoding: 204 204 135
Width: 278
GlyphClass: 2
Flags: W
LayerCount: 3
Back
Fore
SplineSet
113 939 m 1,0,-1
 209 791 l 1,1,-1
 149 791 l 1,2,-1
 0 939 l 1,3,-1
 113 939 l 1,0,-1
194 729 m 1,4,-1
 194 0 l 1,5,-1
 100 0 l 1,6,-1
 100 729 l 1,7,-1
 194 729 l 1,4,-1
EndSplineSet
Validated: 1
Layer: 2
EndChar

StartChar: Iacute
Encoding: 205 205 136
Width: 278
GlyphClass: 2
Flags: W
LayerCount: 3
Back
Fore
SplineSet
167 939 m 1,0,-1
 280 939 l 1,1,-1
 131 791 l 1,2,-1
 71 791 l 1,3,-1
 167 939 l 1,0,-1
194 729 m 1,4,-1
 194 0 l 1,5,-1
 100 0 l 1,6,-1
 100 729 l 1,7,-1
 194 729 l 1,4,-1
EndSplineSet
Validated: 1
Layer: 2
EndChar

StartChar: Eth
Encoding: 208 208 139
Width: 722
GlyphClass: 2
Flags: W
LayerCount: 3
Back
Fore
SplineSet
89 339 m 1,0,-1
 20 339 l 1,1,-1
 20 406 l 1,2,-1
 89 406 l 1,3,-1
 89 729 l 1,4,-1
 371 729 l 2,5,6
 509 729 509 729 588 632 c 128,-1,7
 667 535 667 535 667 365 c 128,-1,8
 667 195 667 195 588 97.5 c 128,-1,9
 509 0 509 0 371 0 c 2,10,-1
 89 0 l 1,11,-1
 89 339 l 1,0,-1
182 339 m 1,12,-1
 182 82 l 1,13,-1
 355 82 l 2,14,15
 462 82 462 82 518 154 c 128,-1,16
 574 226 574 226 574 365 c 128,-1,17
 574 504 574 504 518 575.5 c 128,-1,18
 462 647 462 647 355 647 c 2,19,-1
 182 647 l 1,20,-1
 182 406 l 1,21,-1
 353 406 l 1,22,-1
 353 339 l 1,23,-1
 182 339 l 1,12,-1
EndSplineSet
Validated: 1
Layer: 2
EndChar

StartChar: Ograve
Encoding: 210 210 141
Width: 778
GlyphClass: 2
Flags: W
LayerCount: 3
Back
Fore
SplineSet
359 939 m 1,0,-1
 455 791 l 1,1,-1
 395 791 l 1,2,-1
 246 939 l 1,3,-1
 359 939 l 1,0,-1
742 353 m 0,4,5
 742 191 742 191 646 84 c 128,-1,6
 550 -23 550 -23 390 -23 c 0,7,8
 232 -23 232 -23 135 82.5 c 128,-1,9
 38 188 38 188 38 359 c 128,-1,10
 38 530 38 530 135 635.5 c 128,-1,11
 232 741 232 741 389 741 c 0,12,13
 549 741 549 741 645.5 635 c 128,-1,14
 742 529 742 529 742 353 c 0,4,5
389 659 m 0,15,16
 273 659 273 659 202 576.5 c 128,-1,17
 131 494 131 494 131 359 c 128,-1,18
 131 224 131 224 202.5 141.5 c 128,-1,19
 274 59 274 59 390 59 c 128,-1,20
 506 59 506 59 577.5 141 c 128,-1,21
 649 223 649 223 649 355 c 0,22,23
 649 493 649 493 578 576 c 128,-1,24
 507 659 507 659 389 659 c 0,15,16
EndSplineSet
Validated: 1
Layer: 2
EndChar

StartChar: Oacute
Encoding: 211 211 142
Width: 778
GlyphClass: 2
Flags: W
LayerCount: 3
Back
Fore
SplineSet
417 939 m 1,0,-1
 530 939 l 1,1,-1
 381 791 l 1,2,-1
 321 791 l 1,3,-1
 417 939 l 1,0,-1
742 353 m 0,4,5
 742 191 742 191 646 84 c 128,-1,6
 550 -23 550 -23 390 -23 c 0,7,8
 232 -23 232 -23 135 82.5 c 128,-1,9
 38 188 38 188 38 359 c 128,-1,10
 38 530 38 530 135 635.5 c 128,-1,11
 232 741 232 741 389 741 c 0,12,13
 549 741 549 741 645.5 635 c 128,-1,14
 742 529 742 529 742 353 c 0,4,5
389 659 m 0,15,16
 273 659 273 659 202 576.5 c 128,-1,17
 131 494 131 494 131 359 c 128,-1,18
 131 224 131 224 202.5 141.5 c 128,-1,19
 274 59 274 59 390 59 c 128,-1,20
 506 59 506 59 577.5 141 c 128,-1,21
 649 223 649 223 649 355 c 0,22,23
 649 493 649 493 578 576 c 128,-1,24
 507 659 507 659 389 659 c 0,15,16
EndSplineSet
Validated: 1
Layer: 2
EndChar

StartChar: multiply
Encoding: 215 215 146
Width: 584
GlyphClass: 2
Flags: W
LayerCount: 3
Back
Fore
SplineSet
438 427 m 1,0,-1
 487 377 l 1,1,-1
 341 231 l 1,2,-1
 488 84 l 1,3,-1
 438 34 l 1,4,-1
 291 181 l 1,5,-1
 145 35 l 1,6,-1
 95 84 l 1,7,-1
 242 231 l 1,8,-1
 96 377 l 1,9,-1
 145 426 l 1,10,-1
 291 281 l 1,11,-1
 438 427 l 1,0,-1
EndSplineSet
Validated: 1
Layer: 2
EndChar

StartChar: Oslash
Encoding: 216 216 147
Width: 778
GlyphClass: 2
Flags: W
LayerCount: 3
Back
Fore
SplineSet
30 19 m 1,0,-1
 111 108 l 1,1,2
 35 214 35 214 35 360 c 0,3,4
 35 530 35 530 132.5 635.5 c 128,-1,5
 230 741 230 741 387 741 c 0,6,7
 524 741 524 741 617 660 c 1,8,-1
 704 755 l 1,9,-1
 744 719 l 1,10,-1
 655 622 l 1,11,12
 739 516 739 516 739 358 c 0,13,14
 739 188 739 188 641.5 82.5 c 128,-1,15
 544 -23 544 -23 387 -23 c 0,16,17
 243 -23 243 -23 146 67 c 1,18,-1
 69 -17 l 1,19,-1
 30 19 l 1,0,-1
174 176 m 1,20,-1
 558 595 l 1,21,22
 485 659 485 659 387 659 c 0,23,24
 271 659 271 659 199.5 576.5 c 128,-1,25
 128 494 128 494 128 360 c 0,26,27
 128 256 128 256 174 176 c 1,20,-1
593 554 m 1,28,-1
 206 133 l 1,29,30
 280 59 280 59 387 59 c 0,31,32
 503 59 503 59 574.5 141.5 c 128,-1,33
 646 224 646 224 646 358 c 0,34,35
 646 472 646 472 593 554 c 1,28,-1
EndSplineSet
Validated: 1
Layer: 2
EndChar

StartChar: Ugrave
Encoding: 217 217 148
Width: 722
GlyphClass: 2
Flags: W
LayerCount: 3
Back
Fore
SplineSet
334 939 m 1,0,-1
 430 791 l 1,1,-1
 370 791 l 1,2,-1
 221 939 l 1,3,-1
 334 939 l 1,0,-1
552 729 m 1,4,-1
 645 729 l 1,5,-1
 645 217 l 2,6,7
 645 107 645 107 568.5 42 c 128,-1,8
 492 -23 492 -23 364 -23 c 0,9,10
 234 -23 234 -23 159.5 41.5 c 128,-1,11
 85 106 85 106 85 217 c 2,12,-1
 85 729 l 1,13,-1
 178 729 l 1,14,-1
 178 217 l 2,15,16
 178 138 178 138 228.5 98.5 c 128,-1,17
 279 59 279 59 364 59 c 0,18,19
 452 59 452 59 502 101 c 128,-1,20
 552 143 552 143 552 217 c 2,21,-1
 552 729 l 1,4,-1
EndSplineSet
Validated: 1
Layer: 2
EndChar

StartChar: Uacute
Encoding: 218 218 149
Width: 722
GlyphClass: 2
Flags: W
LayerCount: 3
Back
Fore
SplineSet
387 939 m 5,0,-1
 500 939 l 5,1,-1
 351 791 l 5,2,-1
 291 791 l 5,3,-1
 387 939 l 5,0,-1
552 729 m 1,4,-1
 645 729 l 1,5,-1
 645 217 l 2,6,7
 645 107 645 107 568.5 42 c 128,-1,8
 492 -23 492 -23 364 -23 c 0,9,10
 234 -23 234 -23 159.5 41.5 c 128,-1,11
 85 106 85 106 85 217 c 2,12,-1
 85 729 l 1,13,-1
 178 729 l 1,14,-1
 178 217 l 2,15,16
 178 138 178 138 228.5 98.5 c 128,-1,17
 279 59 279 59 364 59 c 0,18,19
 452 59 452 59 502 101 c 128,-1,20
 552 143 552 143 552 217 c 2,21,-1
 552 729 l 1,4,-1
EndSplineSet
Validated: 1
Layer: 2
EndChar

StartChar: Yacute
Encoding: 221 221 152
Width: 667
GlyphClass: 2
Flags: W
LayerCount: 3
Back
Fore
SplineSet
365 939 m 1,0,-1
 478 939 l 1,1,-1
 329 791 l 1,2,-1
 269 791 l 1,3,-1
 365 939 l 1,0,-1
387 286 m 1,4,-1
 387 0 l 1,5,-1
 294 0 l 1,6,-1
 294 286 l 1,7,-1
 13 729 l 1,8,-1
 128 729 l 1,9,-1
 342 374 l 1,10,-1
 550 729 l 1,11,-1
 661 729 l 1,12,-1
 387 286 l 1,4,-1
EndSplineSet
Validated: 1
Layer: 2
EndChar

StartChar: Thorn
Encoding: 222 222 153
Width: 666
GlyphClass: 2
Flags: W
LayerCount: 3
Back
Fore
SplineSet
184 189 m 1,0,-1
 184 0 l 1,1,-1
 91 0 l 1,2,-1
 91 729 l 1,3,-1
 184 729 l 1,4,-1
 184 609 l 1,5,-1
 392 609 l 2,6,7
 496 609 496 609 556 552.5 c 128,-1,8
 616 496 616 496 616 397 c 0,9,10
 616 306 616 306 559 247.5 c 128,-1,11
 502 189 502 189 413 189 c 2,12,-1
 184 189 l 1,0,-1
184 271 m 1,13,-1
 378 271 l 2,14,15
 443 271 443 271 479.5 305 c 128,-1,16
 516 339 516 339 516 399 c 128,-1,17
 516 459 516 459 479.5 493 c 128,-1,18
 443 527 443 527 378 527 c 2,19,-1
 184 527 l 1,20,-1
 184 271 l 1,13,-1
EndSplineSet
Validated: 1
Layer: 2
EndChar

StartChar: germandbls
Encoding: 223 223 154
Width: 611
GlyphClass: 2
Flags: W
LayerCount: 3
Back
Fore
SplineSet
294 427 m 1,0,1
 449 427 449 427 449 540 c 0,2,3
 449 591 449 591 409.5 621.5 c 128,-1,4
 370 652 370 652 297 652 c 0,5,6
 217 652 217 652 186 616 c 128,-1,7
 155 580 155 580 155 510 c 2,8,-1
 155 0 l 1,9,-1
 67 0 l 1,10,-1
 67 532 l 2,11,12
 67 621 67 621 127.5 674.5 c 128,-1,13
 188 728 188 728 298 728 c 128,-1,14
 408 728 408 728 472.5 679 c 128,-1,15
 537 630 537 630 537 548 c 0,16,17
 537 514 537 514 528.5 487 c 128,-1,18
 520 460 520 460 503.5 442 c 128,-1,19
 487 424 487 424 478.5 417 c 128,-1,20
 470 410 470 410 455 400 c 1,21,22
 507 386 507 386 539 335 c 128,-1,23
 571 284 571 284 571 234 c 0,24,25
 571 107 571 107 502 46 c 128,-1,26
 433 -15 433 -15 319 -15 c 0,27,28
 299 -15 299 -15 266 -8 c 1,29,-1
 266 67 l 1,30,31
 288 64 288 64 310 64 c 0,32,33
 480 64 480 64 480 214 c 0,34,35
 480 354 480 354 310 354 c 2,36,-1
 294 354 l 1,37,-1
 294 427 l 1,0,1
EndSplineSet
Validated: 1
Layer: 2
EndChar

StartChar: agrave
Encoding: 224 224 155
Width: 556
GlyphClass: 2
Flags: W
LayerCount: 3
Back
Fore
SplineSet
250 740 m 1,0,-1
 346 592 l 1,1,-1
 286 592 l 1,2,-1
 137 740 l 1,3,-1
 250 740 l 1,0,-1
492 524 m 1,4,-1
 495 0 l 1,5,-1
 421 0 l 1,6,-1
 421 69 l 1,7,8
 387 20 387 20 347.5 -1.5 c 128,-1,9
 308 -23 308 -23 254 -23 c 0,10,11
 148 -23 148 -23 87 53.5 c 128,-1,12
 26 130 26 130 26 263 c 0,13,14
 26 388 26 388 87.5 463.5 c 128,-1,15
 149 539 149 539 251 539 c 0,16,17
 359 539 359 539 412 458 c 1,18,-1
 409 524 l 1,19,-1
 492 524 l 1,4,-1
265 461 m 0,20,21
 197 461 197 461 155 405 c 128,-1,22
 113 349 113 349 113 258 c 0,23,24
 113 166 113 166 155 110.5 c 128,-1,25
 197 55 197 55 266 55 c 0,26,27
 332 55 332 55 372 110 c 128,-1,28
 412 165 412 165 412 256 c 0,29,30
 412 350 412 350 372 405.5 c 128,-1,31
 332 461 332 461 265 461 c 0,20,21
EndSplineSet
Validated: 1
Layer: 2
EndChar

StartChar: aacute
Encoding: 225 225 156
Width: 556
GlyphClass: 2
Flags: W
LayerCount: 3
Back
Fore
SplineSet
303 739 m 1,0,-1
 416 739 l 1,1,-1
 267 591 l 1,2,-1
 207 591 l 1,3,-1
 303 739 l 1,0,-1
492 524 m 1,4,-1
 495 0 l 1,5,-1
 421 0 l 1,6,-1
 421 69 l 1,7,8
 387 20 387 20 347.5 -1.5 c 128,-1,9
 308 -23 308 -23 254 -23 c 0,10,11
 148 -23 148 -23 87 53.5 c 128,-1,12
 26 130 26 130 26 263 c 0,13,14
 26 388 26 388 87.5 463.5 c 128,-1,15
 149 539 149 539 251 539 c 0,16,17
 359 539 359 539 412 458 c 1,18,-1
 409 524 l 1,19,-1
 492 524 l 1,4,-1
265 461 m 0,20,21
 197 461 197 461 155 405 c 128,-1,22
 113 349 113 349 113 258 c 0,23,24
 113 166 113 166 155 110.5 c 128,-1,25
 197 55 197 55 266 55 c 0,26,27
 332 55 332 55 372 110 c 128,-1,28
 412 165 412 165 412 256 c 0,29,30
 412 350 412 350 372 405.5 c 128,-1,31
 332 461 332 461 265 461 c 0,20,21
EndSplineSet
Validated: 1
Layer: 2
EndChar

StartChar: ae
Encoding: 230 230 161
Width: 889
GlyphClass: 2
Flags: W
LayerCount: 3
Back
Fore
SplineSet
459 234 m 1,0,1
 460 182 460 182 475 144.5 c 128,-1,2
 490 107 490 107 514 88.5 c 128,-1,3
 538 70 538 70 562.5 62 c 128,-1,4
 587 54 587 54 613 54 c 0,5,6
 714 54 714 54 751 159 c 1,7,-1
 835 159 l 1,8,9
 819 74 819 74 760 25.5 c 128,-1,10
 701 -23 701 -23 612 -23 c 0,11,12
 554 -23 554 -23 507 -1 c 128,-1,13
 460 21 460 21 434 60 c 0,14,15
 430 66 430 66 418 87 c 1,16,17
 362 29 362 29 311.5 3 c 128,-1,18
 261 -23 261 -23 202 -23 c 0,19,20
 126 -23 126 -23 80 19 c 128,-1,21
 34 61 34 61 34 132 c 0,22,23
 34 170 34 170 47 198.5 c 128,-1,24
 60 227 60 227 81 245 c 128,-1,25
 102 263 102 263 137 275 c 128,-1,26
 172 287 172 287 207.5 293 c 128,-1,27
 243 299 243 299 294 303 c 128,-1,28
 345 307 345 307 363 320 c 128,-1,29
 381 333 381 333 381 362 c 2,30,-1
 381 384 l 2,31,32
 381 462 381 462 263 462 c 0,33,34
 151 462 151 462 141 369 c 1,35,-1
 57 369 l 1,36,37
 63 539 63 539 265 539 c 0,38,39
 393 539 393 539 440 457 c 1,40,41
 467 495 467 495 513 517 c 128,-1,42
 559 539 559 539 613 539 c 0,43,44
 686 539 686 539 742 502 c 128,-1,45
 798 465 798 465 824 401 c 0,46,47
 845 346 845 346 845 234 c 1,48,-1
 459 234 l 1,0,1
221 50 m 0,49,50
 291 50 291 50 336 90.5 c 128,-1,51
 381 131 381 131 381 157 c 2,52,-1
 381 258 l 1,53,54
 351 245 351 245 299.5 236.5 c 128,-1,55
 248 228 248 228 212.5 223 c 128,-1,56
 177 218 177 218 149 196 c 128,-1,57
 121 174 121 174 121 134 c 0,58,59
 121 95 121 95 148 72.5 c 128,-1,60
 175 50 175 50 221 50 c 0,49,50
461 302 m 1,61,-1
 755 302 l 1,62,63
 755 373 755 373 715 417.5 c 128,-1,64
 675 462 675 462 611 462 c 0,65,66
 548 462 548 462 507 418.5 c 128,-1,67
 466 375 466 375 461 302 c 1,61,-1
EndSplineSet
Validated: 1
Layer: 2
EndChar

StartChar: ccedilla
Encoding: 231 231 162
Width: 500
GlyphClass: 2
Flags: W
LayerCount: 3
Back
Fore
SplineSet
225 -21 m 1,0,1
 172 -11 172 -11 133 17 c 128,-1,2
 94 45 94 45 75 75.5 c 128,-1,3
 56 106 56 106 45.5 146 c 128,-1,4
 35 186 35 186 33 208 c 128,-1,5
 31 230 31 230 31 253 c 0,6,7
 31 383 31 383 94.5 461 c 128,-1,8
 158 539 158 539 264 539 c 0,9,10
 355 539 355 539 409.5 490 c 128,-1,11
 464 441 464 441 471 348 c 1,12,-1
 387 348 l 1,13,14
 379 403 379 403 347 432.5 c 128,-1,15
 315 462 315 462 263 462 c 0,16,17
 195 462 195 462 156.5 406.5 c 128,-1,18
 118 351 118 351 118 252 c 0,19,20
 118 159 118 159 157 106 c 128,-1,21
 196 53 196 53 265 53 c 0,22,23
 372 53 372 53 393 180 c 1,24,-1
 477 180 l 1,25,26
 472 86 472 86 414 31.5 c 128,-1,27
 356 -23 356 -23 264 -23 c 1,28,-1
 251 -56 l 1,29,30
 265 -54 265 -54 279 -54 c 0,31,32
 316 -54 316 -54 337 -71.5 c 128,-1,33
 358 -89 358 -89 358 -121 c 0,34,35
 358 -164 358 -164 325 -189 c 128,-1,36
 292 -214 292 -214 235 -214 c 0,37,38
 188 -214 188 -214 110 -181 c 1,39,-1
 131 -140 l 1,40,41
 150 -150 150 -150 177 -161.5 c 128,-1,42
 204 -173 204 -173 229 -173 c 0,43,44
 252 -173 252 -173 267.5 -160 c 128,-1,45
 283 -147 283 -147 283 -128 c 0,46,47
 283 -91 283 -91 237 -91 c 0,48,49
 222 -91 222 -91 206 -99 c 1,50,-1
 194 -92 l 1,51,-1
 225 -21 l 1,0,1
EndSplineSet
Validated: 1
Layer: 2
EndChar

StartChar: egrave
Encoding: 232 232 163
Width: 556
GlyphClass: 2
Flags: W
LayerCount: 3
Back
Fore
SplineSet
253 740 m 1,0,-1
 349 592 l 1,1,-1
 289 592 l 1,2,-1
 140 740 l 1,3,-1
 253 740 l 1,0,-1
513 234 m 1,4,-1
 127 234 l 1,5,6
 128 162 128 162 155 122 c 0,7,8
 198 54 198 54 281 54 c 0,9,10
 383 54 383 54 418 159 c 1,11,-1
 502 159 l 1,12,13
 486 73 486 73 427 25 c 128,-1,14
 368 -23 368 -23 278 -23 c 0,15,16
 168 -23 168 -23 104 51.5 c 128,-1,17
 40 126 40 126 40 255 c 128,-1,18
 40 384 40 384 105.5 461.5 c 128,-1,19
 171 539 171 539 280 539 c 0,20,21
 354 539 354 539 410.5 502 c 128,-1,22
 467 465 467 465 492 401 c 0,23,24
 513 346 513 346 513 234 c 1,4,-1
129 302 m 1,25,-1
 423 302 l 2,26,27
 424 304 424 304 424 308 c 0,28,29
 424 373 424 373 382 417.5 c 128,-1,30
 340 462 340 462 279 462 c 0,31,32
 216 462 216 462 175 418.5 c 128,-1,33
 134 375 134 375 129 302 c 1,25,-1
EndSplineSet
Validated: 1
Layer: 2
EndChar

StartChar: eacute
Encoding: 233 233 164
Width: 556
GlyphClass: 2
Flags: W
LayerCount: 3
Back
Fore
SplineSet
308 739 m 1,0,-1
 421 739 l 1,1,-1
 272 591 l 1,2,-1
 212 591 l 1,3,-1
 308 739 l 1,0,-1
513 234 m 1,4,-1
 127 234 l 1,5,6
 128 162 128 162 155 122 c 0,7,8
 198 54 198 54 281 54 c 0,9,10
 383 54 383 54 418 159 c 1,11,-1
 502 159 l 1,12,13
 486 73 486 73 427 25 c 128,-1,14
 368 -23 368 -23 278 -23 c 0,15,16
 168 -23 168 -23 104 51.5 c 128,-1,17
 40 126 40 126 40 255 c 128,-1,18
 40 384 40 384 105.5 461.5 c 128,-1,19
 171 539 171 539 280 539 c 0,20,21
 354 539 354 539 410.5 502 c 128,-1,22
 467 465 467 465 492 401 c 0,23,24
 513 346 513 346 513 234 c 1,4,-1
129 302 m 1,25,-1
 423 302 l 2,26,27
 424 304 424 304 424 308 c 0,28,29
 424 373 424 373 382 417.5 c 128,-1,30
 340 462 340 462 279 462 c 0,31,32
 216 462 216 462 175 418.5 c 128,-1,33
 134 375 134 375 129 302 c 1,25,-1
EndSplineSet
Validated: 1
Layer: 2
EndChar

StartChar: igrave
Encoding: 236 236 167
Width: 278
GlyphClass: 2
Flags: W
LayerCount: 3
Back
Fore
SplineSet
109 738 m 1,0,-1
 205 590 l 1,1,-1
 145 590 l 1,2,-1
 -4 738 l 1,3,-1
 109 738 l 1,0,-1
177 524 m 1,4,-1
 177 0 l 1,5,-1
 94 0 l 1,6,-1
 94 524 l 1,7,-1
 177 524 l 1,4,-1
EndSplineSet
Validated: 1
Layer: 2
EndChar

StartChar: iacute
Encoding: 237 237 168
Width: 278
GlyphClass: 2
Flags: W
LayerCount: 3
Back
Fore
SplineSet
161 739 m 1,0,-1
 274 739 l 1,1,-1
 125 591 l 1,2,-1
 65 591 l 1,3,-1
 161 739 l 1,0,-1
177 524 m 1,4,-1
 177 0 l 1,5,-1
 94 0 l 1,6,-1
 94 524 l 1,7,-1
 177 524 l 1,4,-1
EndSplineSet
Validated: 1
Layer: 2
EndChar

StartChar: eth
Encoding: 240 240 171
Width: 556
GlyphClass: 2
Flags: W
LayerCount: 3
Back
Fore
SplineSet
36 258 m 0,0,1
 36 322 36 322 50.5 372.5 c 128,-1,2
 65 423 65 423 87.5 453 c 128,-1,3
 110 483 110 483 140 502.5 c 128,-1,4
 170 522 170 522 198 529.5 c 128,-1,5
 226 537 226 537 254 537 c 0,6,7
 278 537 278 537 317 524 c 1,8,9
 278 564 278 564 219 613 c 1,10,-1
 122 568 l 1,11,-1
 86 607 l 1,12,-1
 171 647 l 1,13,14
 141 670 141 670 89 699 c 1,15,-1
 133 743 l 1,16,17
 170 727 170 727 244 680 c 1,18,-1
 341 725 l 1,19,-1
 381 688 l 1,20,-1
 291 647 l 1,21,22
 321 624 321 624 342 606.5 c 128,-1,23
 363 589 363 589 398 550.5 c 128,-1,24
 433 512 433 512 454.5 474 c 128,-1,25
 476 436 476 436 493 378.5 c 128,-1,26
 510 321 510 321 510 259 c 0,27,28
 510 124 510 124 448 50.5 c 128,-1,29
 386 -23 386 -23 273 -23 c 128,-1,30
 160 -23 160 -23 98 50.5 c 128,-1,31
 36 124 36 124 36 258 c 0,0,1
273 462 m 0,32,33
 203 462 203 462 163 407.5 c 128,-1,34
 123 353 123 353 123 258 c 128,-1,35
 123 163 123 163 163 108.5 c 128,-1,36
 203 54 203 54 273 54 c 0,37,38
 342 54 342 54 382.5 108.5 c 128,-1,39
 423 163 423 163 423 255 c 0,40,41
 423 352 423 352 383.5 407 c 128,-1,42
 344 462 344 462 273 462 c 0,32,33
EndSplineSet
Validated: 1
Layer: 2
EndChar

StartChar: ograve
Encoding: 242 242 173
Width: 556
GlyphClass: 2
Flags: W
LayerCount: 3
Back
Fore
SplineSet
244 741 m 1,0,-1
 340 593 l 1,1,-1
 280 593 l 1,2,-1
 131 741 l 1,3,-1
 244 741 l 1,0,-1
272 539 m 0,4,5
 385 539 385 539 447.5 464.5 c 128,-1,6
 510 390 510 390 510 254 c 0,7,8
 510 125 510 125 446.5 51 c 128,-1,9
 383 -23 383 -23 273 -23 c 0,10,11
 161 -23 161 -23 98.5 51.5 c 128,-1,12
 36 126 36 126 36 258 c 128,-1,13
 36 390 36 390 99 464.5 c 128,-1,14
 162 539 162 539 272 539 c 0,4,5
273 462 m 0,15,16
 203 462 203 462 163 407.5 c 128,-1,17
 123 353 123 353 123 258 c 128,-1,18
 123 163 123 163 163 108.5 c 128,-1,19
 203 54 203 54 273 54 c 0,20,21
 342 54 342 54 382.5 108.5 c 128,-1,22
 423 163 423 163 423 255 c 0,23,24
 423 352 423 352 383.5 407 c 128,-1,25
 344 462 344 462 273 462 c 0,15,16
EndSplineSet
Validated: 1
Layer: 2
EndChar

StartChar: oacute
Encoding: 243 243 174
Width: 556
GlyphClass: 2
Flags: W
LayerCount: 3
Back
Fore
SplineSet
298 740 m 1,0,-1
 411 740 l 1,1,-1
 262 592 l 1,2,-1
 202 592 l 1,3,-1
 298 740 l 1,0,-1
272 539 m 0,4,5
 385 539 385 539 447.5 464.5 c 128,-1,6
 510 390 510 390 510 254 c 0,7,8
 510 125 510 125 446.5 51 c 128,-1,9
 383 -23 383 -23 273 -23 c 0,10,11
 161 -23 161 -23 98.5 51.5 c 128,-1,12
 36 126 36 126 36 258 c 128,-1,13
 36 390 36 390 99 464.5 c 128,-1,14
 162 539 162 539 272 539 c 0,4,5
273 462 m 0,15,16
 203 462 203 462 163 407.5 c 128,-1,17
 123 353 123 353 123 258 c 128,-1,18
 123 163 123 163 163 108.5 c 128,-1,19
 203 54 203 54 273 54 c 0,20,21
 342 54 342 54 382.5 108.5 c 128,-1,22
 423 163 423 163 423 255 c 0,23,24
 423 352 423 352 383.5 407 c 128,-1,25
 344 462 344 462 273 462 c 0,15,16
EndSplineSet
Validated: 1
Layer: 2
EndChar

StartChar: divide
Encoding: 247 247 178
Width: 584
GlyphClass: 2
Flags: W
LayerCount: 3
Back
Fore
SplineSet
534 271 m 1,0,-1
 534 201 l 1,1,-1
 50 201 l 1,2,-1
 50 271 l 1,3,-1
 534 271 l 1,0,-1
344 104 m 1,4,-1
 344 0 l 1,5,-1
 240 0 l 1,6,-1
 240 104 l 1,7,-1
 344 104 l 1,4,-1
344 472 m 1,8,-1
 344 368 l 1,9,-1
 240 368 l 1,10,-1
 240 472 l 1,11,-1
 344 472 l 1,8,-1
EndSplineSet
Validated: 1
Layer: 2
EndChar

StartChar: oslash
Encoding: 248 248 179
Width: 611
GlyphClass: 2
Flags: W
LayerCount: 3
Back
Fore
SplineSet
529 511 m 1,0,-1
 466 440 l 1,1,2
 510 367 510 367 510 258 c 0,3,4
 510 126 510 126 447.5 51.5 c 128,-1,5
 385 -23 385 -23 274 -23 c 0,6,7
 171 -23 171 -23 111 39 c 1,8,-1
 50 -30 l 1,9,-1
 18 -2 l 1,10,-1
 84 72 l 1,11,12
 36 143 36 143 36 258 c 0,13,14
 36 390 36 390 99 464.5 c 128,-1,15
 162 539 162 539 273 539 c 0,16,17
 374 539 374 539 439 474 c 1,18,-1
 497 539 l 1,19,-1
 529 511 l 1,0,-1
405 371 m 1,20,-1
 167 102 l 1,21,22
 210 54 210 54 273 54 c 0,23,24
 343 54 343 54 383 108.5 c 128,-1,25
 423 163 423 163 423 258 c 0,26,27
 423 324 423 324 405 371 c 1,20,-1
144 141 m 1,28,-1
 383 410 l 1,29,30
 342 462 342 462 273 462 c 0,31,32
 203 462 203 462 163 407.5 c 128,-1,33
 123 353 123 353 123 258 c 0,34,35
 123 190 123 190 144 141 c 1,28,-1
EndSplineSet
Validated: 1
Layer: 2
EndChar

StartChar: ugrave
Encoding: 249 249 180
Width: 556
GlyphClass: 2
Flags: W
LayerCount: 3
Back
Fore
SplineSet
243 739 m 1,0,-1
 339 591 l 1,1,-1
 279 591 l 1,2,-1
 130 739 l 1,3,-1
 243 739 l 1,0,-1
482 0 m 1,4,-1
 407 0 l 1,5,-1
 407 73 l 1,6,7
 370 21 370 21 330 -1 c 128,-1,8
 290 -23 290 -23 232 -23 c 0,9,10
 156 -23 156 -23 110.5 16 c 128,-1,11
 65 55 65 55 65 120 c 2,12,-1
 65 524 l 1,13,-1
 148 524 l 1,14,-1
 148 153 l 2,15,16
 148 106 148 106 177 78 c 128,-1,17
 206 50 206 50 256 50 c 0,18,19
 321 50 321 50 360 98.5 c 128,-1,20
 399 147 399 147 399 227 c 2,21,-1
 399 524 l 1,22,-1
 482 524 l 1,23,-1
 482 0 l 1,4,-1
EndSplineSet
Validated: 1
Layer: 2
EndChar

StartChar: uacute
Encoding: 250 250 181
Width: 556
GlyphClass: 2
Flags: W
LayerCount: 3
Back
Fore
SplineSet
296 740 m 1,0,-1
 409 740 l 1,1,-1
 260 592 l 1,2,-1
 200 592 l 1,3,-1
 296 740 l 1,0,-1
482 0 m 1,4,-1
 407 0 l 1,5,-1
 407 73 l 1,6,7
 370 21 370 21 330 -1 c 128,-1,8
 290 -23 290 -23 232 -23 c 0,9,10
 156 -23 156 -23 110.5 16 c 128,-1,11
 65 55 65 55 65 120 c 2,12,-1
 65 524 l 1,13,-1
 148 524 l 1,14,-1
 148 153 l 2,15,16
 148 106 148 106 177 78 c 128,-1,17
 206 50 206 50 256 50 c 0,18,19
 321 50 321 50 360 98.5 c 128,-1,20
 399 147 399 147 399 227 c 2,21,-1
 399 524 l 1,22,-1
 482 524 l 1,23,-1
 482 0 l 1,4,-1
EndSplineSet
Validated: 1
Layer: 2
EndChar

StartChar: yacute
Encoding: 253 253 184
Width: 500
GlyphClass: 2
Flags: W
LayerCount: 3
Back
Fore
SplineSet
269 739 m 1,0,-1
 382 739 l 1,1,-1
 233 591 l 1,2,-1
 173 591 l 1,3,-1
 269 739 l 1,0,-1
388 524 m 1,4,-1
 478 524 l 1,5,-1
 245 -110 l 2,6,7
 204 -218 204 -218 110 -218 c 0,8,9
 79 -218 79 -218 54 -205 c 1,10,-1
 54 -130 l 1,11,12
 81 -136 81 -136 98 -136 c 0,13,14
 124 -136 124 -136 139 -124.5 c 128,-1,15
 154 -113 154 -113 165 -85 c 2,16,-1
 197 -2 l 1,17,-1
 20 524 l 1,18,-1
 109 524 l 1,19,-1
 243 116 l 1,20,-1
 388 524 l 1,4,-1
EndSplineSet
Validated: 1
Layer: 2
EndChar

StartChar: thorn
Encoding: 254 254 185
Width: 555
GlyphClass: 2
Flags: W
LayerCount: 3
Back
Fore
SplineSet
54 -218 m 1,0,-1
 54 714 l 1,1,-1
 137 714 l 1,2,-1
 137 459 l 1,3,4
 193 539 193 539 298 539 c 0,5,6
 400 539 400 539 461 461 c 128,-1,7
 522 383 522 383 522 253 c 0,8,9
 522 128 522 128 460.5 52.5 c 128,-1,10
 399 -23 399 -23 298 -23 c 0,11,12
 201 -23 201 -23 137 55 c 1,13,-1
 137 -218 l 1,14,-1
 54 -218 l 1,0,-1
283 461 m 0,15,16
 217 461 217 461 177 405.5 c 128,-1,17
 137 350 137 350 137 258 c 128,-1,18
 137 166 137 166 177 110.5 c 128,-1,19
 217 55 217 55 283 55 c 0,20,21
 351 55 351 55 393 110.5 c 128,-1,22
 435 166 435 166 435 255 c 0,23,24
 435 349 435 349 393.5 405 c 128,-1,25
 352 461 352 461 283 461 c 0,15,16
EndSplineSet
Validated: 1
Layer: 2
EndChar

StartChar: amacron
Encoding: 257 257 187
Width: 556
GlyphClass: 2
Flags: W
LayerCount: 3
Back
Fore
SplineSet
412 669 m 1,0,-1
 412 599 l 1,1,-1
 138 599 l 1,2,-1
 138 669 l 1,3,-1
 412 669 l 1,0,-1
492 524 m 1,4,-1
 495 0 l 1,5,-1
 421 0 l 1,6,-1
 421 69 l 1,7,8
 387 20 387 20 347.5 -1.5 c 128,-1,9
 308 -23 308 -23 254 -23 c 0,10,11
 148 -23 148 -23 87 53.5 c 128,-1,12
 26 130 26 130 26 263 c 0,13,14
 26 388 26 388 87.5 463.5 c 128,-1,15
 149 539 149 539 251 539 c 0,16,17
 359 539 359 539 412 458 c 1,18,-1
 409 524 l 1,19,-1
 492 524 l 1,4,-1
265 461 m 0,20,21
 197 461 197 461 155 405 c 128,-1,22
 113 349 113 349 113 258 c 0,23,24
 113 166 113 166 155 110.5 c 128,-1,25
 197 55 197 55 266 55 c 0,26,27
 332 55 332 55 372 110 c 128,-1,28
 412 165 412 165 412 256 c 0,29,30
 412 350 412 350 372 405.5 c 128,-1,31
 332 461 332 461 265 461 c 0,20,21
EndSplineSet
Validated: 1
Layer: 2
EndChar

StartChar: Aogonek
Encoding: 260 260 190
Width: 667
GlyphClass: 2
Flags: W
LayerCount: 3
Back
Fore
SplineSet
616 -205 m 0,0,1
 560 -205 560 -205 522 -179 c 128,-1,2
 484 -153 484 -153 484 -111 c 0,3,4
 484 -75 484 -75 509.5 -46 c 128,-1,5
 535 -17 535 -17 581 0 c 1,6,-1
 549 0 l 1,7,-1
 474 219 l 1,8,-1
 193 219 l 1,9,-1
 116 0 l 1,10,-1
 17 0 l 1,11,-1
 277 729 l 1,12,-1
 397 729 l 1,13,-1
 653 0 l 1,14,-1
 651 0 l 1,15,16
 596 -31 596 -31 576.5 -53 c 128,-1,17
 557 -75 557 -75 557 -106 c 0,18,19
 557 -160 557 -160 629 -160 c 0,20,21
 666 -160 666 -160 692 -150 c 1,22,-1
 692 -195 l 1,23,24
 644 -205 644 -205 616 -205 c 0,0,1
448 297 m 1,25,-1
 336 629 l 1,26,-1
 216 297 l 1,27,-1
 448 297 l 1,25,-1
EndSplineSet
Validated: 1
Layer: 2
EndChar

StartChar: aogonek
Encoding: 261 261 191
Width: 556
GlyphClass: 2
Flags: W
LayerCount: 3
Back
Fore
SplineSet
67 369 m 1,0,1
 73 539 73 539 276 539 c 0,2,3
 373 539 373 539 423 502.5 c 128,-1,4
 473 466 473 466 473 396 c 2,5,-1
 473 88 l 2,6,7
 473 47 473 47 518 47 c 0,8,9
 527 47 527 47 536 49 c 1,10,-1
 536 -14 l 1,11,12
 460 -44 460 -44 460 -105 c 0,13,14
 460 -160 460 -160 532 -160 c 0,15,16
 570 -160 570 -160 596 -150 c 1,17,-1
 596 -195 l 1,18,19
 554 -205 554 -205 525 -205 c 0,20,21
 495 -205 495 -205 466 -197 c 128,-1,22
 437 -189 437 -189 412.5 -167 c 128,-1,23
 388 -145 388 -145 388 -112 c 0,24,25
 388 -83 388 -83 403.5 -63 c 128,-1,26
 419 -43 419 -43 456 -23 c 1,27,28
 399 -13 399 -13 393 54 c 1,29,30
 312 -23 312 -23 215 -23 c 0,31,32
 136 -23 136 -23 89.5 19 c 128,-1,33
 43 61 43 61 43 132 c 0,34,35
 43 166 43 166 51.5 191.5 c 128,-1,36
 60 217 60 217 78.5 234 c 128,-1,37
 97 251 97 251 117 262.5 c 128,-1,38
 137 274 137 274 169 281.5 c 128,-1,39
 201 289 201 289 227.5 293.5 c 128,-1,40
 254 298 254 298 295 303 c 0,41,42
 301 304 301 304 304 304 c 0,43,44
 353 310 353 310 371.5 322.5 c 128,-1,45
 390 335 390 335 390 362 c 2,46,-1
 390 384 l 2,47,48
 390 462 390 462 273 462 c 0,49,50
 215 462 215 462 185.5 439.5 c 128,-1,51
 156 417 156 417 151 369 c 1,52,-1
 67 369 l 1,0,1
232 50 m 0,53,54
 301 50 301 50 345 86.5 c 128,-1,55
 389 123 389 123 389 165 c 2,56,-1
 389 259 l 1,57,58
 364 247 364 247 313.5 239 c 128,-1,59
 263 231 263 231 226 225 c 128,-1,60
 189 219 189 219 159 196.5 c 128,-1,61
 129 174 129 174 129 134 c 128,-1,62
 129 94 129 94 156 72 c 128,-1,63
 183 50 183 50 232 50 c 0,53,54
EndSplineSet
Validated: 1
Layer: 2
EndChar

StartChar: Cacute
Encoding: 262 262 192
Width: 722
GlyphClass: 2
Flags: W
LayerCount: 3
Back
Fore
SplineSet
405 940 m 1,0,-1
 518 940 l 1,1,-1
 369 792 l 1,2,-1
 309 792 l 1,3,-1
 405 940 l 1,0,-1
48 356 m 0,4,5
 48 406 48 406 56.5 455 c 128,-1,6
 65 504 65 504 89 557 c 128,-1,7
 113 610 113 610 148.5 649.5 c 128,-1,8
 184 689 184 689 244.5 715 c 128,-1,9
 305 741 305 741 381 741 c 0,10,11
 619 741 619 741 662 503 c 1,12,-1
 567 503 l 1,13,14
 551 581 551 581 504 620 c 128,-1,15
 457 659 457 659 370 659 c 0,16,17
 264 659 264 659 202.5 578 c 128,-1,18
 141 497 141 497 141 357 c 0,19,20
 141 220 141 220 205 139.5 c 128,-1,21
 269 59 269 59 378 59 c 0,22,23
 468 59 468 59 516 109.5 c 128,-1,24
 564 160 564 160 581 266 c 1,25,-1
 677 266 l 1,26,27
 644 -23 644 -23 377 -23 c 0,28,29
 302 -23 302 -23 242.5 2.5 c 128,-1,30
 183 28 183 28 147.5 67 c 128,-1,31
 112 106 112 106 88.5 158.5 c 128,-1,32
 65 211 65 211 56.5 259 c 128,-1,33
 48 307 48 307 48 356 c 0,4,5
EndSplineSet
Validated: 1
Layer: 2
EndChar

StartChar: cacute
Encoding: 263 263 193
Width: 500
GlyphClass: 2
Flags: W
LayerCount: 3
Back
Fore
SplineSet
298 740 m 1,0,-1
 411 740 l 1,1,-1
 262 592 l 1,2,-1
 202 592 l 1,3,-1
 298 740 l 1,0,-1
471 348 m 1,4,-1
 387 348 l 1,5,6
 379 403 379 403 347 432.5 c 128,-1,7
 315 462 315 462 263 462 c 0,8,9
 195 462 195 462 156.5 406.5 c 128,-1,10
 118 351 118 351 118 253 c 0,11,12
 118 160 118 160 157 107 c 128,-1,13
 196 54 196 54 265 54 c 0,14,15
 372 54 372 54 393 180 c 1,16,-1
 477 180 l 1,17,18
 469 84 469 84 413 30.5 c 128,-1,19
 357 -23 357 -23 263 -23 c 0,20,21
 156 -23 156 -23 93.5 51.5 c 128,-1,22
 31 126 31 126 31 253 c 0,23,24
 31 383 31 383 94.5 461 c 128,-1,25
 158 539 158 539 264 539 c 0,26,27
 355 539 355 539 409.5 490 c 128,-1,28
 464 441 464 441 471 348 c 1,4,-1
EndSplineSet
Validated: 1
Layer: 2
EndChar

StartChar: Dcroat
Encoding: 272 272 202
Width: 722
GlyphClass: 2
Flags: W
LayerCount: 3
Back
Fore
SplineSet
89 339 m 1,0,-1
 20 339 l 1,1,-1
 20 406 l 1,2,-1
 89 406 l 1,3,-1
 89 729 l 1,4,-1
 371 729 l 2,5,6
 509 729 509 729 588 632 c 128,-1,7
 667 535 667 535 667 365 c 128,-1,8
 667 195 667 195 588 97.5 c 128,-1,9
 509 0 509 0 371 0 c 2,10,-1
 89 0 l 1,11,-1
 89 339 l 1,0,-1
182 339 m 1,12,-1
 182 82 l 1,13,-1
 355 82 l 2,14,15
 462 82 462 82 518 154 c 128,-1,16
 574 226 574 226 574 365 c 128,-1,17
 574 504 574 504 518 575.5 c 128,-1,18
 462 647 462 647 355 647 c 2,19,-1
 182 647 l 1,20,-1
 182 406 l 1,21,-1
 353 406 l 1,22,-1
 353 339 l 1,23,-1
 182 339 l 1,12,-1
EndSplineSet
Validated: 1
Layer: 2
EndChar

StartChar: dcroat
Encoding: 273 273 203
Width: 556
GlyphClass: 2
Flags: W
LayerCount: 3
Back
Fore
SplineSet
494 653 m 1,0,-1
 557 653 l 1,1,-1
 557 600 l 1,2,-1
 494 600 l 1,3,-1
 494 0 l 1,4,-1
 420 0 l 1,5,-1
 420 59 l 1,6,7
 350 -23 350 -23 252 -23 c 0,8,9
 150 -23 150 -23 88 55.5 c 128,-1,10
 26 134 26 134 26 264 c 0,11,12
 26 388 26 388 87.5 463.5 c 128,-1,13
 149 539 149 539 250 539 c 0,14,15
 347 539 347 539 411 461 c 1,16,-1
 411 600 l 1,17,-1
 261 600 l 1,18,-1
 261 653 l 1,19,-1
 411 653 l 1,20,-1
 411 729 l 1,21,-1
 494 729 l 1,22,-1
 494 653 l 1,0,-1
265 457 m 0,23,24
 197 457 197 457 155 402 c 128,-1,25
 113 347 113 347 113 258 c 128,-1,26
 113 169 113 169 155 114 c 128,-1,27
 197 59 197 59 265 59 c 0,28,29
 331 59 331 59 371 113 c 128,-1,30
 411 167 411 167 411 256 c 0,31,32
 411 348 411 348 371.5 402.5 c 128,-1,33
 332 457 332 457 265 457 c 0,23,24
EndSplineSet
Validated: 1
Layer: 2
EndChar

StartChar: Emacron
Encoding: 274 274 204
Width: 667
GlyphClass: 2
Flags: W
LayerCount: 3
Back
Fore
SplineSet
480 871 m 1,0,-1
 480 801 l 1,1,-1
 206 801 l 1,2,-1
 206 871 l 1,3,-1
 480 871 l 1,0,-1
183 332 m 1,4,-1
 183 82 l 1,5,-1
 613 82 l 1,6,-1
 613 0 l 1,7,-1
 90 0 l 1,8,-1
 90 729 l 1,9,-1
 595 729 l 1,10,-1
 595 647 l 1,11,-1
 183 647 l 1,12,-1
 183 414 l 1,13,-1
 580 414 l 1,14,-1
 580 332 l 1,15,-1
 183 332 l 1,4,-1
EndSplineSet
Validated: 1
Layer: 2
EndChar

StartChar: emacron
Encoding: 275 275 205
Width: 556
GlyphClass: 2
Flags: W
LayerCount: 3
Back
Fore
SplineSet
417 669 m 1,0,-1
 417 599 l 1,1,-1
 143 599 l 1,2,-1
 143 669 l 1,3,-1
 417 669 l 1,0,-1
513 234 m 1,4,-1
 127 234 l 1,5,6
 128 162 128 162 155 122 c 0,7,8
 198 54 198 54 281 54 c 0,9,10
 383 54 383 54 418 159 c 1,11,-1
 502 159 l 1,12,13
 486 73 486 73 427 25 c 128,-1,14
 368 -23 368 -23 278 -23 c 0,15,16
 168 -23 168 -23 104 51.5 c 128,-1,17
 40 126 40 126 40 255 c 128,-1,18
 40 384 40 384 105.5 461.5 c 128,-1,19
 171 539 171 539 280 539 c 0,20,21
 354 539 354 539 410.5 502 c 128,-1,22
 467 465 467 465 492 401 c 0,23,24
 513 346 513 346 513 234 c 1,4,-1
129 302 m 1,25,-1
 423 302 l 2,26,27
 424 304 424 304 424 308 c 0,28,29
 424 373 424 373 382 417.5 c 128,-1,30
 340 462 340 462 279 462 c 0,31,32
 216 462 216 462 175 418.5 c 128,-1,33
 134 375 134 375 129 302 c 1,25,-1
EndSplineSet
Validated: 1
Layer: 2
EndChar

StartChar: Eogonek
Encoding: 280 280 210
Width: 667
GlyphClass: 2
Flags: W
LayerCount: 3
Back
Fore
SplineSet
576 -205 m 0,0,1
 520 -205 520 -205 482 -179 c 128,-1,2
 444 -153 444 -153 444 -111 c 0,3,4
 444 -75 444 -75 469.5 -46 c 128,-1,5
 495 -17 495 -17 541 0 c 1,6,-1
 90 0 l 1,7,-1
 90 729 l 1,8,-1
 595 729 l 1,9,-1
 595 647 l 1,10,-1
 183 647 l 1,11,-1
 183 414 l 1,12,-1
 580 414 l 1,13,-1
 580 332 l 1,14,-1
 183 332 l 1,15,-1
 183 82 l 1,16,-1
 613 82 l 1,17,-1
 613 0 l 1,18,-1
 611 0 l 1,19,20
 556 -31 556 -31 536.5 -53 c 128,-1,21
 517 -75 517 -75 517 -106 c 0,22,23
 517 -160 517 -160 589 -160 c 0,24,25
 626 -160 626 -160 652 -150 c 1,26,-1
 652 -195 l 1,27,28
 604 -205 604 -205 576 -205 c 0,0,1
EndSplineSet
Validated: 1
Layer: 2
EndChar

StartChar: eogonek
Encoding: 281 281 211
Width: 556
GlyphClass: 2
Flags: W
LayerCount: 3
Back
Fore
SplineSet
503 159 m 1,0,1
 496 118 496 118 477 85 c 128,-1,2
 458 52 458 52 437.5 30 c 128,-1,3
 417 8 417 8 397 -12 c 128,-1,4
 377 -32 377 -32 364 -56 c 128,-1,5
 351 -80 351 -80 351 -109 c 0,6,7
 351 -133 351 -133 370 -146.5 c 128,-1,8
 389 -160 389 -160 423 -160 c 0,9,10
 461 -160 461 -160 487 -150 c 1,11,-1
 487 -195 l 1,12,13
 446 -204 446 -204 418 -204 c 0,14,15
 355 -204 355 -204 317 -180 c 128,-1,16
 279 -156 279 -156 279 -116 c 0,17,18
 279 -96 279 -96 287 -78 c 128,-1,19
 295 -60 295 -60 306.5 -49 c 128,-1,20
 318 -38 318 -38 329.5 -28 c 128,-1,21
 341 -18 341 -18 347 -15 c 1,22,23
 307 -23 307 -23 279 -23 c 0,24,25
 167 -23 167 -23 103.5 50.5 c 128,-1,26
 40 124 40 124 40 254 c 128,-1,27
 40 384 40 384 105.5 461.5 c 128,-1,28
 171 539 171 539 280 539 c 0,29,30
 354 539 354 539 410.5 502 c 128,-1,31
 467 465 467 465 492 401 c 0,32,33
 513 347 513 347 513 249 c 2,34,-1
 513 234 l 1,35,-1
 127 234 l 1,36,37
 128 182 128 182 143.5 144.5 c 128,-1,38
 159 107 159 107 183 88.5 c 128,-1,39
 207 70 207 70 231.5 62 c 128,-1,40
 256 54 256 54 281 54 c 0,41,42
 382 54 382 54 419 159 c 1,43,-1
 503 159 l 1,0,1
424 302 m 1,44,-1
 424 308 l 2,45,46
 424 373 424 373 382 417.5 c 128,-1,47
 340 462 340 462 279 462 c 0,48,49
 216 462 216 462 175 418.5 c 128,-1,50
 134 375 134 375 130 302 c 1,51,-1
 424 302 l 1,44,-1
EndSplineSet
Validated: 1
Layer: 2
EndChar

StartChar: gcommaaccent
Encoding: 291 291 221
Width: 697
GlyphClass: 2
Flags: W
LayerCount: 3
Back
Fore
SplineSet
290 583 m 1,0,-1
 209 583 l 1,1,-1
 209 652 l 2,2,3
 209 740 209 740 290 740 c 1,4,-1
 290 698 l 1,5,-1
 287 698 l 2,6,7
 275 698 275 698 268 696.5 c 128,-1,8
 261 695 261 695 255 684.5 c 128,-1,9
 249 674 249 674 249 653 c 1,10,-1
 290 653 l 1,11,-1
 290 583 l 1,0,-1
245 -23 m 0,12,13
 153 -23 153 -23 91 52.5 c 128,-1,14
 29 128 29 128 29 253 c 0,15,16
 29 381 29 381 90.5 460 c 128,-1,17
 152 539 152 539 252 539 c 0,18,19
 350 539 350 539 412 448 c 1,20,-1
 412 524 l 1,21,-1
 489 524 l 1,22,-1
 489 86 l 2,23,24
 489 11 489 11 480 -39.5 c 128,-1,25
 471 -90 471 -90 447 -133 c 128,-1,26
 423 -176 423 -176 375.5 -197 c 128,-1,27
 328 -218 328 -218 255 -218 c 0,28,29
 163 -218 163 -218 108 -176 c 128,-1,30
 53 -134 53 -134 46 -60 c 1,31,-1
 131 -60 l 1,32,33
 145 -148 145 -148 258 -148 c 0,34,35
 342 -148 342 -148 373 -100.5 c 128,-1,36
 404 -53 404 -53 404 44 c 2,37,-1
 404 71 l 1,38,39
 369 21 369 21 331.5 -1 c 128,-1,40
 294 -23 294 -23 245 -23 c 0,12,13
261 462 m 0,41,42
 194 462 194 462 155 407 c 128,-1,43
 116 352 116 352 116 258 c 0,44,45
 116 163 116 163 155 108.5 c 128,-1,46
 194 54 194 54 262 54 c 0,47,48
 328 54 328 54 366 107.5 c 128,-1,49
 404 161 404 161 404 255 c 0,50,51
 404 353 404 353 366.5 407.5 c 128,-1,52
 329 462 329 462 261 462 c 0,41,42
EndSplineSet
Validated: 1
Layer: 2
EndChar

StartChar: Hbar
Encoding: 294 294 224
Width: 722
GlyphClass: 2
Flags: W
LayerCount: 3
Back
Fore
SplineSet
176 504 m 1,0,-1
 176 414 l 1,1,-1
 551 414 l 1,2,-1
 551 504 l 1,3,-1
 176 504 l 1,0,-1
83 576 m 1,4,-1
 83 729 l 1,5,-1
 176 729 l 1,6,-1
 176 576 l 1,7,-1
 551 576 l 1,8,-1
 551 729 l 1,9,-1
 644 729 l 1,10,-1
 644 576 l 1,11,-1
 688 576 l 1,12,-1
 688 506 l 1,13,-1
 644 506 l 1,14,-1
 644 0 l 1,15,-1
 551 0 l 1,16,-1
 551 332 l 1,17,-1
 177 332 l 1,18,-1
 177 0 l 1,19,-1
 83 0 l 1,20,-1
 83 506 l 1,21,-1
 39 506 l 1,22,-1
 39 576 l 1,23,-1
 83 576 l 1,4,-1
EndSplineSet
Validated: 1
Layer: 2
EndChar

StartChar: hbar
Encoding: 295 295 225
Width: 556
GlyphClass: 2
Flags: W
LayerCount: 3
Back
Fore
SplineSet
403 363 m 2,0,1
 403 418 403 418 369.5 442 c 128,-1,2
 336 466 336 466 295 466 c 0,3,4
 231 466 231 466 192 417.5 c 128,-1,5
 153 369 153 369 153 289 c 2,6,-1
 153 0 l 1,7,-1
 70 0 l 1,8,-1
 70 600 l 1,9,-1
 7 600 l 1,10,-1
 7 653 l 1,11,-1
 70 653 l 1,12,-1
 70 729 l 1,13,-1
 153 729 l 1,14,-1
 153 653 l 1,15,-1
 303 653 l 1,16,-1
 303 600 l 1,17,-1
 153 600 l 1,18,-1
 153 452 l 1,19,20
 190 500 190 500 227.5 519.5 c 128,-1,21
 265 539 265 539 321 539 c 0,22,23
 397 539 397 539 441.5 500.5 c 128,-1,24
 486 462 486 462 486 396 c 2,25,-1
 486 0 l 1,26,-1
 403 0 l 1,27,-1
 403 363 l 2,0,1
EndSplineSet
Validated: 1
Layer: 2
EndChar

StartChar: Imacron
Encoding: 298 298 228
Width: 278
GlyphClass: 2
Flags: W
LayerCount: 3
Back
Fore
SplineSet
284 871 m 1,0,-1
 284 801 l 1,1,-1
 10 801 l 1,2,-1
 10 871 l 1,3,-1
 284 871 l 1,0,-1
194 729 m 1,4,-1
 194 0 l 1,5,-1
 100 0 l 1,6,-1
 100 729 l 1,7,-1
 194 729 l 1,4,-1
EndSplineSet
Validated: 1
Layer: 2
EndChar

StartChar: imacron
Encoding: 299 299 229
Width: 278
GlyphClass: 2
Flags: W
LayerCount: 3
Back
Fore
SplineSet
273 669 m 1,0,-1
 273 599 l 1,1,-1
 -1 599 l 1,2,-1
 -1 669 l 1,3,-1
 273 669 l 1,0,-1
177 524 m 1,4,-1
 177 0 l 1,5,-1
 94 0 l 1,6,-1
 94 524 l 1,7,-1
 177 524 l 1,4,-1
EndSplineSet
Validated: 1
Layer: 2
EndChar

StartChar: Iogonek
Encoding: 302 302 232
Width: 278
GlyphClass: 2
Flags: W
LayerCount: 3
Back
Fore
SplineSet
158 -205 m 0,0,1
 102 -205 102 -205 64 -179 c 128,-1,2
 26 -153 26 -153 26 -111 c 0,3,4
 26 -75 26 -75 51.5 -46 c 128,-1,5
 77 -17 77 -17 123 0 c 1,6,-1
 100 0 l 1,7,-1
 100 729 l 1,8,-1
 194 729 l 1,9,-1
 194 0 l 1,10,11
 139 -31 139 -31 119 -53 c 128,-1,12
 99 -75 99 -75 99 -106 c 0,13,14
 99 -160 99 -160 171 -160 c 0,15,16
 208 -160 208 -160 234 -150 c 1,17,-1
 234 -195 l 1,18,19
 186 -205 186 -205 158 -205 c 0,0,1
EndSplineSet
Validated: 1
Layer: 2
EndChar

StartChar: iogonek
Encoding: 303 303 233
Width: 222
GlyphClass: 2
Flags: W
LayerCount: 3
Back
Fore
SplineSet
114 -205 m 0,0,1
 58 -205 58 -205 20 -179 c 128,-1,2
 -18 -153 -18 -153 -18 -111 c 0,3,4
 -18 -78 -18 -78 4.5 -50 c 128,-1,5
 27 -22 27 -22 67 -5 c 1,6,-1
 67 518 l 1,7,-1
 150 518 l 1,8,-1
 150 -6 l 1,9,-1
 138 -6 l 1,10,11
 90 -34 90 -34 72.5 -55 c 128,-1,12
 55 -76 55 -76 55 -106 c 0,13,14
 55 -160 55 -160 127 -160 c 0,15,16
 164 -160 164 -160 190 -150 c 1,17,-1
 190 -195 l 1,18,19
 142 -205 142 -205 114 -205 c 0,0,1
150 729 m 1,20,-1
 150 624 l 1,21,-1
 66 624 l 1,22,-1
 66 729 l 1,23,-1
 150 729 l 1,20,-1
EndSplineSet
Validated: 1
Layer: 2
EndChar

StartChar: dotlessi
Encoding: 305 305 235
Width: 278
GlyphClass: 2
Flags: W
LayerCount: 3
Back
Fore
SplineSet
177 524 m 1,0,-1
 177 0 l 1,1,-1
 94 0 l 1,2,-1
 94 524 l 1,3,-1
 177 524 l 1,0,-1
EndSplineSet
Validated: 1
Layer: 2
EndChar

StartChar: kgreenlandic
Encoding: 312 312 242
Width: 500
GlyphClass: 2
Flags: W
LayerCount: 3
Back
Fore
SplineSet
141 524 m 1,0,-1
 141 302 l 1,1,-1
 363 524 l 1,2,-1
 470 524 l 1,3,-1
 198 264 l 1,4,-1
 502 0 l 1,5,-1
 399 0 l 1,6,-1
 141 216 l 1,7,-1
 141 0 l 1,8,-1
 58 0 l 1,9,-1
 58 524 l 1,10,-1
 141 524 l 1,0,-1
EndSplineSet
Validated: 1
Layer: 2
EndChar

StartChar: Lacute
Encoding: 313 313 243
Width: 556
GlyphClass: 2
Flags: W
LayerCount: 3
Back
Fore
SplineSet
166 939 m 1,0,-1
 279 939 l 1,1,-1
 130 791 l 1,2,-1
 70 791 l 1,3,-1
 166 939 l 1,0,-1
173 729 m 1,4,-1
 173 82 l 1,5,-1
 533 82 l 1,6,-1
 533 0 l 1,7,-1
 80 0 l 1,8,-1
 80 729 l 1,9,-1
 173 729 l 1,4,-1
EndSplineSet
Validated: 1
Layer: 2
EndChar

StartChar: lacute
Encoding: 314 314 244
Width: 222
GlyphClass: 2
Flags: W
LayerCount: 3
Back
Fore
SplineSet
160 939 m 1,0,-1
 273 939 l 1,1,-1
 124 791 l 1,2,-1
 64 791 l 1,3,-1
 160 939 l 1,0,-1
152 729 m 1,4,-1
 152 0 l 1,5,-1
 68 0 l 1,6,-1
 68 729 l 1,7,-1
 152 729 l 1,4,-1
EndSplineSet
Validated: 1
Layer: 2
EndChar

StartChar: Lslash
Encoding: 321 321 251
Width: 556
GlyphClass: 2
Flags: W
LayerCount: 3
Back
Fore
SplineSet
173 406 m 1,0,-1
 344 527 l 1,1,-1
 344 451 l 1,2,-1
 173 329 l 1,3,-1
 173 82 l 1,4,-1
 552 82 l 1,5,-1
 552 0 l 1,6,-1
 80 0 l 1,7,-1
 80 280 l 1,8,-1
 0 223 l 1,9,-1
 0 300 l 1,10,-1
 80 356 l 1,11,-1
 80 729 l 1,12,-1
 173 729 l 1,13,-1
 173 406 l 1,0,-1
EndSplineSet
Validated: 1
Layer: 2
EndChar

StartChar: lslash
Encoding: 322 322 252
Width: 222
GlyphClass: 2
Flags: W
LayerCount: 3
Back
Fore
SplineSet
146 421 m 1,0,-1
 212 472 l 1,1,-1
 212 408 l 1,2,-1
 146 357 l 1,3,-1
 146 0 l 1,4,-1
 63 0 l 1,5,-1
 63 313 l 1,6,-1
 0 263 l 1,7,-1
 0 327 l 1,8,-1
 63 377 l 1,9,-1
 63 729 l 1,10,-1
 146 729 l 1,11,-1
 146 421 l 1,0,-1
EndSplineSet
Validated: 1
Layer: 2
EndChar

StartChar: Nacute
Encoding: 323 323 253
Width: 722
GlyphClass: 2
Flags: W
LayerCount: 3
Back
Fore
SplineSet
389 939 m 1,0,-1
 502 939 l 1,1,-1
 353 791 l 1,2,-1
 293 791 l 1,3,-1
 389 939 l 1,0,-1
646 729 m 1,4,-1
 646 0 l 1,5,-1
 541 0 l 1,6,-1
 164 591 l 1,7,-1
 164 0 l 1,8,-1
 76 0 l 1,9,-1
 76 729 l 1,10,-1
 177 729 l 1,11,-1
 558 133 l 1,12,-1
 558 729 l 1,13,-1
 646 729 l 1,4,-1
EndSplineSet
Validated: 1
Layer: 2
EndChar

StartChar: nacute
Encoding: 324 324 254
Width: 556
GlyphClass: 2
Flags: W
LayerCount: 3
Back
Fore
SplineSet
310 739 m 1,0,-1
 423 739 l 1,1,-1
 274 591 l 1,2,-1
 214 591 l 1,3,-1
 310 739 l 1,0,-1
70 524 m 1,4,-1
 147 524 l 1,5,-1
 147 436 l 1,6,7
 182 491 182 491 222.5 515 c 128,-1,8
 263 539 263 539 321 539 c 0,9,10
 397 539 397 539 442 500 c 128,-1,11
 487 461 487 461 487 396 c 2,12,-1
 487 0 l 1,13,-1
 404 0 l 1,14,-1
 404 363 l 2,15,16
 404 410 404 410 375 438 c 128,-1,17
 346 466 346 466 296 466 c 0,18,19
 232 466 232 466 193 417.5 c 128,-1,20
 154 369 154 369 154 289 c 2,21,-1
 154 0 l 1,22,-1
 70 0 l 1,23,-1
 70 524 l 1,4,-1
EndSplineSet
Validated: 1
Layer: 2
EndChar

StartChar: Eng
Encoding: 330 330 260
Width: 722
GlyphClass: 2
Flags: W
LayerCount: 3
Back
Fore
SplineSet
558 133 m 1,0,-1
 558 729 l 1,1,-1
 646 729 l 1,2,-1
 646 -109 l 2,3,4
 646 -162 646 -162 607.5 -190 c 128,-1,5
 569 -218 569 -218 498 -218 c 0,6,7
 485 -218 485 -218 470 -215 c 1,8,-1
 470 -134 l 1,9,10
 487 -135 487 -135 490 -135 c 2,11,12
 490 -135 490 -135 494 -135 c 0,13,14
 558 -135 558 -135 558 -76 c 2,15,-1
 558 -27 l 1,16,-1
 164 591 l 1,17,-1
 164 0 l 1,18,-1
 76 0 l 1,19,-1
 76 729 l 1,20,-1
 177 729 l 1,21,-1
 558 133 l 1,0,-1
EndSplineSet
Validated: 1
Layer: 2
EndChar

StartChar: eng
Encoding: 331 331 261
Width: 556
GlyphClass: 2
Flags: W
LayerCount: 3
Back
Fore
SplineSet
487 396 m 2,0,-1
 487 -109 l 2,1,2
 487 -218 487 -218 344 -218 c 0,3,4
 331 -218 331 -218 316 -215 c 1,5,-1
 316 -144 l 1,6,7
 333 -145 333 -145 336 -145 c 0,8,9
 374 -145 374 -145 389 -130 c 128,-1,10
 404 -115 404 -115 404 -76 c 2,11,-1
 404 363 l 2,12,13
 404 410 404 410 375 438 c 128,-1,14
 346 466 346 466 296 466 c 0,15,16
 232 466 232 466 193 417.5 c 128,-1,17
 154 369 154 369 154 289 c 2,18,-1
 154 0 l 1,19,-1
 70 0 l 1,20,-1
 70 524 l 1,21,-1
 147 524 l 1,22,-1
 147 436 l 1,23,24
 182 491 182 491 222.5 515 c 128,-1,25
 263 539 263 539 321 539 c 0,26,27
 397 539 397 539 442 500 c 128,-1,28
 487 461 487 461 487 396 c 2,0,-1
EndSplineSet
Validated: 1
Layer: 2
EndChar

StartChar: Omacron
Encoding: 332 332 262
Width: 778
GlyphClass: 2
Flags: W
LayerCount: 3
Back
Fore
SplineSet
526 871 m 1,0,-1
 526 801 l 1,1,-1
 252 801 l 1,2,-1
 252 871 l 1,3,-1
 526 871 l 1,0,-1
742 353 m 0,4,5
 742 191 742 191 646 84 c 128,-1,6
 550 -23 550 -23 390 -23 c 0,7,8
 232 -23 232 -23 135 82.5 c 128,-1,9
 38 188 38 188 38 359 c 128,-1,10
 38 530 38 530 135 635.5 c 128,-1,11
 232 741 232 741 389 741 c 0,12,13
 549 741 549 741 645.5 635 c 128,-1,14
 742 529 742 529 742 353 c 0,4,5
389 659 m 0,15,16
 273 659 273 659 202 576.5 c 128,-1,17
 131 494 131 494 131 359 c 128,-1,18
 131 224 131 224 202.5 141.5 c 128,-1,19
 274 59 274 59 390 59 c 128,-1,20
 506 59 506 59 577.5 141 c 128,-1,21
 649 223 649 223 649 355 c 0,22,23
 649 493 649 493 578 576 c 128,-1,24
 507 659 507 659 389 659 c 0,15,16
EndSplineSet
Validated: 1
Layer: 2
EndChar

StartChar: omacron
Encoding: 333 333 263
Width: 556
GlyphClass: 2
Flags: W
LayerCount: 3
Back
Fore
SplineSet
409 669 m 1,0,-1
 409 599 l 1,1,-1
 135 599 l 1,2,-1
 135 669 l 1,3,-1
 409 669 l 1,0,-1
272 539 m 0,4,5
 385 539 385 539 447.5 464.5 c 128,-1,6
 510 390 510 390 510 254 c 0,7,8
 510 125 510 125 446.5 51 c 128,-1,9
 383 -23 383 -23 273 -23 c 0,10,11
 161 -23 161 -23 98.5 51.5 c 128,-1,12
 36 126 36 126 36 258 c 128,-1,13
 36 390 36 390 99 464.5 c 128,-1,14
 162 539 162 539 272 539 c 0,4,5
273 462 m 0,15,16
 203 462 203 462 163 407.5 c 128,-1,17
 123 353 123 353 123 258 c 128,-1,18
 123 163 123 163 163 108.5 c 128,-1,19
 203 54 203 54 273 54 c 0,20,21
 342 54 342 54 382.5 108.5 c 128,-1,22
 423 163 423 163 423 255 c 0,23,24
 423 352 423 352 383.5 407 c 128,-1,25
 344 462 344 462 273 462 c 0,15,16
EndSplineSet
Validated: 1
Layer: 2
EndChar

StartChar: OE
Encoding: 338 338 268
Width: 1000
GlyphClass: 2
Flags: W
LayerCount: 3
Back
Fore
SplineSet
43 356 m 0,0,1
 43 444 43 444 63 513.5 c 128,-1,2
 83 583 83 583 113.5 625 c 128,-1,3
 144 667 144 667 185 694 c 128,-1,4
 226 721 226 721 264.5 731 c 128,-1,5
 303 741 303 741 342 741 c 0,6,7
 463 741 463 741 525 653 c 1,8,-1
 525 729 l 1,9,-1
 954 729 l 1,10,-1
 954 647 l 1,11,-1
 618 647 l 1,12,-1
 618 409 l 1,13,-1
 946 409 l 1,14,-1
 946 327 l 1,15,-1
 618 327 l 1,16,-1
 618 82 l 1,17,-1
 959 82 l 1,18,-1
 959 0 l 1,19,-1
 525 0 l 1,20,-1
 525 74 l 1,21,22
 458 -20 458 -20 341 -20 c 0,23,24
 301 -20 301 -20 262.5 -10 c 128,-1,25
 224 0 224 0 183 26.5 c 128,-1,26
 142 53 142 53 112 93.5 c 128,-1,27
 82 134 82 134 62.5 202 c 128,-1,28
 43 270 43 270 43 356 c 0,0,1
136 360 m 0,29,30
 136 287 136 287 149 232 c 128,-1,31
 162 177 162 177 182.5 145.5 c 128,-1,32
 203 114 203 114 231.5 94.5 c 128,-1,33
 260 75 260 75 286 68.5 c 128,-1,34
 312 62 312 62 341 62 c 0,35,36
 466 62 466 62 525 182 c 1,37,-1
 525 539 l 1,38,39
 466 659 466 659 342 659 c 0,40,41
 311 659 311 659 284.5 652 c 128,-1,42
 258 645 258 645 229.5 625.5 c 128,-1,43
 201 606 201 606 181.5 574 c 128,-1,44
 162 542 162 542 149 487 c 128,-1,45
 136 432 136 432 136 360 c 0,29,30
EndSplineSet
Validated: 1
Layer: 2
EndChar

StartChar: oe
Encoding: 339 339 269
Width: 944
GlyphClass: 2
Flags: W
LayerCount: 3
Back
Fore
SplineSet
513 234 m 1,0,1
 514 182 514 182 529 144.5 c 128,-1,2
 544 107 544 107 568 88.5 c 128,-1,3
 592 70 592 70 616.5 62 c 128,-1,4
 641 54 641 54 667 54 c 0,5,6
 769 54 769 54 804 159 c 1,7,-1
 888 159 l 1,8,9
 872 73 872 73 813 25 c 128,-1,10
 754 -23 754 -23 665 -23 c 0,11,12
 533 -23 533 -23 471 80 c 1,13,14
 408 -23 408 -23 277 -23 c 0,15,16
 164 -23 164 -23 102 50.5 c 128,-1,17
 40 124 40 124 40 259 c 0,18,19
 40 393 40 393 102 466 c 128,-1,20
 164 539 164 539 277 539 c 0,21,22
 412 539 412 539 473 433 c 1,23,24
 504 483 504 483 554.5 511 c 128,-1,25
 605 539 605 539 666 539 c 0,26,27
 740 539 740 539 796.5 502 c 128,-1,28
 853 465 853 465 878 401 c 0,29,30
 899 346 899 346 899 234 c 1,31,-1
 513 234 l 1,0,1
127 259 m 0,32,33
 127 163 127 163 167 108.5 c 128,-1,34
 207 54 207 54 277 54 c 0,35,36
 346 54 346 54 386.5 108 c 128,-1,37
 427 162 427 162 427 256 c 0,38,39
 427 353 427 353 387 407.5 c 128,-1,40
 347 462 347 462 277 462 c 128,-1,41
 207 462 207 462 167 407.5 c 128,-1,42
 127 353 127 353 127 259 c 0,32,33
515 302 m 1,43,-1
 809 302 l 1,44,45
 809 373 809 373 769 417.5 c 128,-1,46
 729 462 729 462 665 462 c 0,47,48
 602 462 602 462 561 418.5 c 128,-1,49
 520 375 520 375 515 302 c 1,43,-1
EndSplineSet
Validated: 1
Layer: 2
EndChar

StartChar: Racute
Encoding: 340 340 270
Width: 722
GlyphClass: 2
Flags: W
LayerCount: 3
Back
Fore
SplineSet
383 939 m 1,0,-1
 496 939 l 1,1,-1
 347 791 l 1,2,-1
 287 791 l 1,3,-1
 383 939 l 1,0,-1
554 521 m 0,4,5
 554 593 554 593 516 620 c 128,-1,6
 478 647 478 647 411 647 c 2,7,-1
 186 647 l 1,8,-1
 186 396 l 1,9,-1
 411 396 l 2,10,11
 485 396 485 396 519.5 426 c 128,-1,12
 554 456 554 456 554 521 c 0,4,5
464 316 m 1,13,14
 464 316 464 316 679 0 c 1,15,-1
 564 0 l 1,16,-1
 358 314 l 1,17,-1
 186 314 l 1,18,-1
 186 0 l 1,19,-1
 93 0 l 1,20,-1
 93 729 l 1,21,-1
 429 729 l 2,22,23
 536 729 536 729 593.5 678.5 c 128,-1,24
 651 628 651 628 651 534 c 2,25,-1
 652 510 l 2,26,27
 652 416 652 416 594 365 c 0,28,29
 546 323 546 323 464 316 c 1,13,14
EndSplineSet
Validated: 1
Layer: 2
EndChar

StartChar: racute
Encoding: 341 341 271
Width: 333
GlyphClass: 2
Flags: W
LayerCount: 3
Back
Fore
SplineSet
218 739 m 1,0,-1
 331 739 l 1,1,-1
 182 591 l 1,2,-1
 122 591 l 1,3,-1
 218 739 l 1,0,-1
321 451 m 1,4,5
 237 449 237 449 195 412 c 128,-1,6
 153 375 153 375 153 272 c 2,7,-1
 153 0 l 1,8,-1
 69 0 l 1,9,-1
 69 524 l 1,10,-1
 146 524 l 1,11,-1
 146 429 l 1,12,13
 182 488 182 488 215.5 513.5 c 128,-1,14
 249 539 249 539 289 539 c 0,15,16
 300 539 300 539 321 536 c 1,17,-1
 321 451 l 1,4,5
EndSplineSet
Validated: 1
Layer: 2
EndChar

StartChar: Sacute
Encoding: 346 346 276
Width: 667
GlyphClass: 2
Flags: W
LayerCount: 3
Back
Fore
SplineSet
362 941 m 1,0,-1
 475 941 l 1,1,-1
 326 793 l 1,2,-1
 266 793 l 1,3,-1
 362 941 l 1,0,-1
342 59 m 0,4,5
 398 59 398 59 437 72 c 128,-1,6
 476 85 476 85 494.5 106 c 128,-1,7
 513 127 513 127 520.5 147.5 c 128,-1,8
 528 168 528 168 528 191 c 0,9,10
 528 274 528 274 394 309 c 2,11,-1
 213 357 l 2,12,13
 70 394 70 394 70 527 c 0,14,15
 70 626 70 626 139.5 683.5 c 128,-1,16
 209 741 209 741 329 741 c 0,17,18
 455 741 455 741 525 681.5 c 128,-1,19
 595 622 595 622 596 515 c 1,20,-1
 508 515 l 1,21,22
 507 586 507 586 460 624.5 c 128,-1,23
 413 663 413 663 326 663 c 0,24,25
 252 663 252 663 207.5 629 c 128,-1,26
 163 595 163 595 163 540 c 0,27,28
 163 498 163 498 190 474 c 128,-1,29
 217 450 217 450 283 432 c 2,30,-1
 466 383 l 2,31,32
 540 363 540 363 580.5 315 c 128,-1,33
 621 267 621 267 621 200 c 0,34,35
 621 171 621 171 613.5 142.5 c 128,-1,36
 606 114 606 114 586 83.5 c 128,-1,37
 566 53 566 53 535 30 c 128,-1,38
 504 7 504 7 452.5 -8 c 128,-1,39
 401 -23 401 -23 336 -23 c 0,40,41
 295 -23 295 -23 257.5 -16.5 c 128,-1,42
 220 -10 220 -10 181 7.5 c 128,-1,43
 142 25 142 25 114 52.5 c 128,-1,44
 86 80 86 80 67.5 126 c 128,-1,45
 49 172 49 172 48 232 c 1,46,-1
 136 232 l 1,47,-1
 136 227 l 2,48,49
 136 196 136 196 145.5 169 c 128,-1,50
 155 142 155 142 176.5 116 c 128,-1,51
 198 90 198 90 240.5 74.5 c 128,-1,52
 283 59 283 59 342 59 c 0,4,5
EndSplineSet
Validated: 1
Layer: 2
EndChar

StartChar: sacute
Encoding: 347 347 277
Width: 500
GlyphClass: 2
Flags: W
LayerCount: 3
Back
Fore
SplineSet
275 740 m 1,0,-1
 388 740 l 1,1,-1
 239 592 l 1,2,-1
 179 592 l 1,3,-1
 275 740 l 1,0,-1
122 156 m 1,4,5
 128 109 128 109 154.5 81.5 c 128,-1,6
 181 54 181 54 250 54 c 0,7,8
 305 54 305 54 338.5 76.5 c 128,-1,9
 372 99 372 99 372 136 c 0,10,11
 372 165 372 165 353 182 c 128,-1,12
 334 199 334 199 291 209 c 2,13,-1
 213 228 l 2,14,15
 120 250 120 250 83.5 283.5 c 128,-1,16
 47 317 47 317 47 379 c 0,17,18
 47 452 47 452 102 495.5 c 128,-1,19
 157 539 157 539 248 539 c 128,-1,20
 339 539 339 539 388 497 c 128,-1,21
 437 455 437 455 438 378 c 1,22,-1
 350 378 l 1,23,24
 347 462 347 462 245 462 c 0,25,26
 194 462 194 462 164 440.5 c 128,-1,27
 134 419 134 419 134 383 c 0,28,29
 134 355 134 355 157 337.5 c 128,-1,30
 180 320 180 320 231 308 c 2,31,-1
 311 289 l 2,32,33
 389 270 389 270 424 235.5 c 128,-1,34
 459 201 459 201 459 143 c 0,35,36
 459 67 459 67 400.5 22 c 128,-1,37
 342 -23 342 -23 243 -23 c 0,38,39
 40 -23 40 -23 34 156 c 1,40,-1
 122 156 l 1,4,5
EndSplineSet
Validated: 1
Layer: 2
EndChar

StartChar: Scedilla
Encoding: 350 350 280
Width: 667
GlyphClass: 2
Flags: W
LayerCount: 3
Back
Fore
SplineSet
342 59 m 0,0,1
 398 59 398 59 437 72 c 128,-1,2
 476 85 476 85 494.5 106 c 128,-1,3
 513 127 513 127 520.5 147.5 c 128,-1,4
 528 168 528 168 528 191 c 0,5,6
 528 274 528 274 394 309 c 2,7,-1
 213 357 l 2,8,9
 70 394 70 394 70 527 c 0,10,11
 70 626 70 626 139.5 683.5 c 128,-1,12
 209 741 209 741 329 741 c 0,13,14
 455 741 455 741 525 681.5 c 128,-1,15
 595 622 595 622 596 515 c 1,16,-1
 508 515 l 1,17,18
 507 586 507 586 460 624.5 c 128,-1,19
 413 663 413 663 326 663 c 0,20,21
 252 663 252 663 207.5 629 c 128,-1,22
 163 595 163 595 163 540 c 0,23,24
 163 498 163 498 190 474 c 128,-1,25
 217 450 217 450 283 432 c 2,26,-1
 466 383 l 2,27,28
 540 363 540 363 580.5 315 c 128,-1,29
 621 267 621 267 621 200 c 0,30,31
 621 160 621 160 609 125.5 c 128,-1,32
 597 91 597 91 567.5 57 c 128,-1,33
 538 23 538 23 478.5 1.5 c 128,-1,34
 419 -20 419 -20 335 -24 c 1,35,-1
 320 -56 l 1,36,37
 334 -54 334 -54 348 -54 c 0,38,39
 386 -54 386 -54 406.5 -71.5 c 128,-1,40
 427 -89 427 -89 427 -121 c 0,41,42
 427 -164 427 -164 394 -189 c 128,-1,43
 361 -214 361 -214 304 -214 c 0,44,45
 257 -214 257 -214 179 -180 c 1,46,-1
 200 -140 l 1,47,48
 219 -150 219 -150 246 -161.5 c 128,-1,49
 273 -173 273 -173 298 -173 c 0,50,51
 321 -173 321 -173 336.5 -160 c 128,-1,52
 352 -147 352 -147 352 -128 c 0,53,54
 352 -91 352 -91 306 -91 c 0,55,56
 292 -91 292 -91 275 -98 c 1,57,-1
 264 -92 l 1,58,-1
 295 -23 l 1,59,60
 286 -20 286 -20 284 -20 c 2,61,-1
 240 -13 l 1,62,63
 151 6 151 6 99.5 70 c 128,-1,64
 48 134 48 134 48 225 c 2,65,-1
 48 232 l 1,66,-1
 136 232 l 1,67,-1
 136 227 l 2,68,69
 136 196 136 196 145.5 169 c 128,-1,70
 155 142 155 142 176.5 116 c 128,-1,71
 198 90 198 90 240.5 74.5 c 128,-1,72
 283 59 283 59 342 59 c 0,0,1
EndSplineSet
Validated: 1
Layer: 2
EndChar

StartChar: scedilla
Encoding: 351 351 281
Width: 500
GlyphClass: 2
Flags: W
LayerCount: 3
Back
Fore
SplineSet
122 156 m 1,0,1
 128 109 128 109 154.5 81.5 c 128,-1,2
 181 54 181 54 250 54 c 0,3,4
 305 54 305 54 338.5 76.5 c 128,-1,5
 372 99 372 99 372 136 c 0,6,7
 372 165 372 165 353 182 c 128,-1,8
 334 199 334 199 291 209 c 2,9,-1
 213 228 l 2,10,11
 120 250 120 250 83.5 283.5 c 128,-1,12
 47 317 47 317 47 379 c 0,13,14
 47 452 47 452 102 495.5 c 128,-1,15
 157 539 157 539 248 539 c 128,-1,16
 339 539 339 539 388 497 c 128,-1,17
 437 455 437 455 438 378 c 1,18,-1
 350 378 l 1,19,20
 347 462 347 462 245 462 c 0,21,22
 194 462 194 462 164 440.5 c 128,-1,23
 134 419 134 419 134 383 c 0,24,25
 134 355 134 355 157 337.5 c 128,-1,26
 180 320 180 320 231 308 c 2,27,-1
 311 289 l 2,28,29
 389 270 389 270 424 235.5 c 128,-1,30
 459 201 459 201 459 143 c 0,31,32
 459 96 459 96 433 57 c 128,-1,33
 407 18 407 18 361 -2 c 0,34,35
 323 -19 323 -19 244 -24 c 1,36,-1
 230 -56 l 1,37,38
 244 -54 244 -54 258 -54 c 0,39,40
 296 -54 296 -54 316.5 -71.5 c 128,-1,41
 337 -89 337 -89 337 -121 c 0,42,43
 337 -164 337 -164 304 -189 c 128,-1,44
 271 -214 271 -214 214 -214 c 0,45,46
 167 -214 167 -214 89 -180 c 1,47,-1
 110 -140 l 1,48,49
 129 -150 129 -150 156 -161.5 c 128,-1,50
 183 -173 183 -173 208 -173 c 0,51,52
 231 -173 231 -173 246.5 -160 c 128,-1,53
 262 -147 262 -147 262 -128 c 0,54,55
 262 -91 262 -91 216 -91 c 0,56,57
 202 -91 202 -91 185 -98 c 1,58,-1
 174 -92 l 1,59,-1
 205 -21 l 1,60,61
 37 -4 37 -4 34 156 c 1,62,-1
 122 156 l 1,0,1
EndSplineSet
Validated: 1
Layer: 2
EndChar

StartChar: uni0162
Encoding: 354 354 284
Width: 611
GlyphClass: 2
Flags: W
LayerCount: 3
Back
Fore
SplineSet
188 -139 m 1,0,1
 213 -152 213 -152 238 -162 c 128,-1,2
 263 -172 263 -172 286 -172 c 128,-1,3
 309 -172 309 -172 324.5 -159 c 128,-1,4
 340 -146 340 -146 340 -127 c 0,5,6
 340 -90 340 -90 294 -90 c 0,7,8
 279 -90 279 -90 263 -98 c 1,9,-1
 251 -91 l 1,10,-1
 293 0 l 1,11,-1
 261 0 l 1,12,-1
 261 647 l 1,13,-1
 21 647 l 1,14,-1
 21 729 l 1,15,-1
 593 729 l 1,16,-1
 593 647 l 1,17,-1
 354 647 l 1,18,-1
 354 0 l 1,19,-1
 331 0 l 1,20,-1
 308 -55 l 1,21,22
 321 -53 321 -53 336 -53 c 0,23,24
 374 -53 374 -53 394.5 -70.5 c 128,-1,25
 415 -88 415 -88 415 -120 c 0,26,27
 415 -163 415 -163 382 -188 c 128,-1,28
 349 -213 349 -213 292 -213 c 0,29,30
 245 -213 245 -213 167 -179 c 1,31,-1
 188 -139 l 1,0,1
EndSplineSet
Validated: 1
Layer: 2
EndChar

StartChar: uni0163
Encoding: 355 355 285
Width: 278
GlyphClass: 2
Flags: W
LayerCount: 3
Back
Fore
SplineSet
66 -153 m 1,0,1
 91 -166 91 -166 116 -176 c 128,-1,2
 141 -186 141 -186 164 -186 c 128,-1,3
 187 -186 187 -186 202.5 -173 c 128,-1,4
 218 -160 218 -160 218 -141 c 0,5,6
 218 -104 218 -104 172 -104 c 0,7,8
 157 -104 157 -104 141 -112 c 1,9,-1
 129 -105 l 1,10,-1
 167 -22 l 1,11,12
 127 -18 127 -18 106 3 c 128,-1,13
 85 24 85 24 85 60 c 2,14,-1
 85 456 l 1,15,-1
 14 456 l 1,16,-1
 14 524 l 1,17,-1
 85 524 l 1,18,-1
 85 668 l 1,19,-1
 168 668 l 1,20,-1
 168 524 l 1,21,-1
 254 524 l 1,22,-1
 254 456 l 1,23,-1
 168 456 l 1,24,-1
 168 97 l 2,25,26
 168 69 168 69 177.5 59.5 c 128,-1,27
 187 50 187 50 214 50 c 0,28,29
 239 50 239 50 254 54 c 1,30,-1
 254 -16 l 1,31,32
 226 -21 226 -21 205 -22 c 1,33,-1
 186 -69 l 1,34,35
 199 -67 199 -67 214 -67 c 0,36,37
 252 -67 252 -67 272.5 -84.5 c 128,-1,38
 293 -102 293 -102 293 -134 c 0,39,40
 293 -177 293 -177 260 -202 c 128,-1,41
 227 -227 227 -227 170 -227 c 0,42,43
 123 -227 123 -227 45 -193 c 1,44,-1
 66 -153 l 1,0,1
EndSplineSet
Validated: 1
Layer: 2
EndChar

StartChar: Tbar
Encoding: 358 358 288
Width: 611
GlyphClass: 2
Flags: W
LayerCount: 3
Back
Fore
SplineSet
120 357 m 1,0,-1
 120 429 l 1,1,-1
 261 429 l 1,2,-1
 261 647 l 1,3,-1
 21 647 l 1,4,-1
 21 729 l 1,5,-1
 593 729 l 1,6,-1
 593 647 l 1,7,-1
 354 647 l 1,8,-1
 354 429 l 1,9,-1
 495 429 l 1,10,-1
 495 357 l 1,11,-1
 354 357 l 1,12,-1
 354 0 l 1,13,-1
 261 0 l 1,14,-1
 261 357 l 1,15,-1
 120 357 l 1,0,-1
EndSplineSet
Validated: 1
Layer: 2
EndChar

StartChar: tbar
Encoding: 359 359 289
Width: 278
GlyphClass: 2
Flags: W
LayerCount: 3
Back
Fore
SplineSet
254 524 m 1,0,-1
 254 456 l 1,1,-1
 168 456 l 1,2,-1
 168 312 l 1,3,-1
 247 312 l 1,4,-1
 247 240 l 1,5,-1
 168 240 l 1,6,-1
 168 97 l 2,7,8
 168 69 168 69 177.5 59.5 c 128,-1,9
 187 50 187 50 214 50 c 0,10,11
 239 50 239 50 254 54 c 1,12,-1
 254 -16 l 1,13,14
 215 -23 215 -23 186 -23 c 0,15,16
 137 -23 137 -23 111 -1.5 c 128,-1,17
 85 20 85 20 85 60 c 2,18,-1
 85 240 l 1,19,-1
 9 240 l 1,20,-1
 9 312 l 1,21,-1
 85 312 l 1,22,-1
 85 456 l 1,23,-1
 14 456 l 1,24,-1
 14 524 l 1,25,-1
 85 524 l 1,26,-1
 85 668 l 1,27,-1
 168 668 l 1,28,-1
 168 524 l 1,29,-1
 254 524 l 1,0,-1
EndSplineSet
Validated: 1
Layer: 2
EndChar

StartChar: Umacron
Encoding: 362 362 292
Width: 722
GlyphClass: 2
Flags: W
LayerCount: 3
Back
Fore
SplineSet
502 871 m 1,0,-1
 502 801 l 1,1,-1
 228 801 l 1,2,-1
 228 871 l 1,3,-1
 502 871 l 1,0,-1
552 729 m 1,4,-1
 645 729 l 1,5,-1
 645 217 l 2,6,7
 645 107 645 107 568.5 42 c 128,-1,8
 492 -23 492 -23 364 -23 c 0,9,10
 234 -23 234 -23 159.5 41.5 c 128,-1,11
 85 106 85 106 85 217 c 2,12,-1
 85 729 l 1,13,-1
 178 729 l 1,14,-1
 178 217 l 2,15,16
 178 138 178 138 228.5 98.5 c 128,-1,17
 279 59 279 59 364 59 c 0,18,19
 452 59 452 59 502 101 c 128,-1,20
 552 143 552 143 552 217 c 2,21,-1
 552 729 l 1,4,-1
EndSplineSet
Validated: 1
Layer: 2
EndChar

StartChar: umacron
Encoding: 363 363 293
Width: 556
GlyphClass: 2
Flags: W
LayerCount: 3
Back
Fore
SplineSet
410 669 m 1,0,-1
 410 599 l 1,1,-1
 136 599 l 1,2,-1
 136 669 l 1,3,-1
 410 669 l 1,0,-1
482 0 m 1,4,-1
 407 0 l 1,5,-1
 407 73 l 1,6,7
 370 21 370 21 330 -1 c 128,-1,8
 290 -23 290 -23 232 -23 c 0,9,10
 156 -23 156 -23 110.5 16 c 128,-1,11
 65 55 65 55 65 120 c 2,12,-1
 65 524 l 1,13,-1
 148 524 l 1,14,-1
 148 153 l 2,15,16
 148 106 148 106 177 78 c 128,-1,17
 206 50 206 50 256 50 c 0,18,19
 321 50 321 50 360 98.5 c 128,-1,20
 399 147 399 147 399 227 c 2,21,-1
 399 524 l 1,22,-1
 482 524 l 1,23,-1
 482 0 l 1,4,-1
EndSplineSet
Validated: 1
Layer: 2
EndChar

StartChar: Uogonek
Encoding: 370 370 300
Width: 722
GlyphClass: 2
Flags: W
LayerCount: 3
Back
Fore
SplineSet
527 -205 m 0,0,1
 470 -205 470 -205 432 -179 c 128,-1,2
 394 -153 394 -153 394 -112 c 0,3,4
 394 -81 394 -81 411 -57.5 c 128,-1,5
 428 -34 428 -34 467 -10 c 1,6,7
 410 -23 410 -23 366 -23 c 0,8,9
 235 -23 235 -23 160 41 c 128,-1,10
 85 105 85 105 85 217 c 2,11,-1
 85 729 l 1,12,-1
 178 729 l 1,13,-1
 178 217 l 2,14,15
 178 138 178 138 228.5 98.5 c 128,-1,16
 279 59 279 59 364 59 c 0,17,18
 452 59 452 59 502 101 c 128,-1,19
 552 143 552 143 552 217 c 2,20,-1
 552 729 l 1,21,-1
 645 729 l 1,22,-1
 645 217 l 2,23,24
 645 165 645 165 626.5 121.5 c 128,-1,25
 608 78 608 78 582 49.5 c 128,-1,26
 556 21 556 21 530 -3 c 128,-1,27
 504 -27 504 -27 485.5 -53 c 128,-1,28
 467 -79 467 -79 467 -106 c 0,29,30
 467 -160 467 -160 539 -160 c 0,31,32
 576 -160 576 -160 602 -150 c 1,33,-1
 602 -195 l 1,34,35
 554 -205 554 -205 527 -205 c 0,0,1
EndSplineSet
Validated: 1
Layer: 2
EndChar

StartChar: uogonek
Encoding: 371 371 301
Width: 556
GlyphClass: 2
Flags: W
LayerCount: 3
Back
Fore
SplineSet
482 524 m 1,0,-1
 482 0 l 1,1,2
 447 -20 447 -20 426 -49.5 c 128,-1,3
 405 -79 405 -79 405 -108 c 0,4,5
 405 -132 405 -132 423 -146 c 128,-1,6
 441 -160 441 -160 472 -160 c 0,7,8
 495 -160 495 -160 521 -150 c 1,9,-1
 521 -195 l 1,10,11
 516 -196 516 -196 496.5 -200 c 128,-1,12
 477 -204 477 -204 469 -204 c 0,13,14
 407 -204 407 -204 370 -179 c 128,-1,15
 333 -154 333 -154 333 -111 c 0,16,17
 333 -49 333 -49 429 0 c 1,18,-1
 407 0 l 1,19,-1
 407 73 l 1,20,21
 370 21 370 21 330 -1 c 128,-1,22
 290 -23 290 -23 232 -23 c 0,23,24
 156 -23 156 -23 110.5 16 c 128,-1,25
 65 55 65 55 65 120 c 2,26,-1
 65 524 l 1,27,-1
 148 524 l 1,28,-1
 148 153 l 2,29,30
 148 106 148 106 177 78 c 128,-1,31
 206 50 206 50 256 50 c 0,32,33
 321 50 321 50 360 98.5 c 128,-1,34
 399 147 399 147 399 227 c 2,35,-1
 399 524 l 1,36,-1
 482 524 l 1,0,-1
EndSplineSet
Validated: 1
Layer: 2
EndChar

StartChar: Zacute
Encoding: 377 377 307
Width: 611
GlyphClass: 2
Flags: W
LayerCount: 3
Back
Fore
SplineSet
348 939 m 1,0,-1
 461 939 l 1,1,-1
 312 791 l 1,2,-1
 252 791 l 1,3,-1
 348 939 l 1,0,-1
581 729 m 1,4,-1
 581 645 l 1,5,-1
 145 82 l 1,6,-1
 583 82 l 1,7,-1
 583 0 l 1,8,-1
 28 0 l 1,9,-1
 28 82 l 1,10,-1
 466 647 l 1,11,-1
 56 647 l 1,12,-1
 56 729 l 1,13,-1
 581 729 l 1,4,-1
EndSplineSet
Validated: 1
Layer: 2
EndChar

StartChar: zacute
Encoding: 378 378 308
Width: 500
GlyphClass: 2
Flags: W
LayerCount: 3
Back
Fore
SplineSet
278 739 m 1,0,-1
 391 739 l 1,1,-1
 242 591 l 1,2,-1
 182 591 l 1,3,-1
 278 739 l 1,0,-1
443 524 m 1,4,-1
 443 450 l 1,5,-1
 132 73 l 1,6,-1
 457 73 l 1,7,-1
 457 0 l 1,8,-1
 31 0 l 1,9,-1
 31 75 l 1,10,-1
 344 451 l 1,11,-1
 52 451 l 1,12,-1
 52 524 l 1,13,-1
 443 524 l 1,4,-1
EndSplineSet
Validated: 1
Layer: 2
EndChar

StartChar: longs
Encoding: 383 383 313
Width: 278
GlyphClass: 2
Flags: W
LayerCount: 3
Back
Fore
SplineSet
171 0 m 1,0,-1
 88 0 l 1,1,-1
 88 456 l 1,2,-1
 18 456 l 1,3,-1
 18 524 l 1,4,-1
 88 524 l 1,5,-1
 88 613 l 2,6,7
 88 669 88 669 120.5 700.5 c 128,-1,8
 153 732 153 732 211 732 c 0,9,10
 234 732 234 732 258 727 c 1,11,-1
 258 658 l 1,12,13
 239 659 239 659 229 659 c 0,14,15
 171 659 171 659 171 606 c 2,16,-1
 171 0 l 1,0,-1
EndSplineSet
Validated: 1
Layer: 2
EndChar

StartChar: uni0180
Encoding: 384 384 314
Width: 556
GlyphClass: 2
Flags: W
LayerCount: 3
Back
Fore
SplineSet
89 653 m 1,0,-1
 89 729 l 1,1,-1
 172 729 l 1,2,-1
 172 653 l 1,3,-1
 322 653 l 1,4,-1
 322 600 l 1,5,-1
 172 600 l 1,6,-1
 172 461 l 1,7,8
 236 539 236 539 333 539 c 0,9,10
 434 539 434 539 495.5 463.5 c 128,-1,11
 557 388 557 388 557 264 c 0,12,13
 557 134 557 134 495 55.5 c 128,-1,14
 433 -23 433 -23 331 -23 c 0,15,16
 233 -23 233 -23 163 59 c 1,17,-1
 163 0 l 1,18,-1
 89 0 l 1,19,-1
 89 600 l 1,20,-1
 26 600 l 1,21,-1
 26 653 l 1,22,-1
 89 653 l 1,0,-1
318 457 m 0,23,24
 251 457 251 457 211.5 402.5 c 128,-1,25
 172 348 172 348 172 256 c 0,26,27
 172 167 172 167 212 113 c 128,-1,28
 252 59 252 59 318 59 c 0,29,30
 386 59 386 59 428 114 c 128,-1,31
 470 169 470 169 470 258 c 128,-1,32
 470 347 470 347 428 402 c 128,-1,33
 386 457 386 457 318 457 c 0,23,24
EndSplineSet
Validated: 1
Layer: 2
EndChar

StartChar: uni0181
Encoding: 385 385 315
Width: 854
GlyphClass: 2
Flags: W
LayerCount: 3
Back
Fore
SplineSet
586 82 m 2,0,1
 635 82 635 82 666 103.5 c 128,-1,2
 697 125 697 125 707 151 c 128,-1,3
 717 177 717 177 717 207 c 0,4,5
 717 264 717 264 683 298.5 c 128,-1,6
 649 333 649 333 586 333 c 2,7,-1
 359 333 l 1,8,-1
 359 82 l 1,9,-1
 586 82 l 2,0,1
539 647 m 2,10,-1
 359 647 l 1,11,-1
 359 415 l 1,12,-1
 539 415 l 2,13,14
 685 415 685 415 685 531 c 128,-1,15
 685 647 685 647 539 647 c 2,10,-1
171 448 m 0,16,17
 48 448 48 448 48 602 c 0,18,19
 48 651 48 651 78.5 690 c 128,-1,20
 109 729 109 729 180 729 c 2,21,-1
 562 729 l 2,22,23
 623 729 623 729 668 711 c 128,-1,24
 713 693 713 693 735.5 663.5 c 128,-1,25
 758 634 758 634 768 604.5 c 128,-1,26
 778 575 778 575 778 544 c 0,27,28
 778 432 778 432 677 385 c 1,29,30
 747 358 747 358 778.5 316 c 128,-1,31
 810 274 810 274 810 208 c 0,32,33
 810 114 810 114 751 57 c 128,-1,34
 692 0 692 0 595 0 c 2,35,-1
 266 0 l 1,36,-1
 266 642 l 1,37,-1
 184 642 l 2,38,39
 135 642 135 642 135 584 c 0,40,41
 135 561 135 561 148.5 546 c 128,-1,42
 162 531 162 531 189 531 c 0,43,44
 191 531 191 531 199 531.5 c 128,-1,45
 207 532 207 532 218 532 c 1,46,-1
 218 453 l 1,47,48
 194 448 194 448 171 448 c 0,16,17
EndSplineSet
Validated: 1
Layer: 2
EndChar

StartChar: uni0183
Encoding: 387 387 317
Width: 556
GlyphClass: 2
Flags: W
LayerCount: 3
Back
Fore
SplineSet
283 461 m 0,0,1
 217 461 217 461 177 405.5 c 128,-1,2
 137 350 137 350 137 258 c 128,-1,3
 137 166 137 166 177 110.5 c 128,-1,4
 217 55 217 55 283 55 c 0,5,6
 351 55 351 55 393.5 110.5 c 128,-1,7
 436 166 436 166 436 255 c 0,8,9
 436 349 436 349 394.5 405 c 128,-1,10
 353 461 353 461 283 461 c 0,0,1
54 0 m 1,11,-1
 54 729 l 1,12,-1
 445 729 l 1,13,-1
 445 656 l 1,14,-1
 137 656 l 1,15,-1
 137 453 l 1,16,17
 194 539 194 539 299 539 c 0,18,19
 403 539 403 539 463 465 c 128,-1,20
 523 391 523 391 523 264 c 0,21,22
 523 134 523 134 461 55.5 c 128,-1,23
 399 -23 399 -23 295 -23 c 0,24,25
 188 -23 188 -23 129 67 c 1,26,-1
 129 0 l 1,27,-1
 54 0 l 1,11,-1
EndSplineSet
Validated: 1
Layer: 2
EndChar

StartChar: uni0184
Encoding: 388 388 318
Width: 667
GlyphClass: 2
Flags: W
LayerCount: 3
Back
Fore
SplineSet
172 82 m 1,0,-1
 384 82 l 2,1,2
 448 82 448 82 489 123 c 128,-1,3
 530 164 530 164 530 225 c 0,4,5
 530 289 530 289 489.5 329 c 128,-1,6
 449 369 449 369 384 369 c 2,7,-1
 172 369 l 1,8,-1
 172 82 l 1,0,-1
79 729 m 1,9,-1
 172 729 l 1,10,-1
 172 451 l 1,11,-1
 337 451 l 2,12,13
 487 451 487 451 555 391 c 128,-1,14
 623 331 623 331 623 229 c 2,15,-1
 623 226 l 2,16,17
 623 127 623 127 558 63.5 c 128,-1,18
 493 0 493 0 393 0 c 2,19,-1
 79 0 l 1,20,-1
 79 451 l 1,21,-1
 -49 590 l 1,22,-1
 79 729 l 1,9,-1
EndSplineSet
Validated: 1
Layer: 2
EndChar

StartChar: uni0185
Encoding: 389 389 319
Width: 556
GlyphClass: 2
Flags: W
LayerCount: 3
Back
Fore
SplineSet
283 461 m 0,0,1
 217 461 217 461 177 405.5 c 128,-1,2
 137 350 137 350 137 258 c 128,-1,3
 137 166 137 166 177 110.5 c 128,-1,4
 217 55 217 55 283 55 c 0,5,6
 351 55 351 55 393.5 110.5 c 128,-1,7
 436 166 436 166 436 255 c 0,8,9
 436 349 436 349 394.5 405 c 128,-1,10
 353 461 353 461 283 461 c 0,0,1
54 729 m 1,11,-1
 137 729 l 1,12,-1
 137 453 l 1,13,14
 194 539 194 539 299 539 c 0,15,16
 403 539 403 539 463 465 c 128,-1,17
 523 391 523 391 523 264 c 0,18,19
 523 134 523 134 461 55.5 c 128,-1,20
 399 -23 399 -23 295 -23 c 0,21,22
 188 -23 188 -23 129 67 c 1,23,-1
 129 0 l 1,24,-1
 54 0 l 1,25,-1
 54 451 l 1,26,-1
 -39 590 l 1,27,-1
 54 729 l 1,11,-1
EndSplineSet
Validated: 1
Layer: 2
EndChar

StartChar: uni0187
Encoding: 391 391 321
Width: 722
GlyphClass: 2
Flags: W
LayerCount: 3
Back
Fore
SplineSet
48 356 m 0,0,1
 48 406 48 406 56.5 455 c 128,-1,2
 65 504 65 504 89 557 c 128,-1,3
 113 610 113 610 148.5 649.5 c 128,-1,4
 184 689 184 689 244.5 715 c 128,-1,5
 305 741 305 741 381 741 c 0,6,7
 519 741 519 741 591 662 c 1,8,9
 622 721 622 721 702 721 c 0,10,11
 725 721 725 721 749 716 c 1,12,-1
 749 637 l 1,13,14
 730 638 730 638 720 638 c 0,15,16
 690 638 690 638 676 626 c 128,-1,17
 662 614 662 614 662 585 c 2,18,-1
 662 503 l 1,19,-1
 567 503 l 1,20,21
 551 581 551 581 504 620 c 128,-1,22
 457 659 457 659 370 659 c 0,23,24
 264 659 264 659 202.5 578 c 128,-1,25
 141 497 141 497 141 357 c 0,26,27
 141 220 141 220 205 139.5 c 128,-1,28
 269 59 269 59 378 59 c 0,29,30
 468 59 468 59 516 109.5 c 128,-1,31
 564 160 564 160 581 266 c 1,32,-1
 677 266 l 1,33,34
 644 -23 644 -23 377 -23 c 0,35,36
 302 -23 302 -23 242.5 2.5 c 128,-1,37
 183 28 183 28 147.5 67 c 128,-1,38
 112 106 112 106 88.5 158.5 c 128,-1,39
 65 211 65 211 56.5 259 c 128,-1,40
 48 307 48 307 48 356 c 0,0,1
EndSplineSet
Validated: 1
Layer: 2
EndChar

StartChar: uni0188
Encoding: 392 392 322
Width: 500
GlyphClass: 2
Flags: W
LayerCount: 3
Back
Fore
SplineSet
404 494 m 1,0,1
 429 556 429 556 511 556 c 0,2,3
 534 556 534 556 558 551 c 1,4,-1
 558 482 l 1,5,6
 539 483 539 483 529 483 c 0,7,8
 499 483 499 483 485 471 c 128,-1,9
 471 459 471 459 471 430 c 2,10,-1
 471 348 l 1,11,-1
 387 348 l 1,12,13
 379 403 379 403 347 432.5 c 128,-1,14
 315 462 315 462 263 462 c 0,15,16
 195 462 195 462 156.5 406.5 c 128,-1,17
 118 351 118 351 118 253 c 0,18,19
 118 160 118 160 157 107 c 128,-1,20
 196 54 196 54 265 54 c 0,21,22
 372 54 372 54 393 180 c 1,23,-1
 477 180 l 1,24,25
 469 84 469 84 413 30.5 c 128,-1,26
 357 -23 357 -23 263 -23 c 0,27,28
 156 -23 156 -23 93.5 51.5 c 128,-1,29
 31 126 31 126 31 253 c 0,30,31
 31 383 31 383 94.5 461 c 128,-1,32
 158 539 158 539 264 539 c 0,33,34
 348 539 348 539 404 494 c 1,0,1
EndSplineSet
Validated: 1
Layer: 2
EndChar

StartChar: uni018A
Encoding: 394 394 324
Width: 899
GlyphClass: 2
Flags: W
LayerCount: 3
Back
Fore
SplineSet
359 82 m 1,0,-1
 531 82 l 2,1,2
 639 82 639 82 695 154 c 128,-1,3
 751 226 751 226 751 364 c 0,4,5
 751 503 751 503 695 575 c 128,-1,6
 639 647 639 647 531 647 c 2,7,-1
 359 647 l 1,8,-1
 359 82 l 1,0,-1
171 448 m 0,9,10
 48 448 48 448 48 602 c 0,11,12
 48 651 48 651 78.5 690 c 128,-1,13
 109 729 109 729 180 729 c 2,14,-1
 547 729 l 2,15,16
 686 729 686 729 765 632 c 128,-1,17
 844 535 844 535 844 365 c 128,-1,18
 844 195 844 195 764.5 97.5 c 128,-1,19
 685 0 685 0 547 0 c 2,20,-1
 266 0 l 1,21,-1
 266 642 l 1,22,-1
 184 642 l 2,23,24
 135 642 135 642 135 584 c 0,25,26
 135 561 135 561 148.5 546 c 128,-1,27
 162 531 162 531 189 531 c 0,28,29
 191 531 191 531 199 531.5 c 128,-1,30
 207 532 207 532 218 532 c 1,31,-1
 218 453 l 1,32,33
 194 448 194 448 171 448 c 0,9,10
EndSplineSet
Validated: 1
Layer: 2
EndChar

StartChar: uni018B
Encoding: 395 395 325
Width: 667
GlyphClass: 2
Flags: W
LayerCount: 3
Back
Fore
SplineSet
79 218 m 2,0,-1
 79 220 l 2,1,2
 79 435 79 435 350 435 c 2,3,-1
 530 435 l 1,4,-1
 530 647 l 1,5,-1
 134 647 l 1,6,-1
 134 729 l 1,7,-1
 623 729 l 1,8,-1
 623 0 l 1,9,-1
 294 0 l 2,10,11
 233 0 233 0 188.5 21.5 c 128,-1,12
 144 43 144 43 121.5 77.5 c 128,-1,13
 99 112 99 112 89 147 c 128,-1,14
 79 182 79 182 79 218 c 2,0,-1
303 82 m 2,15,-1
 530 82 l 1,16,-1
 530 353 l 1,17,-1
 303 353 l 2,18,19
 264 353 264 353 236 339.5 c 128,-1,20
 208 326 208 326 195.5 304 c 128,-1,21
 183 282 183 282 177.5 261 c 128,-1,22
 172 240 172 240 172 217 c 128,-1,23
 172 194 172 194 177.5 173.5 c 128,-1,24
 183 153 183 153 195.5 130.5 c 128,-1,25
 208 108 208 108 236 95 c 128,-1,26
 264 82 264 82 303 82 c 2,15,-1
EndSplineSet
Validated: 1
Layer: 2
EndChar

StartChar: uni018C
Encoding: 396 396 326
Width: 556
GlyphClass: 2
Flags: W
LayerCount: 3
Back
Fore
SplineSet
294 461 m 0,0,1
 224 461 224 461 182.5 405 c 128,-1,2
 141 349 141 349 141 255 c 0,3,4
 141 166 141 166 183.5 110.5 c 128,-1,5
 226 55 226 55 294 55 c 0,6,7
 360 55 360 55 400 110.5 c 128,-1,8
 440 166 440 166 440 258 c 128,-1,9
 440 350 440 350 400 405.5 c 128,-1,10
 360 461 360 461 294 461 c 0,0,1
523 0 m 1,11,-1
 448 0 l 1,12,-1
 448 67 l 1,13,14
 389 -23 389 -23 282 -23 c 0,15,16
 178 -23 178 -23 116 55.5 c 128,-1,17
 54 134 54 134 54 264 c 0,18,19
 54 391 54 391 114 465 c 128,-1,20
 174 539 174 539 278 539 c 0,21,22
 383 539 383 539 440 453 c 1,23,-1
 440 656 l 1,24,-1
 132 656 l 1,25,-1
 132 729 l 1,26,-1
 523 729 l 1,27,-1
 523 0 l 1,11,-1
EndSplineSet
Validated: 1
Layer: 2
EndChar

StartChar: uni018E
Encoding: 398 398 328
Width: 667
GlyphClass: 2
Flags: W
LayerCount: 3
Back
Fore
SplineSet
520 332 m 1,0,-1
 123 332 l 1,1,-1
 123 414 l 1,2,-1
 520 414 l 1,3,-1
 520 647 l 1,4,-1
 108 647 l 1,5,-1
 108 729 l 1,6,-1
 613 729 l 1,7,-1
 613 0 l 1,8,-1
 90 0 l 1,9,-1
 90 82 l 1,10,-1
 520 82 l 1,11,-1
 520 332 l 1,0,-1
EndSplineSet
Validated: 1
Layer: 2
EndChar

StartChar: uni0190
Encoding: 400 400 330
Width: 667
GlyphClass: 2
Flags: W
LayerCount: 3
Back
Fore
SplineSet
333 -23 m 0,0,1
 252 -23 252 -23 193 -1.5 c 128,-1,2
 134 20 134 20 104 55.5 c 128,-1,3
 74 91 74 91 61 126.5 c 128,-1,4
 48 162 48 162 48 200 c 0,5,6
 48 325 48 325 178 374 c 1,7,8
 73 419 73 419 73 527 c 0,9,10
 73 626 73 626 142.5 683.5 c 128,-1,11
 212 741 212 741 332 741 c 0,12,13
 458 741 458 741 528 681.5 c 128,-1,14
 598 622 598 622 599 515 c 1,15,-1
 511 515 l 1,16,17
 510 586 510 586 463 624.5 c 128,-1,18
 416 663 416 663 329 663 c 0,19,20
 255 663 255 663 210.5 629 c 128,-1,21
 166 595 166 595 166 540 c 0,22,23
 166 494 166 494 213.5 448.5 c 128,-1,24
 261 403 261 403 324 403 c 2,25,-1
 412 403 l 1,26,-1
 412 321 l 1,27,-1
 304 321 l 2,28,29
 237 321 237 321 189 279 c 128,-1,30
 141 237 141 237 141 191 c 0,31,32
 141 169 141 169 148.5 148.5 c 128,-1,33
 156 128 156 128 174.5 106.5 c 128,-1,34
 193 85 193 85 232 72 c 128,-1,35
 271 59 271 59 327 59 c 0,36,37
 386 59 386 59 428.5 74 c 128,-1,38
 471 89 471 89 492.5 115 c 128,-1,39
 514 141 514 141 523.5 168.5 c 128,-1,40
 533 196 533 196 533 227 c 2,41,-1
 533 232 l 1,42,-1
 621 232 l 1,43,44
 620 158 620 158 593 105.5 c 128,-1,45
 566 53 566 53 521.5 26.5 c 128,-1,46
 477 0 477 0 431 -11.5 c 128,-1,47
 385 -23 385 -23 333 -23 c 0,0,1
EndSplineSet
Validated: 1
Layer: 2
EndChar

StartChar: uni0191
Encoding: 401 401 331
Width: 611
GlyphClass: 2
Flags: W
LayerCount: 3
Back
Fore
SplineSet
90 -76 m 2,0,-1
 90 729 l 1,1,-1
 579 729 l 1,2,-1
 579 647 l 1,3,-1
 183 647 l 1,4,-1
 183 414 l 1,5,-1
 531 414 l 1,6,-1
 531 332 l 1,7,-1
 183 332 l 1,8,-1
 183 -109 l 2,9,10
 183 -162 183 -162 142.5 -190 c 128,-1,11
 102 -218 102 -218 30 -218 c 0,12,13
 17 -218 17 -218 2 -215 c 1,14,-1
 2 -134 l 1,15,16
 19 -135 19 -135 22 -135 c 0,17,18
 90 -135 90 -135 90 -76 c 2,0,-1
EndSplineSet
Validated: 1
Layer: 2
EndChar

StartChar: florin
Encoding: 402 402 332
Width: 278
GlyphClass: 2
Flags: W
LayerCount: 3
Back
Fore
SplineSet
258 524 m 1,0,-1
 258 456 l 1,1,-1
 171 456 l 1,2,-1
 171 -109 l 2,3,4
 171 -218 171 -218 28 -218 c 0,5,6
 15 -218 15 -218 0 -215 c 1,7,-1
 0 -144 l 1,8,9
 17 -145 17 -145 20 -145 c 0,10,11
 58 -145 58 -145 73 -130 c 128,-1,12
 88 -115 88 -115 88 -76 c 2,13,-1
 88 456 l 1,14,-1
 18 456 l 1,15,-1
 18 524 l 1,16,-1
 88 524 l 1,17,-1
 88 613 l 2,18,19
 88 669 88 669 120.5 700.5 c 128,-1,20
 153 732 153 732 211 732 c 0,21,22
 234 732 234 732 258 727 c 1,23,-1
 258 658 l 1,24,25
 239 659 239 659 229 659 c 0,26,27
 171 659 171 659 171 606 c 2,28,-1
 171 524 l 1,29,-1
 258 524 l 1,0,-1
EndSplineSet
Validated: 1
Layer: 2
EndChar

StartChar: uni0193
Encoding: 403 403 333
Width: 778
GlyphClass: 2
Flags: W
LayerCount: 3
Back
Fore
SplineSet
137 362 m 0,0,1
 137 324 137 324 144 285.5 c 128,-1,2
 151 247 151 247 169 205 c 128,-1,3
 187 163 187 163 215.5 131.5 c 128,-1,4
 244 100 244 100 291 79.5 c 128,-1,5
 338 59 338 59 398 59 c 0,6,7
 498 59 498 59 562.5 122 c 128,-1,8
 627 185 627 185 627 283 c 2,9,-1
 627 303 l 1,10,-1
 405 303 l 1,11,-1
 405 385 l 1,12,-1
 709 385 l 1,13,-1
 709 -4 l 1,14,-1
 650 -4 l 1,15,-1
 627 93 l 1,16,17
 523 -23 523 -23 378 -23 c 0,18,19
 230 -23 230 -23 137 83 c 128,-1,20
 44 189 44 189 44 357 c 0,21,22
 44 405 44 405 53 453.5 c 128,-1,23
 62 502 62 502 87 555 c 128,-1,24
 112 608 112 608 149.5 648 c 128,-1,25
 187 688 187 688 250.5 714.5 c 128,-1,26
 314 741 314 741 394 741 c 0,27,28
 540 741 540 741 624 659 c 1,29,30
 652 726 652 726 739 726 c 0,31,32
 762 726 762 726 786 721 c 1,33,-1
 786 642 l 1,34,35
 767 643 767 643 757 643 c 0,36,37
 727 643 727 643 713 631 c 128,-1,38
 699 619 699 619 699 590 c 2,39,-1
 699 508 l 1,40,-1
 604 508 l 1,41,42
 589 578 589 578 532.5 618.5 c 128,-1,43
 476 659 476 659 393 659 c 0,44,45
 277 659 277 659 207 577.5 c 128,-1,46
 137 496 137 496 137 362 c 0,0,1
EndSplineSet
Validated: 1
Layer: 2
EndChar

StartChar: uni0194
Encoding: 404 404 334
Width: 667
GlyphClass: 2
Flags: W
LayerCount: 3
Back
Fore
SplineSet
342 67 m 0,0,1
 371 67 371 67 371 103 c 0,2,3
 371 138 371 138 343 194 c 1,4,5
 311 135 311 135 311 103 c 0,6,7
 311 85 311 85 320.5 76 c 128,-1,8
 330 67 330 67 342 67 c 0,0,1
217 102 m 0,9,10
 217 133 217 133 229 164 c 128,-1,11
 241 195 241 195 294 286 c 1,12,-1
 13 729 l 1,13,-1
 128 729 l 1,14,-1
 342 374 l 1,15,-1
 550 729 l 1,16,-1
 661 729 l 1,17,-1
 387 286 l 1,18,19
 464 183 464 183 464 110 c 0,20,21
 464 48 464 48 428 10.5 c 128,-1,22
 392 -27 392 -27 342 -27 c 0,23,24
 298 -27 298 -27 267.5 -0.5 c 128,-1,25
 237 26 237 26 227 53.5 c 128,-1,26
 217 81 217 81 217 102 c 0,9,10
EndSplineSet
Validated: 1
Layer: 2
EndChar

StartChar: uni0195
Encoding: 405 405 335
Width: 889
GlyphClass: 2
Flags: W
LayerCount: 3
Back
Fore
SplineSet
559 -23 m 2,0,-1
 504 -23 l 2,1,2
 455 -23 455 -23 429 -1.5 c 128,-1,3
 403 20 403 20 403 60 c 2,4,-1
 403 363 l 2,5,6
 403 418 403 418 369.5 442 c 128,-1,7
 336 466 336 466 295 466 c 0,8,9
 231 466 231 466 192 417.5 c 128,-1,10
 153 369 153 369 153 289 c 2,11,-1
 153 0 l 1,12,-1
 70 0 l 1,13,-1
 70 729 l 1,14,-1
 153 729 l 1,15,-1
 153 452 l 1,16,17
 190 500 190 500 227.5 519.5 c 128,-1,18
 265 539 265 539 321 539 c 0,19,20
 397 539 397 539 441.5 500.5 c 128,-1,21
 486 462 486 462 486 396 c 2,22,-1
 486 97 l 2,23,24
 486 50 486 50 559 50 c 0,25,26
 604 50 604 50 639 67.5 c 128,-1,27
 674 85 674 85 693 109.5 c 128,-1,28
 712 134 712 134 724 164.5 c 128,-1,29
 736 195 736 195 740 216.5 c 128,-1,30
 744 238 744 238 744 254 c 0,31,32
 744 300 744 300 717.5 358 c 128,-1,33
 691 416 691 416 619 467 c 1,34,-1
 721 471 l 1,35,36
 770 433 770 433 801.5 370.5 c 128,-1,37
 833 308 833 308 833 249 c 0,38,39
 833 230 833 230 826 200 c 128,-1,40
 819 170 819 170 799.5 130 c 128,-1,41
 780 90 780 90 750.5 57 c 128,-1,42
 721 24 721 24 671 0.5 c 128,-1,43
 621 -23 621 -23 559 -23 c 2,0,-1
EndSplineSet
Validated: 1
Layer: 2
EndChar

StartChar: uni0196
Encoding: 406 406 336
Width: 278
GlyphClass: 2
Flags: W
LayerCount: 3
Back
Fore
SplineSet
149 729 m 1,0,-1
 149 97 l 2,1,2
 149 69 149 69 158.5 59.5 c 128,-1,3
 168 50 168 50 195 50 c 0,4,5
 220 50 220 50 235 54 c 1,6,-1
 235 -16 l 1,7,8
 196 -23 196 -23 167 -23 c 0,9,10
 118 -23 118 -23 92 -1.5 c 128,-1,11
 66 20 66 20 66 60 c 2,12,-1
 66 729 l 1,13,-1
 149 729 l 1,0,-1
EndSplineSet
Validated: 1
Layer: 2
EndChar

StartChar: uni0197
Encoding: 407 407 337
Width: 333
GlyphClass: 2
Flags: W
LayerCount: 3
Back
Fore
SplineSet
119 339 m 1,0,-1
 0 339 l 1,1,-1
 0 406 l 1,2,-1
 119 406 l 1,3,-1
 119 729 l 1,4,-1
 213 729 l 1,5,-1
 213 406 l 1,6,-1
 333 406 l 1,7,-1
 333 339 l 1,8,-1
 213 339 l 1,9,-1
 213 0 l 1,10,-1
 119 0 l 1,11,-1
 119 339 l 1,0,-1
EndSplineSet
Validated: 1
Layer: 2
EndChar

StartChar: uni0198
Encoding: 408 408 338
Width: 667
GlyphClass: 2
Flags: W
LayerCount: 3
Back
Fore
SplineSet
172 255 m 1,0,-1
 172 0 l 1,1,-1
 79 0 l 1,2,-1
 79 729 l 1,3,-1
 172 729 l 1,4,-1
 172 360 l 1,5,-1
 460 655 l 2,6,7
 525 716 525 716 586 716 c 0,8,9
 638 716 638 716 672 685 c 1,10,-1
 616 623 l 1,11,12
 606 633 606 633 590 633 c 0,13,14
 558 633 558 633 527 602 c 2,15,-1
 358 432 l 1,16,-1
 658 0 l 1,17,-1
 548 0 l 1,18,-1
 291 374 l 1,19,-1
 172 255 l 1,0,-1
EndSplineSet
Validated: 1
Layer: 2
EndChar

StartChar: uni0199
Encoding: 409 409 339
Width: 500
GlyphClass: 2
Flags: W
LayerCount: 3
Back
Fore
SplineSet
58 0 m 1,0,-1
 58 613 l 2,1,2
 58 669 58 669 90.5 700.5 c 128,-1,3
 123 732 123 732 181 732 c 0,4,5
 204 732 204 732 228 727 c 1,6,-1
 228 658 l 1,7,8
 209 659 209 659 199 659 c 0,9,10
 141 659 141 659 141 606 c 2,11,-1
 141 302 l 1,12,-1
 363 524 l 1,13,-1
 470 524 l 1,14,-1
 288 343 l 1,15,-1
 502 0 l 1,16,-1
 399 0 l 1,17,-1
 222 284 l 1,18,-1
 141 204 l 1,19,-1
 141 0 l 1,20,-1
 58 0 l 1,0,-1
EndSplineSet
Validated: 1
Layer: 2
EndChar

StartChar: uni019A
Encoding: 410 410 340
Width: 333
GlyphClass: 2
Flags: W
LayerCount: 3
Back
Fore
SplineSet
124 339 m 1,0,-1
 0 339 l 1,1,-1
 0 406 l 1,2,-1
 124 406 l 1,3,-1
 124 729 l 1,4,-1
 208 729 l 1,5,-1
 208 406 l 1,6,-1
 333 406 l 1,7,-1
 333 339 l 1,8,-1
 208 339 l 1,9,-1
 208 0 l 1,10,-1
 124 0 l 1,11,-1
 124 339 l 1,0,-1
EndSplineSet
Validated: 1
Layer: 2
EndChar

StartChar: uni019B
Encoding: 411 411 341
Width: 560
GlyphClass: 2
Flags: W
LayerCount: 3
Back
Fore
SplineSet
132 732 m 0,0,1
 174 732 174 732 203 714 c 128,-1,2
 232 696 232 696 262 643 c 1,3,-1
 398 738 l 1,4,-1
 398 662 l 1,5,-1
 287 585 l 1,6,-1
 474 92 l 2,7,8
 482 73 482 73 502 73 c 0,9,10
 507 73 507 73 520 77 c 128,-1,11
 533 81 533 81 536 84 c 2,12,-1
 556 14 l 1,13,14
 508 -10 508 -10 475 -10 c 0,15,16
 450 -10 450 -10 433.5 2 c 128,-1,17
 417 14 417 14 410 27.5 c 128,-1,18
 403 41 403 41 394 68 c 2,19,-1
 272 422 l 1,20,-1
 126 2 l 1,21,-1
 30 2 l 1,22,-1
 228 522 l 1,23,-1
 222 540 l 1,24,-1
 54 424 l 1,25,-1
 54 501 l 1,26,27
 59 501 59 501 198 599 c 1,28,29
 182 628 182 628 163.5 637 c 128,-1,30
 145 646 145 646 120 646 c 2,31,-1
 66 638 l 1,32,-1
 76 720 l 1,33,34
 109 732 109 732 132 732 c 0,0,1
EndSplineSet
Validated: 1
Layer: 2
EndChar

StartChar: uni019C
Encoding: 412 412 342
Width: 833
GlyphClass: 2
Flags: W
LayerCount: 3
Back
Fore
SplineSet
768 0 m 1,0,-1
 685 0 l 1,1,-1
 685 74 l 1,2,3
 651 27 651 27 613.5 6 c 128,-1,4
 576 -15 576 -15 524 -15 c 0,5,6
 427 -15 427 -15 383 65 c 1,7,8
 346 21 346 21 310 3 c 128,-1,9
 274 -15 274 -15 222 -15 c 0,10,11
 148 -15 148 -15 106 23 c 128,-1,12
 64 61 64 61 64 131 c 2,13,-1
 64 729 l 1,14,-1
 159 729 l 1,15,-1
 159 174 l 2,16,17
 159 124 159 124 182.5 96.5 c 128,-1,18
 206 69 206 69 251 69 c 0,19,20
 302 69 302 69 335.5 108.5 c 128,-1,21
 369 148 369 148 369 206 c 2,22,-1
 369 729 l 1,23,-1
 464 729 l 1,24,-1
 464 174 l 2,25,26
 464 69 464 69 555 69 c 0,27,28
 606 69 606 69 639.5 108.5 c 128,-1,29
 673 148 673 148 673 206 c 2,30,-1
 673 729 l 1,31,-1
 768 729 l 1,32,-1
 768 0 l 1,0,-1
EndSplineSet
Validated: 1
Layer: 2
EndChar

StartChar: uni019D
Encoding: 413 413 343
Width: 722
GlyphClass: 2
Flags: W
LayerCount: 3
Back
Fore
SplineSet
76 -76 m 2,0,-1
 76 729 l 1,1,-1
 177 729 l 1,2,-1
 558 133 l 1,3,-1
 558 729 l 1,4,-1
 646 729 l 1,5,-1
 646 0 l 1,6,-1
 541 0 l 1,7,-1
 164 591 l 1,8,-1
 164 -109 l 2,9,10
 164 -162 164 -162 125.5 -190 c 128,-1,11
 87 -218 87 -218 16 -218 c 0,12,13
 3 -218 3 -218 -12 -215 c 1,14,-1
 -12 -139 l 1,15,16
 5 -140 5 -140 8 -140 c 0,17,18
 76 -140 76 -140 76 -76 c 2,0,-1
EndSplineSet
Validated: 1
Layer: 2
EndChar

StartChar: uni019E
Encoding: 414 414 344
Width: 556
GlyphClass: 2
Flags: W
LayerCount: 3
Back
Fore
SplineSet
70 524 m 1,0,-1
 147 524 l 1,1,-1
 147 436 l 1,2,3
 182 491 182 491 222.5 515 c 128,-1,4
 263 539 263 539 321 539 c 0,5,6
 397 539 397 539 442 500 c 128,-1,7
 487 461 487 461 487 396 c 2,8,-1
 487 -200 l 1,9,-1
 404 -200 l 1,10,-1
 404 363 l 2,11,12
 404 410 404 410 375 438 c 128,-1,13
 346 466 346 466 296 466 c 0,14,15
 232 466 232 466 193 417.5 c 128,-1,16
 154 369 154 369 154 289 c 2,17,-1
 154 0 l 1,18,-1
 70 0 l 1,19,-1
 70 524 l 1,0,-1
EndSplineSet
Validated: 1
Layer: 2
EndChar

StartChar: uni019F
Encoding: 415 415 345
Width: 778
GlyphClass: 2
Flags: W
LayerCount: 3
Back
Fore
SplineSet
742 353 m 0,0,1
 742 191 742 191 646 84 c 128,-1,2
 550 -23 550 -23 390 -23 c 0,3,4
 232 -23 232 -23 135 82.5 c 128,-1,5
 38 188 38 188 38 359 c 128,-1,6
 38 530 38 530 135 635.5 c 128,-1,7
 232 741 232 741 389 741 c 0,8,9
 549 741 549 741 645.5 635 c 128,-1,10
 742 529 742 529 742 353 c 0,0,1
648 385 m 1,11,12
 640 510 640 510 570.5 584.5 c 128,-1,13
 501 659 501 659 389 659 c 0,14,15
 280 659 280 659 209.5 584 c 128,-1,16
 139 509 139 509 132 385 c 1,17,-1
 648 385 l 1,11,12
647 315 m 1,18,-1
 133 315 l 1,19,20
 145 198 145 198 214.5 128.5 c 128,-1,21
 284 59 284 59 390 59 c 128,-1,22
 496 59 496 59 566 129 c 128,-1,23
 636 199 636 199 647 315 c 1,18,-1
EndSplineSet
Validated: 1
Layer: 2
EndChar

StartChar: Ohorn
Encoding: 416 416 346
Width: 778
GlyphClass: 2
Flags: W
LayerCount: 3
Back
Fore
SplineSet
389 659 m 0,0,1
 273 659 273 659 202 576.5 c 128,-1,2
 131 494 131 494 131 359 c 128,-1,3
 131 224 131 224 202.5 141.5 c 128,-1,4
 274 59 274 59 390 59 c 128,-1,5
 506 59 506 59 577.5 141 c 128,-1,6
 649 223 649 223 649 355 c 0,7,8
 649 493 649 493 578 576 c 128,-1,9
 507 659 507 659 389 659 c 0,0,1
742 353 m 0,10,11
 742 191 742 191 646 84 c 128,-1,12
 550 -23 550 -23 390 -23 c 0,13,14
 232 -23 232 -23 135 82.5 c 128,-1,15
 38 188 38 188 38 359 c 128,-1,16
 38 530 38 530 135 635.5 c 128,-1,17
 232 741 232 741 389 741 c 0,18,19
 451 741 451 741 505 723 c 128,-1,20
 559 705 559 705 592 687 c 128,-1,21
 625 669 625 669 637 669 c 0,22,23
 662 669 662 669 674 670.5 c 128,-1,24
 686 672 686 672 695 678.5 c 128,-1,25
 704 685 704 685 704 699 c 0,26,27
 704 722 704 722 687 742 c 1,28,-1
 751 796 l 1,29,30
 788 753 788 753 788 697 c 0,31,32
 788 604 788 604 681 588 c 1,33,34
 742 491 742 491 742 353 c 0,10,11
EndSplineSet
Validated: 1
Layer: 2
EndChar

StartChar: ohorn
Encoding: 417 417 347
Width: 556
GlyphClass: 2
Flags: W
LayerCount: 3
Back
Fore
SplineSet
273 462 m 0,0,1
 203 462 203 462 163 407.5 c 128,-1,2
 123 353 123 353 123 258 c 128,-1,3
 123 163 123 163 163 108.5 c 128,-1,4
 203 54 203 54 273 54 c 0,5,6
 342 54 342 54 382.5 108.5 c 128,-1,7
 423 163 423 163 423 255 c 0,8,9
 423 352 423 352 383.5 407 c 128,-1,10
 344 462 344 462 273 462 c 0,0,1
528 631 m 1,11,12
 565 588 565 588 565 532 c 0,13,14
 565 446 565 446 473 426 c 1,15,16
 510 357 510 357 510 254 c 0,17,18
 510 125 510 125 446.5 51 c 128,-1,19
 383 -23 383 -23 273 -23 c 0,20,21
 161 -23 161 -23 98.5 51.5 c 128,-1,22
 36 126 36 126 36 258 c 128,-1,23
 36 390 36 390 99 464.5 c 128,-1,24
 162 539 162 539 272 539 c 0,25,26
 328 539 328 539 369 521.5 c 128,-1,27
 410 504 410 504 423 504 c 0,28,29
 454 504 454 504 467.5 510 c 128,-1,30
 481 516 481 516 481 534 c 0,31,32
 481 557 481 557 464 577 c 1,33,-1
 528 631 l 1,11,12
EndSplineSet
Validated: 1
Layer: 2
EndChar

StartChar: uni01A2
Encoding: 418 418 348
Width: 944
GlyphClass: 2
Flags: W
LayerCount: 3
Back
Fore
SplineSet
389 659 m 0,0,1
 273 659 273 659 202 576.5 c 128,-1,2
 131 494 131 494 131 359 c 128,-1,3
 131 224 131 224 202.5 141.5 c 128,-1,4
 274 59 274 59 390 59 c 128,-1,5
 506 59 506 59 577.5 141 c 128,-1,6
 649 223 649 223 649 355 c 0,7,8
 649 493 649 493 578 576 c 128,-1,9
 507 659 507 659 389 659 c 0,0,1
742 353 m 0,10,11
 742 191 742 191 646 84 c 128,-1,12
 550 -23 550 -23 390 -23 c 0,13,14
 232 -23 232 -23 135 82.5 c 128,-1,15
 38 188 38 188 38 359 c 128,-1,16
 38 530 38 530 135 635.5 c 128,-1,17
 232 741 232 741 389 741 c 0,18,19
 502 741 502 741 588 685 c 1,20,21
 672 746 672 746 768 746 c 0,22,23
 851 746 851 746 887.5 694.5 c 128,-1,24
 924 643 924 643 924 559 c 2,25,-1
 924 0 l 1,26,-1
 830 0 l 1,27,-1
 830 589 l 2,28,29
 830 619 830 619 814.5 645.5 c 128,-1,30
 799 672 799 672 762 672 c 0,31,32
 724 672 724 672 703 662 c 128,-1,33
 682 652 682 652 654 626 c 1,34,35
 742 521 742 521 742 353 c 0,10,11
EndSplineSet
Validated: 1
Layer: 2
EndChar

StartChar: uni01A3
Encoding: 419 419 349
Width: 722
GlyphClass: 2
Flags: W
LayerCount: 3
Back
Fore
SplineSet
273 462 m 0,0,1
 203 462 203 462 163 407.5 c 128,-1,2
 123 353 123 353 123 258 c 128,-1,3
 123 163 123 163 163 108.5 c 128,-1,4
 203 54 203 54 273 54 c 0,5,6
 342 54 342 54 382.5 108.5 c 128,-1,7
 423 163 423 163 423 255 c 0,8,9
 423 352 423 352 383.5 407 c 128,-1,10
 344 462 344 462 273 462 c 0,0,1
672 369 m 2,11,-1
 672 -200 l 1,12,-1
 588 -200 l 1,13,-1
 588 389 l 2,14,15
 588 428 588 428 577 449 c 128,-1,16
 566 470 566 470 532 470 c 0,17,18
 493 470 493 470 458 451 c 1,19,20
 510 378 510 378 510 254 c 0,21,22
 510 125 510 125 446.5 51 c 128,-1,23
 383 -23 383 -23 273 -23 c 0,24,25
 161 -23 161 -23 98.5 51.5 c 128,-1,26
 36 126 36 126 36 258 c 128,-1,27
 36 390 36 390 99 464.5 c 128,-1,28
 162 539 162 539 272 539 c 0,29,30
 356 539 356 539 412 498 c 1,31,32
 476 539 476 539 538 539 c 0,33,34
 608 539 608 539 640 502.5 c 128,-1,35
 672 466 672 466 672 369 c 2,11,-1
EndSplineSet
Validated: 1
Layer: 2
EndChar

StartChar: uni01A4
Encoding: 420 420 350
Width: 842
GlyphClass: 2
Flags: W
LayerCount: 3
Back
Fore
SplineSet
359 391 m 1,0,-1
 553 391 l 2,1,2
 620 391 620 391 657.5 425 c 128,-1,3
 695 459 695 459 695 519 c 128,-1,4
 695 579 695 579 657.5 613 c 128,-1,5
 620 647 620 647 553 647 c 2,6,-1
 359 647 l 1,7,-1
 359 391 l 1,0,-1
792 515 m 0,8,9
 792 422 792 422 735.5 365.5 c 128,-1,10
 679 309 679 309 588 309 c 2,11,-1
 359 309 l 1,12,-1
 359 0 l 1,13,-1
 266 0 l 1,14,-1
 266 642 l 1,15,-1
 184 642 l 2,16,17
 135 642 135 642 135 584 c 0,18,19
 135 561 135 561 148.5 546 c 128,-1,20
 162 531 162 531 189 531 c 0,21,22
 191 531 191 531 199 531.5 c 128,-1,23
 207 532 207 532 218 532 c 1,24,-1
 218 453 l 1,25,26
 194 448 194 448 171 448 c 0,27,28
 48 448 48 448 48 602 c 0,29,30
 48 651 48 651 78.5 690 c 128,-1,31
 109 729 109 729 180 729 c 2,32,-1
 567 729 l 2,33,34
 675 729 675 729 733.5 673.5 c 128,-1,35
 792 618 792 618 792 515 c 0,8,9
EndSplineSet
Validated: 1
Layer: 2
EndChar

StartChar: uni01A5
Encoding: 421 421 351
Width: 556
GlyphClass: 2
Flags: W
LayerCount: 3
Back
Fore
SplineSet
284 461 m 0,0,1
 218 461 218 461 178 405.5 c 128,-1,2
 138 350 138 350 138 258 c 128,-1,3
 138 166 138 166 178 110.5 c 128,-1,4
 218 55 218 55 284 55 c 0,5,6
 352 55 352 55 394 110.5 c 128,-1,7
 436 166 436 166 436 255 c 0,8,9
 436 349 436 349 394.5 405 c 128,-1,10
 353 461 353 461 284 461 c 0,0,1
131 606 m 2,11,-1
 131 445 l 1,12,13
 190 539 190 539 298 539 c 0,14,15
 402 539 402 539 462.5 462 c 128,-1,16
 523 385 523 385 523 253 c 0,17,18
 523 128 523 128 461.5 52.5 c 128,-1,19
 400 -23 400 -23 299 -23 c 0,20,21
 202 -23 202 -23 138 55 c 1,22,-1
 138 -218 l 1,23,-1
 54 -218 l 1,24,-1
 54 613 l 2,25,26
 54 670 54 670 85 701 c 128,-1,27
 116 732 116 732 173 732 c 0,28,29
 194 732 194 732 218 727 c 1,30,-1
 218 658 l 1,31,32
 199 659 199 659 189 659 c 0,33,34
 131 659 131 659 131 606 c 2,11,-1
EndSplineSet
Validated: 1
Layer: 2
EndChar

StartChar: uni01A6
Encoding: 422 422 352
Width: 666
GlyphClass: 2
Flags: W
LayerCount: 3
Back
Fore
SplineSet
184 271 m 1,0,-1
 378 271 l 2,1,2
 443 271 443 271 479.5 305 c 128,-1,3
 516 339 516 339 516 399 c 128,-1,4
 516 459 516 459 479.5 493 c 128,-1,5
 443 527 443 527 378 527 c 2,6,-1
 184 527 l 1,7,-1
 184 271 l 1,0,-1
184 189 m 1,8,-1
 184 0 l 1,9,-1
 91 0 l 1,10,-1
 91 729 l 1,11,-1
 184 729 l 1,12,-1
 184 609 l 1,13,-1
 392 609 l 2,14,15
 496 609 496 609 556 552.5 c 128,-1,16
 616 496 616 496 616 397 c 0,17,18
 616 281 616 281 530 223 c 1,19,20
 567 202 567 202 584 165 c 128,-1,21
 601 128 601 128 602 88.5 c 0,22,23
 602.666666667 62.1666666667 602.666666667 62.1666666667 602.666666667 36.5 c 0,24,25
 602.666666667 23.6666666667 602.666666667 23.6666666667 602.5 11 c 0,26,27
 602.473684211 9 602.473684211 9 602.473684211 7.01939058172 c 0,28,29
 602.473684211 -28.6315789474 602.473684211 -28.6315789474 611 -58 c 0,30,31
 620 -89 620 -89 646 -102 c 1,32,-1
 646 -125 l 1,33,-1
 533 -125 l 1,34,35
 513 -79 513 -79 513 -6 c 2,36,-1
 513 59 l 2,37,38
 513 126 513 126 483.5 157.5 c 128,-1,39
 454 189 454 189 393 189 c 2,40,-1
 184 189 l 1,8,-1
EndSplineSet
Validated: 1
Layer: 2
EndChar

StartChar: uni01A7
Encoding: 423 423 353
Width: 667
GlyphClass: 2
Flags: W
LayerCount: 3
Back
Fore
SplineSet
327 59 m 0,0,1
 386 59 386 59 428.5 74.5 c 128,-1,2
 471 90 471 90 492.5 116 c 128,-1,3
 514 142 514 142 523.5 169 c 128,-1,4
 533 196 533 196 533 227 c 2,5,-1
 533 232 l 1,6,-1
 621 232 l 1,7,8
 620 172 620 172 601.5 126 c 128,-1,9
 583 80 583 80 555 52.5 c 128,-1,10
 527 25 527 25 488 7.5 c 128,-1,11
 449 -10 449 -10 411.5 -16.5 c 128,-1,12
 374 -23 374 -23 333 -23 c 0,13,14
 268 -23 268 -23 216.5 -8 c 128,-1,15
 165 7 165 7 134 30 c 128,-1,16
 103 53 103 53 83 83.5 c 128,-1,17
 63 114 63 114 55.5 142.5 c 128,-1,18
 48 171 48 171 48 200 c 0,19,20
 48 267 48 267 88.5 315 c 128,-1,21
 129 363 129 363 203 383 c 2,22,-1
 386 432 l 2,23,24
 452 450 452 450 479 474 c 128,-1,25
 506 498 506 498 506 540 c 0,26,27
 506 595 506 595 461.5 629 c 128,-1,28
 417 663 417 663 343 663 c 0,29,30
 256 663 256 663 209 624.5 c 128,-1,31
 162 586 162 586 161 515 c 1,32,-1
 73 515 l 1,33,34
 74 622 74 622 144 681.5 c 128,-1,35
 214 741 214 741 340 741 c 0,36,37
 460 741 460 741 529.5 683.5 c 128,-1,38
 599 626 599 626 599 527 c 0,39,40
 599 394 599 394 456 357 c 2,41,-1
 275 309 l 2,42,43
 141 274 141 274 141 191 c 0,44,45
 141 168 141 168 148.5 147.5 c 128,-1,46
 156 127 156 127 174.5 106 c 128,-1,47
 193 85 193 85 232 72 c 128,-1,48
 271 59 271 59 327 59 c 0,0,1
EndSplineSet
Validated: 1
Layer: 2
EndChar

StartChar: uni01A8
Encoding: 424 424 354
Width: 500
GlyphClass: 2
Flags: W
LayerCount: 3
Back
Fore
SplineSet
371 156 m 1,0,-1
 459 156 l 1,1,2
 453 -23 453 -23 250 -23 c 0,3,4
 151 -23 151 -23 92.5 22 c 128,-1,5
 34 67 34 67 34 143 c 0,6,7
 34 201 34 201 69 235.5 c 128,-1,8
 104 270 104 270 182 289 c 2,9,-1
 262 308 l 2,10,11
 313 320 313 320 336 337.5 c 128,-1,12
 359 355 359 355 359 383 c 0,13,14
 359 419 359 419 329 440.5 c 128,-1,15
 299 462 299 462 248 462 c 0,16,17
 146 462 146 462 143 378 c 1,18,-1
 55 378 l 1,19,20
 56 455 56 455 105 497 c 128,-1,21
 154 539 154 539 245 539 c 128,-1,22
 336 539 336 539 391 495.5 c 128,-1,23
 446 452 446 452 446 379 c 0,24,25
 446 317 446 317 409.5 283.5 c 128,-1,26
 373 250 373 250 280 228 c 2,27,-1
 202 209 l 2,28,29
 159 199 159 199 140 182 c 128,-1,30
 121 165 121 165 121 136 c 0,31,32
 121 99 121 99 154.5 76.5 c 128,-1,33
 188 54 188 54 243 54 c 0,34,35
 312 54 312 54 338 81.5 c 128,-1,36
 364 109 364 109 371 156 c 1,0,-1
EndSplineSet
Validated: 1
Layer: 2
EndChar

StartChar: uni01A9
Encoding: 425 425 355
Width: 611
GlyphClass: 2
Flags: W
LayerCount: 3
Back
Fore
SplineSet
247 365 m 1,0,-1
 30 645 l 1,1,-1
 30 729 l 1,2,-1
 555 729 l 1,3,-1
 555 647 l 1,4,-1
 145 647 l 1,5,-1
 364 365 l 1,6,-1
 145 82 l 1,7,-1
 583 82 l 1,8,-1
 583 0 l 1,9,-1
 28 0 l 1,10,-1
 28 82 l 1,11,-1
 247 365 l 1,0,-1
EndSplineSet
Validated: 1
Layer: 2
EndChar

StartChar: uni01AA
Encoding: 426 426 356
Width: 333
GlyphClass: 2
Flags: W
LayerCount: 3
Back
Fore
SplineSet
105 670 m 0,0,1
 80 670 80 670 61.5 652 c 128,-1,2
 43 634 43 634 43 610 c 0,3,4
 43 585 43 585 61.5 567 c 128,-1,5
 80 549 80 549 105 549 c 128,-1,6
 130 549 130 549 148.5 567 c 128,-1,7
 167 585 167 585 167 609 c 0,8,9
 167 635 167 635 149 652.5 c 128,-1,10
 131 670 131 670 105 670 c 0,0,1
145 494 m 1,11,12
 127 487 127 487 105 487 c 0,13,14
 55 487 55 487 18.5 523.5 c 128,-1,15
 -18 560 -18 560 -18 610 c 128,-1,16
 -18 660 -18 660 18.5 696 c 128,-1,17
 55 732 55 732 105 732 c 0,18,19
 162 732 162 732 195 698 c 128,-1,20
 228 664 228 664 228 608 c 2,21,-1
 228 -76 l 2,22,23
 228 -115 228 -115 243.5 -130 c 128,-1,24
 259 -145 259 -145 297 -145 c 0,25,26
 300 -145 300 -145 317 -144 c 1,27,-1
 317 -215 l 1,28,29
 302 -218 302 -218 289 -218 c 0,30,31
 145 -218 145 -218 145 -109 c 2,32,-1
 145 494 l 1,11,12
EndSplineSet
Validated: 1
Layer: 2
EndChar

StartChar: uni01AB
Encoding: 427 427 357
Width: 278
GlyphClass: 2
Flags: W
LayerCount: 3
Back
Fore
SplineSet
170 -22 m 1,0,1
 129 -19 129 -19 107 2.5 c 128,-1,2
 85 24 85 24 85 60 c 2,3,-1
 85 456 l 1,4,-1
 14 456 l 1,5,-1
 14 524 l 1,6,-1
 85 524 l 1,7,-1
 85 668 l 1,8,-1
 168 668 l 1,9,-1
 168 524 l 1,10,-1
 254 524 l 1,11,-1
 254 456 l 1,12,-1
 168 456 l 1,13,-1
 168 97 l 2,14,15
 168 69 168 69 177.5 59.5 c 128,-1,16
 187 50 187 50 214 50 c 0,17,18
 239 50 239 50 254 54 c 1,19,-1
 254 -109 l 2,20,21
 254 -218 254 -218 110 -218 c 0,22,23
 97 -218 97 -218 82 -215 c 1,24,-1
 82 -144 l 1,25,26
 99 -145 99 -145 102 -145 c 0,27,28
 140 -145 140 -145 155 -130 c 128,-1,29
 170 -115 170 -115 170 -76 c 2,30,-1
 170 -22 l 1,0,1
EndSplineSet
Validated: 1
Layer: 2
EndChar

StartChar: uni01AC
Encoding: 428 428 358
Width: 611
GlyphClass: 2
Flags: W
LayerCount: 3
Back
Fore
SplineSet
0 602 m 0,0,1
 0 633 0 633 9.5 659 c 128,-1,2
 19 685 19 685 50.5 706.5 c 128,-1,3
 82 728 82 728 132 729 c 2,4,-1
 593 729 l 1,5,-1
 593 647 l 1,6,-1
 354 647 l 1,7,-1
 354 0 l 1,8,-1
 261 0 l 1,9,-1
 261 647 l 1,10,-1
 218 647 l 1,11,-1
 136 647 l 2,12,13
 87 647 87 647 87 589 c 128,-1,14
 87 531 87 531 141 531 c 0,15,16
 151 531 151 531 170 532 c 1,17,-1
 170 453 l 1,18,19
 146 448 146 448 123 448 c 0,20,21
 0 448 0 448 0 602 c 0,0,1
EndSplineSet
Validated: 1
Layer: 2
EndChar

StartChar: uni01AD
Encoding: 429 429 359
Width: 278
GlyphClass: 2
Flags: W
LayerCount: 3
Back
Fore
SplineSet
168 606 m 2,0,-1
 168 524 l 1,1,-1
 254 524 l 1,2,-1
 254 456 l 1,3,-1
 168 456 l 1,4,-1
 168 97 l 2,5,6
 168 69 168 69 177.5 59.5 c 128,-1,7
 187 50 187 50 214 50 c 0,8,9
 239 50 239 50 254 54 c 1,10,-1
 254 -16 l 1,11,12
 215 -23 215 -23 186 -23 c 0,13,14
 137 -23 137 -23 111 -1.5 c 128,-1,15
 85 20 85 20 85 60 c 2,16,-1
 85 456 l 1,17,-1
 14 456 l 1,18,-1
 14 524 l 1,19,-1
 85 524 l 1,20,-1
 85 613 l 2,21,22
 85 669 85 669 117.5 700.5 c 128,-1,23
 150 732 150 732 208 732 c 0,24,25
 231 732 231 732 255 727 c 1,26,-1
 255 658 l 1,27,28
 236 659 236 659 226 659 c 0,29,30
 168 659 168 659 168 606 c 2,0,-1
EndSplineSet
Validated: 1
Layer: 2
EndChar

StartChar: uni01AE
Encoding: 430 430 360
Width: 611
GlyphClass: 2
Flags: W
LayerCount: 3
Back
Fore
SplineSet
261 -109 m 2,0,-1
 261 647 l 1,1,-1
 21 647 l 1,2,-1
 21 729 l 1,3,-1
 593 729 l 1,4,-1
 593 647 l 1,5,-1
 354 647 l 1,6,-1
 354 -76 l 2,7,8
 354 -135 354 -135 422 -135 c 0,9,10
 425 -135 425 -135 442 -134 c 1,11,-1
 442 -215 l 1,12,13
 427 -218 427 -218 414 -218 c 0,14,15
 342 -218 342 -218 301.5 -190 c 128,-1,16
 261 -162 261 -162 261 -109 c 2,0,-1
EndSplineSet
Validated: 1
Layer: 2
EndChar

StartChar: Uhorn
Encoding: 431 431 361
Width: 722
GlyphClass: 2
Flags: W
LayerCount: 3
Back
Fore
SplineSet
739 856 m 1,0,1
 776 813 776 813 776 757 c 0,2,3
 776 655 776 655 645 646 c 1,4,-1
 645 217 l 2,5,6
 645 107 645 107 568.5 42 c 128,-1,7
 492 -23 492 -23 364 -23 c 0,8,9
 234 -23 234 -23 159.5 41.5 c 128,-1,10
 85 106 85 106 85 217 c 2,11,-1
 85 729 l 1,12,-1
 178 729 l 1,13,-1
 178 217 l 2,14,15
 178 138 178 138 228.5 98.5 c 128,-1,16
 279 59 279 59 364 59 c 0,17,18
 452 59 452 59 502 101 c 128,-1,19
 552 143 552 143 552 217 c 2,20,-1
 552 729 l 1,21,-1
 645 729 l 2,22,23
 669 730 669 730 680.5 735.5 c 128,-1,24
 692 741 692 741 692 759 c 0,25,26
 692 782 692 782 675 802 c 1,27,-1
 739 856 l 1,0,1
EndSplineSet
Validated: 1
Layer: 2
EndChar

StartChar: uhorn
Encoding: 432 432 362
Width: 556
GlyphClass: 2
Flags: W
LayerCount: 3
Back
Fore
SplineSet
586 651 m 1,0,1
 623 608 623 608 623 552 c 0,2,3
 623 445 623 445 482 440 c 1,4,-1
 482 0 l 1,5,-1
 407 0 l 1,6,-1
 407 73 l 1,7,8
 370 21 370 21 330 -1 c 128,-1,9
 290 -23 290 -23 232 -23 c 0,10,11
 156 -23 156 -23 110.5 16 c 128,-1,12
 65 55 65 55 65 120 c 2,13,-1
 65 524 l 1,14,-1
 148 524 l 1,15,-1
 148 153 l 2,16,17
 148 106 148 106 177 78 c 128,-1,18
 206 50 206 50 256 50 c 0,19,20
 321 50 321 50 360 98.5 c 128,-1,21
 399 147 399 147 399 227 c 2,22,-1
 399 524 l 1,23,-1
 492 524 l 2,24,25
 516 525 516 525 527.5 530.5 c 128,-1,26
 539 536 539 536 539 554 c 0,27,28
 539 577 539 577 522 597 c 1,29,-1
 586 651 l 1,0,1
EndSplineSet
Validated: 1
Layer: 2
EndChar

StartChar: uni01B2
Encoding: 434 434 364
Width: 722
GlyphClass: 2
Flags: W
LayerCount: 3
Back
Fore
SplineSet
334 -23 m 0,0,1
 279 -23 279 -23 240.5 -15.5 c 128,-1,2
 202 -8 202 -8 163.5 14 c 128,-1,3
 125 36 125 36 105 84.5 c 128,-1,4
 85 133 85 133 85 207 c 2,5,-1
 85 729 l 1,6,-1
 178 729 l 1,7,-1
 178 167 l 2,8,9
 178 135 178 135 190 112.5 c 128,-1,10
 202 90 202 90 222 79 c 128,-1,11
 242 68 242 68 262 63.5 c 128,-1,12
 282 59 282 59 304 59 c 0,13,14
 343 59 343 59 378.5 66.5 c 128,-1,15
 414 74 414 74 449 93.5 c 128,-1,16
 484 113 484 113 509.5 143.5 c 128,-1,17
 535 174 535 174 551 222.5 c 128,-1,18
 567 271 567 271 567 334 c 2,19,-1
 567 336 l 2,20,21
 567 392 567 392 556.5 441.5 c 128,-1,22
 546 491 546 491 520 543.5 c 128,-1,23
 494 596 494 596 473.5 630 c 128,-1,24
 453 664 453 664 410 729 c 1,25,-1
 518 729 l 1,26,27
 660 539 660 539 660 346 c 0,28,29
 660 171 660 171 570.5 74 c 128,-1,30
 481 -23 481 -23 334 -23 c 0,0,1
EndSplineSet
Validated: 1
Layer: 2
EndChar

StartChar: uni01B3
Encoding: 435 435 365
Width: 722
GlyphClass: 2
Flags: W
LayerCount: 3
Back
Fore
SplineSet
25 617 m 1,0,1
 -11 695 -11 695 -12 696 c 1,2,3
 0 703 0 703 10.5 710.5 c 128,-1,4
 21 718 21 718 37.5 723.5 c 128,-1,5
 54 729 54 729 74 729 c 0,6,7
 139 729 139 729 184 665 c 1,8,-1
 357 374 l 1,9,-1
 571 729 l 1,10,-1
 686 729 l 1,11,-1
 405 286 l 1,12,-1
 405 0 l 1,13,-1
 312 0 l 1,14,-1
 312 286 l 1,15,-1
 133 576 l 2,16,17
 132 577 132 577 123.5 592 c 128,-1,18
 115 607 115 607 109.5 614.5 c 128,-1,19
 104 622 104 622 93 630 c 128,-1,20
 82 638 82 638 71 638 c 0,21,22
 46 638 46 638 25 617 c 1,0,1
EndSplineSet
Validated: 1
Layer: 2
EndChar

StartChar: uni01B4
Encoding: 436 436 366
Width: 556
GlyphClass: 2
Flags: W
LayerCount: 3
Back
Fore
SplineSet
437 412 m 2,0,-1
 245 -110 l 2,1,2
 204 -218 204 -218 110 -218 c 0,3,4
 79 -218 79 -218 54 -205 c 1,5,-1
 54 -130 l 1,6,7
 81 -136 81 -136 98 -136 c 0,8,9
 124 -136 124 -136 139.5 -124.5 c 128,-1,10
 155 -113 155 -113 165 -85 c 2,11,-1
 197 0 l 1,12,-1
 20 524 l 1,13,-1
 109 524 l 1,14,-1
 243 116 l 1,15,-1
 357 437 l 2,16,17
 398 545 398 545 492 545 c 0,18,19
 523 545 523 545 548 532 c 1,20,-1
 548 457 l 1,21,22
 521 463 521 463 504 463 c 0,23,24
 478 463 478 463 463 451.5 c 128,-1,25
 448 440 448 440 437 412 c 2,0,-1
EndSplineSet
Validated: 1
Layer: 2
EndChar

StartChar: uni01B5
Encoding: 437 437 367
Width: 611
GlyphClass: 2
Flags: W
LayerCount: 3
Back
Fore
SplineSet
581 729 m 1,0,-1
 581 645 l 1,1,-1
 396 406 l 1,2,-1
 473 406 l 1,3,-1
 473 339 l 1,4,-1
 344 339 l 1,5,-1
 145 82 l 1,6,-1
 583 82 l 1,7,-1
 583 0 l 1,8,-1
 28 0 l 1,9,-1
 28 82 l 1,10,-1
 227 339 l 1,11,-1
 140 339 l 1,12,-1
 140 406 l 1,13,-1
 279 406 l 1,14,-1
 466 647 l 1,15,-1
 56 647 l 1,16,-1
 56 729 l 1,17,-1
 581 729 l 1,0,-1
EndSplineSet
Validated: 1
Layer: 2
EndChar

StartChar: uni01B6
Encoding: 438 438 368
Width: 500
GlyphClass: 2
Flags: W
LayerCount: 3
Back
Fore
SplineSet
443 524 m 1,0,-1
 443 450 l 1,1,-1
 320 301 l 1,2,-1
 403 301 l 1,3,-1
 403 234 l 1,4,-1
 265 234 l 1,5,-1
 132 73 l 1,6,-1
 457 73 l 1,7,-1
 457 0 l 1,8,-1
 31 0 l 1,9,-1
 31 75 l 1,10,-1
 163 234 l 1,11,-1
 70 234 l 1,12,-1
 70 301 l 1,13,-1
 219 301 l 1,14,-1
 344 451 l 1,15,-1
 52 451 l 1,16,-1
 52 524 l 1,17,-1
 443 524 l 1,0,-1
EndSplineSet
Validated: 1
Layer: 2
EndChar

StartChar: uni01B7
Encoding: 439 439 369
Width: 611
GlyphClass: 2
Flags: W
LayerCount: 3
Back
Fore
SplineSet
325 466 m 2,0,-1
 466 647 l 1,1,-1
 56 647 l 1,2,-1
 56 729 l 1,3,-1
 581 729 l 1,4,-1
 581 645 l 1,5,-1
 401 413 l 1,6,7
 431 406 431 406 453 398 c 128,-1,8
 475 390 475 390 499.5 374 c 128,-1,9
 524 358 524 358 539.5 336.5 c 128,-1,10
 555 315 555 315 565.5 280 c 128,-1,11
 576 245 576 245 576 201 c 2,12,-1
 576 198 l 2,13,14
 575 98 575 98 497.5 37.5 c 128,-1,15
 420 -23 420 -23 296 -23 c 0,16,17
 48 -23 48 -23 32 206 c 1,18,-1
 120 206 l 1,19,20
 129 55 129 55 299 55 c 0,21,22
 380 55 380 55 433 93.5 c 128,-1,23
 486 132 486 132 486 197 c 0,24,25
 486 355 486 355 249 355 c 1,26,-1
 249 430 l 1,27,28
 270 430 270 430 285 435.5 c 128,-1,29
 300 441 300 441 306.5 447 c 128,-1,30
 313 453 313 453 325 466 c 2,0,-1
EndSplineSet
Validated: 1
Layer: 2
EndChar

StartChar: uni01B8
Encoding: 440 440 370
Width: 611
GlyphClass: 2
Flags: W
LayerCount: 3
Back
Fore
SplineSet
288 466 m 2,0,1
 300 453 300 453 306.5 447 c 128,-1,2
 313 441 313 441 328 435.5 c 128,-1,3
 343 430 343 430 364 430 c 1,4,-1
 364 355 l 1,5,6
 127 355 127 355 127 197 c 0,7,8
 127 132 127 132 180 93.5 c 128,-1,9
 233 55 233 55 314 55 c 0,10,11
 484 55 484 55 493 206 c 1,12,-1
 581 206 l 1,13,14
 565 -23 565 -23 317 -23 c 0,15,16
 193 -23 193 -23 115.5 37.5 c 128,-1,17
 38 98 38 98 37 198 c 0,18,19
 37 199 37 199 37 201 c 0,20,21
 37 245 37 245 47.5 280 c 128,-1,22
 58 315 58 315 73.5 336.5 c 128,-1,23
 89 358 89 358 113.5 374 c 128,-1,24
 138 390 138 390 160 398 c 128,-1,25
 182 406 182 406 212 413 c 1,26,-1
 32 645 l 1,27,-1
 32 729 l 1,28,-1
 557 729 l 1,29,-1
 557 647 l 1,30,-1
 147 647 l 1,31,-1
 288 466 l 2,0,1
EndSplineSet
Validated: 1
Layer: 2
EndChar

StartChar: uni01B9
Encoding: 441 441 371
Width: 500
GlyphClass: 2
Flags: W
LayerCount: 3
Back
Fore
SplineSet
198 276 m 1,0,-1
 55 450 l 1,1,-1
 55 524 l 1,2,-1
 446 524 l 1,3,-1
 446 451 l 1,4,-1
 154 451 l 1,5,-1
 297 280 l 1,6,-1
 297 205 l 1,7,-1
 249 205 l 2,8,9
 102 205 102 205 102 77 c 0,10,11
 102 10 102 10 141 -27.5 c 128,-1,12
 180 -65 180 -65 249 -65 c 0,13,14
 321 -65 321 -65 357 -28 c 128,-1,15
 393 9 393 9 398 86 c 1,16,-1
 486 86 l 1,17,18
 470 -143 470 -143 252 -143 c 0,19,20
 143 -143 143 -143 77.5 -83 c 128,-1,21
 12 -23 12 -23 12 78 c 0,22,23
 12 166 12 166 60.5 215.5 c 128,-1,24
 109 265 109 265 198 276 c 1,0,-1
EndSplineSet
Validated: 1
Layer: 2
EndChar

StartChar: uni01BA
Encoding: 442 442 372
Width: 500
GlyphClass: 2
Flags: W
LayerCount: 3
Back
Fore
SplineSet
300 276 m 1,0,1
 483 255 483 255 483 108 c 0,2,3
 483 28 483 28 419.5 -21 c 128,-1,4
 356 -70 356 -70 259 -70 c 0,5,6
 239 -70 239 -70 195.5 -61.5 c 128,-1,7
 152 -53 152 -53 138 -53 c 0,8,9
 113 -53 113 -53 113 -69 c 0,10,11
 113 -97 113 -97 143.5 -113 c 128,-1,12
 174 -129 174 -129 228 -129 c 0,13,14
 315 -129 315 -129 413 -91 c 1,15,-1
 436 -160 l 1,16,17
 426 -164 426 -164 412.5 -168.5 c 128,-1,18
 399 -173 399 -173 385 -178 c 128,-1,19
 371 -183 371 -183 353 -187 c 128,-1,20
 335 -191 335 -191 316.5 -194.5 c 128,-1,21
 298 -198 298 -198 275 -200 c 128,-1,22
 252 -202 252 -202 228 -202 c 0,23,24
 131 -202 131 -202 82.5 -164 c 128,-1,25
 34 -126 34 -126 34 -60 c 0,26,27
 34 19 34 19 130 19 c 0,28,29
 159 19 159 19 205 11 c 128,-1,30
 251 3 251 3 259 3 c 0,31,32
 307 3 307 3 355.5 29 c 128,-1,33
 404 55 404 55 404 103 c 0,34,35
 404 146 404 146 362.5 175.5 c 128,-1,36
 321 205 321 205 249 205 c 2,37,-1
 201 205 l 1,38,-1
 201 280 l 1,39,-1
 344 451 l 1,40,-1
 52 451 l 1,41,-1
 52 524 l 1,42,-1
 443 524 l 1,43,-1
 443 450 l 1,44,-1
 300 276 l 1,0,1
EndSplineSet
Validated: 1
Layer: 2
EndChar

StartChar: uni01BB
Encoding: 443 443 373
Width: 556
GlyphClass: 2
Flags: W
LayerCount: 3
Back
Fore
SplineSet
50 463 m 1,0,1
 57 709 57 709 284 709 c 0,2,3
 385 709 385 709 448 651 c 128,-1,4
 511 593 511 593 511 501 c 0,5,6
 511 378 511 378 381 299 c 1,7,-1
 468 263 l 1,8,-1
 468 186 l 1,9,-1
 301 254 l 1,10,-1
 261 233 l 2,11,12
 196 198 196 198 168 165 c 128,-1,13
 140 132 140 132 133 87 c 1,14,-1
 506 87 l 1,15,-1
 506 0 l 1,16,-1
 34 0 l 1,17,18
 40 111 40 111 76.5 173 c 128,-1,19
 113 235 113 235 208 292 c 1,20,-1
 125 326 l 1,21,-1
 125 403 l 1,22,-1
 286 337 l 1,23,-1
 325 359 l 2,24,25
 421 414 421 414 421 499 c 0,26,27
 421 556 421 556 381 594 c 128,-1,28
 341 632 341 632 281 632 c 0,29,30
 148 632 148 632 138 463 c 1,31,-1
 50 463 l 1,0,1
EndSplineSet
Validated: 1
Layer: 2
EndChar

StartChar: uni01BE
Encoding: 446 446 374
Width: 556
GlyphClass: 2
Flags: W
LayerCount: 3
Back
Fore
SplineSet
496 171 m 0,0,1
 496 78 496 78 436 28.5 c 128,-1,2
 376 -21 376 -21 283 -21 c 0,3,4
 179 -21 179 -21 121.5 41 c 128,-1,5
 64 103 64 103 64 213 c 1,6,-1
 143 213 l 1,7,8
 143 145 143 145 174.5 98 c 128,-1,9
 206 51 206 51 278 51 c 0,10,11
 341 51 341 51 377 79 c 128,-1,12
 413 107 413 107 413 165 c 0,13,14
 413 206 413 206 394 232.5 c 128,-1,15
 375 259 375 259 348 273.5 c 128,-1,16
 321 288 321 288 294 303.5 c 128,-1,17
 267 319 267 319 248 349.5 c 128,-1,18
 229 380 229 380 229 426 c 2,19,-1
 229 456 l 1,20,-1
 158 456 l 1,21,-1
 158 524 l 1,22,-1
 229 524 l 1,23,-1
 229 668 l 1,24,-1
 312 668 l 1,25,-1
 312 524 l 1,26,-1
 398 524 l 1,27,-1
 398 456 l 1,28,-1
 312 456 l 1,29,-1
 312 434 l 2,30,31
 312 403 312 403 331 380.5 c 128,-1,32
 350 358 350 358 377 341 c 128,-1,33
 404 324 404 324 431 305 c 128,-1,34
 458 286 458 286 477 252 c 128,-1,35
 496 218 496 218 496 171 c 0,0,1
EndSplineSet
Validated: 1
Layer: 2
EndChar

StartChar: uni01BF
Encoding: 447 447 375
Width: 556
GlyphClass: 2
Flags: W
LayerCount: 3
Back
Fore
SplineSet
138 360 m 1,0,-1
 138 26 l 1,1,2
 173 49 173 49 185 56.5 c 128,-1,3
 197 64 197 64 236.5 92.5 c 128,-1,4
 276 121 276 121 295.5 139 c 128,-1,5
 315 157 315 157 346.5 189.5 c 128,-1,6
 378 222 378 222 394 249 c 128,-1,7
 410 276 410 276 423 311 c 128,-1,8
 436 346 436 346 436 380 c 0,9,10
 436 421 436 421 408.5 441.5 c 128,-1,11
 381 462 381 462 339 462 c 0,12,13
 235 462 235 462 138 360 c 1,0,-1
138 -63 m 1,14,-1
 138 -218 l 1,15,-1
 54 -218 l 1,16,-1
 54 524 l 1,17,-1
 138 524 l 1,18,-1
 138 444 l 1,19,20
 199 503 199 503 246.5 521.5 c 128,-1,21
 294 540 294 540 372 540 c 0,22,23
 438 540 438 540 481.5 493 c 128,-1,24
 525 446 525 446 525 368 c 0,25,26
 525 333 525 333 515.5 298.5 c 128,-1,27
 506 264 506 264 489 234 c 128,-1,28
 472 204 472 204 449 174.5 c 128,-1,29
 426 145 426 145 399.5 120.5 c 128,-1,30
 373 96 373 96 344 72 c 128,-1,31
 315 48 315 48 286.5 29 c 128,-1,32
 258 10 258 10 230.5 -8 c 128,-1,33
 203 -26 203 -26 179.5 -38.5 c 128,-1,34
 156 -51 156 -51 138 -63 c 1,14,-1
EndSplineSet
Validated: 1
Layer: 2
EndChar

StartChar: uni01C2
Encoding: 450 450 378
Width: 584
GlyphClass: 2
Flags: W
LayerCount: 3
Back
Fore
SplineSet
260 729 m 1,0,-1
 320 729 l 1,1,-1
 320 353 l 1,2,-1
 534 353 l 1,3,-1
 534 283 l 1,4,-1
 320 283 l 1,5,-1
 320 181 l 1,6,-1
 534 181 l 1,7,-1
 534 111 l 1,8,-1
 320 111 l 1,9,-1
 320 -212 l 1,10,-1
 260 -212 l 1,11,-1
 260 111 l 1,12,-1
 50 111 l 1,13,-1
 50 181 l 1,14,-1
 260 181 l 1,15,-1
 260 283 l 1,16,-1
 50 283 l 1,17,-1
 50 353 l 1,18,-1
 260 353 l 1,19,-1
 260 729 l 1,0,-1
EndSplineSet
Validated: 1
Layer: 2
EndChar

StartChar: uni01C4
Encoding: 452 452 380
Width: 1311
GlyphClass: 2
Flags: W
LayerCount: 3
Back
Fore
SplineSet
1066 790 m 1,0,-1
 971 790 l 1,1,-1
 875 940 l 1,2,-1
 938 940 l 1,3,-1
 1019 844 l 1,4,-1
 1098 940 l 1,5,-1
 1162 940 l 1,6,-1
 1066 790 l 1,0,-1
1281 729 m 1,7,-1
 1281 645 l 1,8,-1
 845 82 l 1,9,-1
 1283 82 l 1,10,-1
 1283 0 l 1,11,-1
 728 0 l 1,12,-1
 728 82 l 1,13,-1
 1166 647 l 1,14,-1
 756 647 l 1,15,-1
 756 729 l 1,16,-1
 1281 729 l 1,7,-1
89 0 m 1,17,-1
 89 729 l 1,18,-1
 370 729 l 2,19,20
 509 729 509 729 588 632 c 128,-1,21
 667 535 667 535 667 365 c 128,-1,22
 667 195 667 195 587.5 97.5 c 128,-1,23
 508 0 508 0 370 0 c 2,24,-1
 89 0 l 1,17,-1
182 82 m 1,25,-1
 354 82 l 2,26,27
 462 82 462 82 518 154 c 128,-1,28
 574 226 574 226 574 364 c 0,29,30
 574 503 574 503 518 575 c 128,-1,31
 462 647 462 647 354 647 c 2,32,-1
 182 647 l 1,33,-1
 182 82 l 1,25,-1
EndSplineSet
Validated: 1
Layer: 2
EndChar

StartChar: uni01C5
Encoding: 453 453 381
Width: 1208
GlyphClass: 2
Flags: W
LayerCount: 3
Back
Fore
SplineSet
1006 590 m 1,0,-1
 911 590 l 1,1,-1
 815 740 l 1,2,-1
 878 740 l 1,3,-1
 959 644 l 1,4,-1
 1038 740 l 1,5,-1
 1102 740 l 1,6,-1
 1006 590 l 1,0,-1
1151 524 m 1,7,-1
 1151 450 l 1,8,-1
 840 73 l 1,9,-1
 1165 73 l 1,10,-1
 1165 0 l 1,11,-1
 739 0 l 1,12,-1
 739 75 l 1,13,-1
 1052 451 l 1,14,-1
 760 451 l 1,15,-1
 760 524 l 1,16,-1
 1151 524 l 1,7,-1
89 0 m 1,17,-1
 89 729 l 1,18,-1
 370 729 l 2,19,20
 509 729 509 729 588 632 c 128,-1,21
 667 535 667 535 667 365 c 128,-1,22
 667 195 667 195 587.5 97.5 c 128,-1,23
 508 0 508 0 370 0 c 2,24,-1
 89 0 l 1,17,-1
182 82 m 1,25,-1
 354 82 l 2,26,27
 462 82 462 82 518 154 c 128,-1,28
 574 226 574 226 574 364 c 0,29,30
 574 503 574 503 518 575 c 128,-1,31
 462 647 462 647 354 647 c 2,32,-1
 182 647 l 1,33,-1
 182 82 l 1,25,-1
EndSplineSet
Validated: 1
Layer: 2
EndChar

StartChar: uni01C6
Encoding: 454 454 382
Width: 1056
GlyphClass: 2
Flags: W
LayerCount: 3
Back
Fore
SplineSet
854 590 m 1,0,-1
 759 590 l 1,1,-1
 663 740 l 1,2,-1
 726 740 l 1,3,-1
 807 644 l 1,4,-1
 886 740 l 1,5,-1
 950 740 l 1,6,-1
 854 590 l 1,0,-1
999 524 m 1,7,-1
 999 450 l 1,8,-1
 688 73 l 1,9,-1
 1013 73 l 1,10,-1
 1013 0 l 1,11,-1
 587 0 l 1,12,-1
 587 75 l 1,13,-1
 900 451 l 1,14,-1
 608 451 l 1,15,-1
 608 524 l 1,16,-1
 999 524 l 1,7,-1
495 729 m 1,17,-1
 495 0 l 1,18,-1
 421 0 l 1,19,-1
 421 69 l 1,20,21
 387 20 387 20 347.5 -1.5 c 128,-1,22
 308 -23 308 -23 254 -23 c 0,23,24
 148 -23 148 -23 87 53.5 c 128,-1,25
 26 130 26 130 26 263 c 0,26,27
 26 388 26 388 87.5 463.5 c 128,-1,28
 149 539 149 539 251 539 c 0,29,30
 359 539 359 539 412 458 c 1,31,-1
 412 729 l 1,32,-1
 495 729 l 1,17,-1
265 461 m 0,33,34
 197 461 197 461 155 405 c 128,-1,35
 113 349 113 349 113 258 c 0,36,37
 113 166 113 166 155 110.5 c 128,-1,38
 197 55 197 55 266 55 c 0,39,40
 332 55 332 55 372 110 c 128,-1,41
 412 165 412 165 412 256 c 0,42,43
 412 350 412 350 372 405.5 c 128,-1,44
 332 461 332 461 265 461 c 0,33,34
EndSplineSet
Validated: 1
Layer: 2
EndChar

StartChar: uni01D5
Encoding: 469 469 397
Width: 722
GlyphClass: 2
Flags: W
LayerCount: 3
Back
Fore
SplineSet
502 1024 m 1,0,-1
 502 954 l 1,1,-1
 228 954 l 1,2,-1
 228 1024 l 1,3,-1
 502 1024 l 1,0,-1
336 904 m 1,4,-1
 336 801 l 1,5,-1
 232 801 l 1,6,-1
 232 904 l 1,7,-1
 336 904 l 1,4,-1
498 904 m 1,8,-1
 498 801 l 1,9,-1
 394 801 l 1,10,-1
 394 904 l 1,11,-1
 498 904 l 1,8,-1
552 729 m 1,12,-1
 645 729 l 1,13,-1
 645 217 l 2,14,15
 645 107 645 107 568.5 42 c 128,-1,16
 492 -23 492 -23 364 -23 c 0,17,18
 234 -23 234 -23 159.5 41.5 c 128,-1,19
 85 106 85 106 85 217 c 2,20,-1
 85 729 l 1,21,-1
 178 729 l 1,22,-1
 178 217 l 2,23,24
 178 138 178 138 228.5 98.5 c 128,-1,25
 279 59 279 59 364 59 c 0,26,27
 452 59 452 59 502 101 c 128,-1,28
 552 143 552 143 552 217 c 2,29,-1
 552 729 l 1,12,-1
EndSplineSet
Validated: 1
Layer: 2
EndChar

StartChar: uni01D6
Encoding: 470 470 398
Width: 556
GlyphClass: 2
Flags: W
LayerCount: 3
Back
Fore
SplineSet
411 825 m 1,0,-1
 411 755 l 1,1,-1
 137 755 l 1,2,-1
 137 825 l 1,3,-1
 411 825 l 1,0,-1
244 702 m 1,4,-1
 244 599 l 1,5,-1
 140 599 l 1,6,-1
 140 702 l 1,7,-1
 244 702 l 1,4,-1
406 702 m 1,8,-1
 406 599 l 1,9,-1
 302 599 l 1,10,-1
 302 702 l 1,11,-1
 406 702 l 1,8,-1
482 0 m 1,12,-1
 407 0 l 1,13,-1
 407 73 l 1,14,15
 370 21 370 21 330 -1 c 128,-1,16
 290 -23 290 -23 232 -23 c 0,17,18
 156 -23 156 -23 110.5 16 c 128,-1,19
 65 55 65 55 65 120 c 2,20,-1
 65 524 l 1,21,-1
 148 524 l 1,22,-1
 148 153 l 2,23,24
 148 106 148 106 177 78 c 128,-1,25
 206 50 206 50 256 50 c 0,26,27
 321 50 321 50 360 98.5 c 128,-1,28
 399 147 399 147 399 227 c 2,29,-1
 399 524 l 1,30,-1
 482 524 l 1,31,-1
 482 0 l 1,12,-1
EndSplineSet
Validated: 1
Layer: 2
EndChar

StartChar: uni01D7
Encoding: 471 471 399
Width: 722
GlyphClass: 2
Flags: W
LayerCount: 3
Back
Fore
SplineSet
431 1102 m 1,0,-1
 544 1102 l 1,1,-1
 395 954 l 1,2,-1
 335 954 l 1,3,-1
 431 1102 l 1,0,-1
336 904 m 1,4,-1
 336 801 l 1,5,-1
 232 801 l 1,6,-1
 232 904 l 1,7,-1
 336 904 l 1,4,-1
498 904 m 1,8,-1
 498 801 l 1,9,-1
 394 801 l 1,10,-1
 394 904 l 1,11,-1
 498 904 l 1,8,-1
552 729 m 1,12,-1
 645 729 l 1,13,-1
 645 217 l 2,14,15
 645 107 645 107 568.5 42 c 128,-1,16
 492 -23 492 -23 364 -23 c 0,17,18
 234 -23 234 -23 159.5 41.5 c 128,-1,19
 85 106 85 106 85 217 c 2,20,-1
 85 729 l 1,21,-1
 178 729 l 1,22,-1
 178 217 l 2,23,24
 178 138 178 138 228.5 98.5 c 128,-1,25
 279 59 279 59 364 59 c 0,26,27
 452 59 452 59 502 101 c 128,-1,28
 552 143 552 143 552 217 c 2,29,-1
 552 729 l 1,12,-1
EndSplineSet
Validated: 1
Layer: 2
EndChar

StartChar: uni01D8
Encoding: 472 472 400
Width: 556
GlyphClass: 2
Flags: W
LayerCount: 3
Back
Fore
SplineSet
340 903 m 1,0,-1
 453 903 l 1,1,-1
 304 755 l 1,2,-1
 244 755 l 1,3,-1
 340 903 l 1,0,-1
244 702 m 1,4,-1
 244 599 l 1,5,-1
 140 599 l 1,6,-1
 140 702 l 1,7,-1
 244 702 l 1,4,-1
406 702 m 1,8,-1
 406 599 l 1,9,-1
 302 599 l 1,10,-1
 302 702 l 1,11,-1
 406 702 l 1,8,-1
482 0 m 1,12,-1
 407 0 l 1,13,-1
 407 73 l 1,14,15
 370 21 370 21 330 -1 c 128,-1,16
 290 -23 290 -23 232 -23 c 0,17,18
 156 -23 156 -23 110.5 16 c 128,-1,19
 65 55 65 55 65 120 c 2,20,-1
 65 524 l 1,21,-1
 148 524 l 1,22,-1
 148 153 l 2,23,24
 148 106 148 106 177 78 c 128,-1,25
 206 50 206 50 256 50 c 0,26,27
 321 50 321 50 360 98.5 c 128,-1,28
 399 147 399 147 399 227 c 2,29,-1
 399 524 l 1,30,-1
 482 524 l 1,31,-1
 482 0 l 1,12,-1
EndSplineSet
Validated: 1
Layer: 2
EndChar

StartChar: uni01D9
Encoding: 473 473 401
Width: 722
GlyphClass: 2
Flags: W
LayerCount: 3
Back
Fore
SplineSet
412 954 m 1,0,-1
 317 954 l 1,1,-1
 221 1104 l 1,2,-1
 284 1104 l 1,3,-1
 365 1008 l 1,4,-1
 444 1104 l 1,5,-1
 508 1104 l 1,6,-1
 412 954 l 1,0,-1
336 904 m 1,7,-1
 336 801 l 1,8,-1
 232 801 l 1,9,-1
 232 904 l 1,10,-1
 336 904 l 1,7,-1
498 904 m 1,11,-1
 498 801 l 1,12,-1
 394 801 l 1,13,-1
 394 904 l 1,14,-1
 498 904 l 1,11,-1
552 729 m 1,15,-1
 645 729 l 1,16,-1
 645 217 l 2,17,18
 645 107 645 107 568.5 42 c 128,-1,19
 492 -23 492 -23 364 -23 c 0,20,21
 234 -23 234 -23 159.5 41.5 c 128,-1,22
 85 106 85 106 85 217 c 2,23,-1
 85 729 l 1,24,-1
 178 729 l 1,25,-1
 178 217 l 2,26,27
 178 138 178 138 228.5 98.5 c 128,-1,28
 279 59 279 59 364 59 c 0,29,30
 452 59 452 59 502 101 c 128,-1,31
 552 143 552 143 552 217 c 2,32,-1
 552 729 l 1,15,-1
EndSplineSet
Validated: 1
Layer: 2
EndChar

